<svg width="40" height="40" viewBox="0 0 40 40" fill="none" xmlns="http://www.w3.org/2000/svg">
<circle cx="20" cy="20" r="20" fill="#9DCCED"/>
<g filter="url(#filter0_d_837_3985)">
<mask id="mask0_837_3985" style="mask-type:luminance" maskUnits="userSpaceOnUse" x="8" y="7" width="24" height="27">
<path d="M32 7.35352H8V33.3612H32V7.35352Z" fill="white"/>
</mask>
<g mask="url(#mask0_837_3985)">
<path d="M22.0101 22.334L20.697 25.7865C20.6583 25.8822 20.6583 25.9886 20.697 26.0843L22.9519 32.0265L25.5613 30.5795L22.4311 22.334C22.3591 22.1426 22.0821 22.1426 22.0101 22.334Z" fill="white"/>
<path d="M24.6382 16.5245C24.5662 16.333 24.2892 16.333 24.2172 16.5245L22.9041 19.9769C22.8653 20.0727 22.8653 20.1791 22.9041 20.2749L26.5994 30.0045L29.2088 28.5575L24.6382 16.5245Z" fill="white"/>
<path d="M20 8.96537C20.0665 8.96537 20.1274 8.98132 20.1884 9.01324L30.1385 14.5297C30.2549 14.5935 30.3269 14.7106 30.3269 14.8382V25.8711C30.3269 25.9988 30.2549 26.1159 30.1385 26.1797L20.1884 31.7015C20.133 31.7334 20.0665 31.7494 20 31.7494C19.9335 31.7494 19.8726 31.7334 19.8116 31.7015L9.86703 26.185C9.75069 26.1211 9.67867 26.0041 9.67867 25.8765V14.8382C9.67867 14.7106 9.75069 14.5935 9.86703 14.5297L19.8172 9.01324C19.8726 8.98132 19.9391 8.96537 20 8.96537ZM20 7.35352C19.6455 7.35352 19.2908 7.44395 18.975 7.6195L9.02493 13.136C8.39335 13.4871 8 14.1361 8 14.8382V25.8711C8 26.5734 8.39335 27.2277 9.02493 27.5788L18.975 33.0952C19.2908 33.2707 19.6455 33.3612 20 33.3612C20.3545 33.3612 20.7092 33.2707 21.025 33.0952L30.975 27.5788C31.6122 27.2277 32 26.5786 32 25.8711V14.8382C32 14.1361 31.6066 13.4817 30.975 13.1306L21.0305 7.6195C20.7092 7.44395 20.3545 7.35352 20 7.35352Z" fill="white"/>
<path d="M13.4238 30.015L14.338 27.6113L16.1773 29.0791L14.4598 30.5894L13.4238 30.015Z" fill="white"/>
<path d="M19.1615 14.0527H16.6408C16.4524 14.0527 16.2806 14.1644 16.2197 14.3347L10.8125 28.57L13.4219 30.0169L19.3776 14.34C19.4274 14.2017 19.3222 14.0527 19.1615 14.0527Z" fill="white"/>
<path d="M23.5761 14.0527H21.0554C20.867 14.0527 20.6952 14.1644 20.6343 14.3347L14.457 30.5914L17.0664 32.0384L23.7867 14.3453C23.842 14.2017 23.7313 14.0527 23.5761 14.0527Z" fill="white"/>
</g>
</g>
<defs>
<filter id="filter0_d_837_3985" x="8" y="7.35352" width="24" height="28.0078" filterUnits="userSpaceOnUse" color-interpolation-filters="sRGB">
<feFlood flood-opacity="0" result="BackgroundImageFix"/>
<feColorMatrix in="SourceAlpha" type="matrix" values="0 0 0 0 0 0 0 0 0 0 0 0 0 0 0 0 0 0 127 0" result="hardAlpha"/>
<feOffset dy="2"/>
<feComposite in2="hardAlpha" operator="out"/>
<feColorMatrix type="matrix" values="0 0 0 0 0.37024 0 0 0 0 0.603973 0 0 0 0 0.768083 0 0 0 1 0"/>
<feBlend mode="normal" in2="BackgroundImageFix" result="effect1_dropShadow_837_3985"/>
<feBlend mode="normal" in="SourceGraphic" in2="effect1_dropShadow_837_3985" result="shape"/>
</filter>
</defs>
</svg>
