<svg width="40" height="40" viewBox="0 0 40 40" fill="none" xmlns="http://www.w3.org/2000/svg">
<circle cx="20" cy="20" r="20" fill="#EE4C4D"/>
<g filter="url(#filter0_d_837_3999)">
<path d="M15.4561 29.3601H10.1296C9.93235 29.3601 9.73856 29.3083 9.56749 29.2097C9.39641 29.1112 9.25401 28.9693 9.15445 28.7983C9.0549 28.6272 9.00166 28.433 9.00004 28.2349C8.99842 28.0367 9.04847 27.8416 9.14521 27.669L18.537 10.9312C18.6353 10.7562 18.7782 10.6105 18.951 10.5092C19.1238 10.4079 19.3202 10.3545 19.5203 10.3545C19.7203 10.3545 19.9168 10.4079 20.0895 10.5092C20.2623 10.6105 20.4052 10.7562 20.5035 10.9312L23.3181 15.9232C23.4176 16.0959 23.47 16.2919 23.47 16.4915C23.47 16.6911 23.4176 16.8871 23.3181 17.0599L16.4341 28.8014C16.334 28.9724 16.1911 29.114 16.0194 29.2121C15.8478 29.3101 15.6535 29.3612 15.4561 29.3601ZM21.5241 27.6647L24.6881 21.9941C24.7867 21.8191 24.9298 21.6736 25.1028 21.5723C25.2757 21.4711 25.4723 21.4177 25.6724 21.4177C25.8726 21.4177 26.0691 21.4711 26.2421 21.5723C26.415 21.6736 26.5581 21.8191 26.6568 21.9941L29.8527 27.6625C29.9502 27.8353 30.001 28.0308 30 28.2294C29.9989 28.4281 29.9461 28.6229 29.8467 28.7947C29.7474 28.9664 29.6049 29.109 29.4337 29.2082C29.2624 29.3074 29.0682 29.3598 28.8705 29.3601H22.5106C22.3128 29.3603 22.1185 29.3084 21.9469 29.2096C21.7753 29.1109 21.6325 28.9686 21.5327 28.7971C21.4328 28.6255 21.3795 28.4307 21.378 28.232C21.3765 28.0333 21.4269 27.8377 21.5241 27.6647Z" fill="white"/>
</g>
<defs>
<filter id="filter0_d_837_3999" x="9" y="10.3545" width="21" height="21.0059" filterUnits="userSpaceOnUse" color-interpolation-filters="sRGB">
<feFlood flood-opacity="0" result="BackgroundImageFix"/>
<feColorMatrix in="SourceAlpha" type="matrix" values="0 0 0 0 0 0 0 0 0 0 0 0 0 0 0 0 0 0 127 0" result="hardAlpha"/>
<feOffset dy="2"/>
<feComposite in2="hardAlpha" operator="out"/>
<feColorMatrix type="matrix" values="0 0 0 0 0.653678 0 0 0 0 0.182187 0 0 0 0 0.185098 0 0 0 1 0"/>
<feBlend mode="normal" in2="BackgroundImageFix" result="effect1_dropShadow_837_3999"/>
<feBlend mode="normal" in="SourceGraphic" in2="effect1_dropShadow_837_3999" result="shape"/>
</filter>
</defs>
</svg>
