<svg width="295" height="80" viewBox="0 0 295 80" fill="none" xmlns="http://www.w3.org/2000/svg">
<circle cx="40" cy="40" r="40" fill="#0052FF"/>
<g filter="url(#filter0_d_837_4113)">
<path fill-rule="evenodd" clip-rule="evenodd" d="M38.9146 66C53.8738 66 66.0006 53.9117 66.0006 39C66.0006 24.0883 53.8738 12 38.9146 12C25.0983 12 13.6981 22.3117 12.0368 35.6357H51.8509V42.0631H12.001C13.5268 55.5326 24.9944 66 38.9146 66Z" fill="white"/>
</g>
<path d="M112.825 41V11.9091H124.473C126.613 11.9091 128.398 12.2263 129.828 12.8608C131.258 13.4953 132.333 14.3759 133.053 15.5028C133.772 16.6203 134.132 17.9081 134.132 19.3665C134.132 20.5028 133.905 21.5019 133.45 22.3636C132.996 23.2159 132.371 23.9167 131.575 24.4659C130.789 25.0057 129.89 25.3892 128.876 25.6165V25.9006C129.984 25.9479 131.021 26.2604 131.987 26.8381C132.963 27.4157 133.753 28.2254 134.359 29.267C134.965 30.2992 135.268 31.5303 135.268 32.9602C135.268 34.5038 134.885 35.8816 134.118 37.0938C133.36 38.2964 132.238 39.2481 130.751 39.9489C129.265 40.6496 127.432 41 125.254 41H112.825ZM118.976 35.9716H123.99C125.704 35.9716 126.954 35.6449 127.74 34.9915C128.526 34.3286 128.919 33.4479 128.919 32.3494C128.919 31.5445 128.725 30.8343 128.337 30.2188C127.948 29.6032 127.394 29.1203 126.675 28.7699C125.964 28.4195 125.117 28.2443 124.132 28.2443H118.976V35.9716ZM118.976 24.0824H123.536C124.378 24.0824 125.126 23.9356 125.78 23.642C126.443 23.339 126.964 22.9129 127.342 22.3636C127.731 21.8144 127.925 21.1562 127.925 20.3892C127.925 19.3381 127.551 18.4905 126.803 17.8466C126.064 17.2027 125.013 16.8807 123.649 16.8807H118.976V24.0824ZM159.285 41H152.694L162.737 11.9091H170.663L180.691 41H174.1L166.813 18.5568H166.586L159.285 41ZM158.873 29.5653H174.441V34.3665H158.873V29.5653ZM214.31 20.2756C214.196 19.1297 213.708 18.2396 212.847 17.6051C211.985 16.9706 210.815 16.6534 209.338 16.6534C208.334 16.6534 207.487 16.7955 206.795 17.0795C206.104 17.3542 205.574 17.7377 205.205 18.2301C204.845 18.7225 204.665 19.2812 204.665 19.9062C204.646 20.4271 204.755 20.8816 204.991 21.2699C205.238 21.6581 205.574 21.9943 206 22.2784C206.426 22.553 206.919 22.7945 207.477 23.0028C208.036 23.2017 208.633 23.3722 209.267 23.5142L211.881 24.1392C213.15 24.4233 214.314 24.8021 215.375 25.2756C216.436 25.7491 217.354 26.3314 218.131 27.0227C218.907 27.714 219.509 28.5284 219.935 29.4659C220.37 30.4034 220.593 31.4782 220.602 32.6903C220.593 34.4706 220.138 36.0142 219.239 37.321C218.348 38.6184 217.061 39.6269 215.375 40.3466C213.699 41.0568 211.677 41.4119 209.31 41.4119C206.961 41.4119 204.916 41.0521 203.173 40.3324C201.44 39.6127 200.086 38.5473 199.111 37.1364C198.145 35.7159 197.638 33.9593 197.591 31.8665H203.543C203.609 32.8419 203.888 33.6562 204.381 34.3097C204.883 34.9536 205.55 35.4413 206.384 35.7727C207.226 36.0947 208.178 36.2557 209.239 36.2557C210.28 36.2557 211.185 36.1042 211.952 35.8011C212.728 35.4981 213.33 35.0767 213.756 34.5369C214.182 33.9972 214.395 33.3769 214.395 32.6761C214.395 32.0227 214.201 31.4735 213.812 31.0284C213.434 30.5833 212.875 30.2045 212.136 29.892C211.407 29.5795 210.512 29.2955 209.452 29.0398L206.284 28.2443C203.831 27.6477 201.895 26.715 200.474 25.446C199.054 24.1771 198.348 22.4678 198.358 20.3182C198.348 18.5568 198.817 17.018 199.764 15.7017C200.721 14.3854 202.032 13.358 203.699 12.6193C205.366 11.8807 207.259 11.5114 209.381 11.5114C211.54 11.5114 213.424 11.8807 215.034 12.6193C216.653 13.358 217.913 14.3854 218.812 15.7017C219.712 17.018 220.176 18.5426 220.205 20.2756H214.31ZM239.739 41V11.9091H259.342V16.9801H245.89V23.9119H258.333V28.983H245.89V35.929H259.398V41H239.739Z" fill="#121214"/>
<path d="M110.986 74V63.8182H115.063C115.812 63.8182 116.437 63.9292 116.937 64.1513C117.438 64.3733 117.814 64.6816 118.066 65.076C118.318 65.4671 118.444 65.9179 118.444 66.4283C118.444 66.826 118.364 67.1757 118.205 67.4773C118.046 67.7756 117.827 68.0208 117.549 68.2131C117.274 68.402 116.959 68.5362 116.604 68.6158V68.7152C116.992 68.7318 117.355 68.8411 117.693 69.0433C118.034 69.2455 118.311 69.5289 118.523 69.8935C118.735 70.2547 118.841 70.6856 118.841 71.1861C118.841 71.7263 118.707 72.2086 118.439 72.6328C118.174 73.0537 117.781 73.3868 117.26 73.6321C116.74 73.8774 116.099 74 115.336 74H110.986ZM113.139 72.2401H114.894C115.494 72.2401 115.931 72.1257 116.206 71.897C116.482 71.665 116.619 71.3568 116.619 70.9723C116.619 70.6906 116.551 70.442 116.415 70.2266C116.279 70.0111 116.086 69.8421 115.834 69.7195C115.585 69.5968 115.288 69.5355 114.944 69.5355H113.139V72.2401ZM113.139 68.0788H114.735C115.03 68.0788 115.292 68.0275 115.52 67.9247C115.752 67.8187 115.935 67.6695 116.067 67.4773C116.203 67.285 116.271 67.0547 116.271 66.7862C116.271 66.4183 116.14 66.1217 115.878 65.8963C115.62 65.6709 115.252 65.5582 114.775 65.5582H113.139V68.0788ZM127.899 70.7486V66.3636H130.017V74H127.984V72.6129H127.904C127.732 73.0604 127.445 73.42 127.044 73.6918C126.647 73.9635 126.161 74.0994 125.588 74.0994C125.077 74.0994 124.628 73.9834 124.24 73.7514C123.853 73.5194 123.549 73.1896 123.331 72.7621C123.115 72.3345 123.006 71.8224 123.002 71.2259V66.3636H125.12V70.848C125.124 71.2988 125.245 71.6551 125.483 71.9169C125.722 72.1787 126.042 72.3097 126.443 72.3097C126.698 72.3097 126.937 72.2517 127.159 72.1357C127.381 72.0163 127.56 71.8407 127.696 71.6087C127.835 71.3767 127.903 71.09 127.899 70.7486ZM134.511 74V66.3636H136.629V74H134.511ZM135.575 65.3793C135.26 65.3793 134.99 65.2749 134.765 65.0661C134.543 64.8539 134.432 64.6004 134.432 64.3054C134.432 64.0137 134.543 63.7635 134.765 63.5547C134.99 63.3426 135.26 63.2365 135.575 63.2365C135.89 63.2365 136.159 63.3426 136.381 63.5547C136.606 63.7635 136.719 64.0137 136.719 64.3054C136.719 64.6004 136.606 64.8539 136.381 65.0661C136.159 65.2749 135.89 65.3793 135.575 65.3793ZM143.244 63.8182V74H141.126V63.8182H143.244ZM150.554 74.1243C149.974 74.1243 149.449 73.9751 148.978 73.6768C148.511 73.3752 148.14 72.9328 147.865 72.3494C147.593 71.7628 147.457 71.0436 147.457 70.1918C147.457 69.3168 147.598 68.5893 147.879 68.0092C148.161 67.4259 148.536 66.9901 149.003 66.7017C149.474 66.41 149.989 66.2642 150.549 66.2642C150.977 66.2642 151.333 66.3371 151.618 66.483C151.906 66.6255 152.138 66.8045 152.314 67.0199C152.493 67.232 152.629 67.4408 152.722 67.6463H152.786V63.8182H154.899V74H152.811V72.777H152.722C152.622 72.9891 152.482 73.1996 152.299 73.4084C152.12 73.6139 151.887 73.7846 151.598 73.9205C151.313 74.0563 150.965 74.1243 150.554 74.1243ZM151.225 72.4389C151.567 72.4389 151.855 72.3461 152.09 72.1605C152.329 71.9716 152.511 71.7081 152.637 71.37C152.767 71.032 152.831 70.6359 152.831 70.1818C152.831 69.7277 152.768 69.3333 152.642 68.9986C152.516 68.6638 152.334 68.4053 152.095 68.223C151.857 68.0407 151.567 67.9496 151.225 67.9496C150.877 67.9496 150.584 68.044 150.345 68.233C150.107 68.4219 149.926 68.6837 149.803 69.0185C149.681 69.3532 149.62 69.741 149.62 70.1818C149.62 70.6259 149.681 71.0187 149.803 71.3601C149.929 71.6982 150.11 71.9633 150.345 72.1555C150.584 72.3445 150.877 72.4389 151.225 72.4389ZM168.837 68.9091C168.837 70.0194 168.627 70.964 168.206 71.7429C167.788 72.5218 167.218 73.1167 166.495 73.5277C165.776 73.9354 164.967 74.1392 164.069 74.1392C163.164 74.1392 162.352 73.9337 161.633 73.5227C160.914 73.1117 160.346 72.5168 159.928 71.7379C159.51 70.959 159.301 70.0161 159.301 68.9091C159.301 67.7988 159.51 66.8542 159.928 66.0753C160.346 65.2964 160.914 64.7031 161.633 64.2955C162.352 63.8845 163.164 63.679 164.069 63.679C164.967 63.679 165.776 63.8845 166.495 64.2955C167.218 64.7031 167.788 65.2964 168.206 66.0753C168.627 66.8542 168.837 67.7988 168.837 68.9091ZM166.654 68.9091C166.654 68.1899 166.547 67.5833 166.331 67.0895C166.119 66.5956 165.819 66.2211 165.431 65.9659C165.044 65.7107 164.59 65.5831 164.069 65.5831C163.549 65.5831 163.095 65.7107 162.707 65.9659C162.319 66.2211 162.018 66.5956 161.802 67.0895C161.59 67.5833 161.484 68.1899 161.484 68.9091C161.484 69.6283 161.59 70.2348 161.802 70.7287C162.018 71.2225 162.319 71.5971 162.707 71.8523C163.095 72.1075 163.549 72.2351 164.069 72.2351C164.59 72.2351 165.044 72.1075 165.431 71.8523C165.819 71.5971 166.119 71.2225 166.331 70.7287C166.547 70.2348 166.654 69.6283 166.654 68.9091ZM175.31 69.5852V74H173.192V66.3636H175.21V67.7109H175.3C175.469 67.2668 175.752 66.9155 176.15 66.657C176.548 66.3951 177.03 66.2642 177.597 66.2642C178.127 66.2642 178.589 66.3802 178.984 66.6122C179.378 66.8442 179.685 67.1757 179.903 67.6065C180.122 68.0341 180.232 68.5445 180.232 69.1378V74H178.114V69.5156C178.117 69.0483 177.998 68.6837 177.756 68.4219C177.514 68.1567 177.181 68.0241 176.756 68.0241C176.471 68.0241 176.22 68.0855 176.001 68.2081C175.785 68.3307 175.616 68.5097 175.494 68.745C175.374 68.977 175.313 69.2571 175.31 69.5852ZM184.741 74V63.8182H188.817C189.566 63.8182 190.191 63.9292 190.692 64.1513C191.192 64.3733 191.568 64.6816 191.82 65.076C192.072 65.4671 192.198 65.9179 192.198 66.4283C192.198 66.826 192.118 67.1757 191.959 67.4773C191.8 67.7756 191.582 68.0208 191.303 68.2131C191.028 68.402 190.713 68.5362 190.359 68.6158V68.7152C190.746 68.7318 191.109 68.8411 191.447 69.0433C191.789 69.2455 192.065 69.5289 192.278 69.8935C192.49 70.2547 192.596 70.6856 192.596 71.1861C192.596 71.7263 192.461 72.2086 192.193 72.6328C191.928 73.0537 191.535 73.3868 191.015 73.6321C190.494 73.8774 189.853 74 189.091 74H184.741ZM186.893 72.2401H188.648C189.248 72.2401 189.686 72.1257 189.961 71.897C190.236 71.665 190.373 71.3568 190.373 70.9723C190.373 70.6906 190.305 70.442 190.17 70.2266C190.034 70.0111 189.84 69.8421 189.588 69.7195C189.339 69.5968 189.043 69.5355 188.698 69.5355H186.893V72.2401ZM186.893 68.0788H188.489C188.784 68.0788 189.046 68.0275 189.275 67.9247C189.507 67.8187 189.689 67.6695 189.822 67.4773C189.957 67.285 190.025 67.0547 190.025 66.7862C190.025 66.4183 189.894 66.1217 189.633 65.8963C189.374 65.6709 189.006 65.5582 188.529 65.5582H186.893V68.0788ZM198.934 74.1442C198.447 74.1442 198.013 74.0597 197.632 73.8906C197.251 73.7183 196.949 73.4647 196.727 73.13C196.508 72.7919 196.399 72.371 196.399 71.8672C196.399 71.4429 196.477 71.0866 196.632 70.7983C196.788 70.5099 197 70.2779 197.269 70.1023C197.537 69.9266 197.842 69.794 198.184 69.7045C198.528 69.6151 198.89 69.5521 199.267 69.5156C199.711 69.4692 200.069 69.4261 200.341 69.3864C200.613 69.3433 200.81 69.2803 200.933 69.1974C201.055 69.1146 201.117 68.992 201.117 68.8295V68.7997C201.117 68.4848 201.017 68.2412 200.818 68.0689C200.623 67.8965 200.345 67.8104 199.983 67.8104C199.602 67.8104 199.299 67.8949 199.073 68.0639C198.848 68.2296 198.699 68.4384 198.626 68.6903L196.667 68.5312C196.767 68.0672 196.962 67.6662 197.254 67.3281C197.546 66.9867 197.922 66.7249 198.382 66.5426C198.846 66.357 199.383 66.2642 199.993 66.2642C200.417 66.2642 200.823 66.3139 201.211 66.4134C201.602 66.5128 201.949 66.6669 202.25 66.8757C202.555 67.0845 202.796 67.353 202.971 67.6811C203.147 68.0059 203.235 68.3954 203.235 68.8494V74H201.226V72.9411H201.166C201.044 73.1797 200.88 73.3902 200.674 73.5724C200.469 73.7514 200.222 73.8923 199.934 73.995C199.645 74.0945 199.312 74.1442 198.934 74.1442ZM199.541 72.6825C199.852 72.6825 200.127 72.6212 200.366 72.4986C200.605 72.3726 200.792 72.2036 200.928 71.9915C201.064 71.7794 201.132 71.5391 201.132 71.2706V70.4602C201.065 70.5033 200.974 70.5431 200.858 70.5795C200.746 70.6127 200.618 70.6442 200.475 70.674C200.333 70.7005 200.19 70.7254 200.048 70.7486C199.905 70.7685 199.776 70.7867 199.66 70.8033C199.412 70.8397 199.194 70.8977 199.009 70.9773C198.823 71.0568 198.679 71.1645 198.576 71.3004C198.474 71.433 198.422 71.5987 198.422 71.7976C198.422 72.0859 198.527 72.3063 198.735 72.4588C198.948 72.608 199.216 72.6825 199.541 72.6825ZM214.031 68.5412L212.093 68.6605C212.059 68.4948 211.988 68.3456 211.879 68.2131C211.769 68.0772 211.625 67.9695 211.446 67.8899C211.271 67.8071 211.06 67.7656 210.815 67.7656C210.487 67.7656 210.21 67.8352 209.985 67.9744C209.759 68.1103 209.647 68.2926 209.647 68.5213C209.647 68.7036 209.719 68.8577 209.865 68.9837C210.011 69.1096 210.261 69.2107 210.616 69.2869L211.998 69.5653C212.741 69.7178 213.294 69.9631 213.659 70.3011C214.023 70.6392 214.205 71.0833 214.205 71.6335C214.205 72.134 214.058 72.5732 213.763 72.951C213.471 73.3288 213.07 73.6238 212.56 73.8359C212.053 74.0447 211.468 74.1491 210.805 74.1491C209.794 74.1491 208.989 73.9387 208.389 73.5178C207.792 73.0935 207.442 72.5168 207.34 71.7876L209.423 71.6783C209.486 71.9865 209.638 72.2218 209.88 72.3842C210.122 72.5433 210.432 72.6229 210.81 72.6229C211.181 72.6229 211.479 72.5516 211.705 72.4091C211.933 72.2633 212.049 72.076 212.053 71.8473C212.049 71.6551 211.968 71.4976 211.809 71.375C211.65 71.2491 211.405 71.1529 211.073 71.0866L209.751 70.8232C209.005 70.674 208.45 70.4155 208.085 70.0476C207.724 69.6797 207.544 69.2107 207.544 68.6406C207.544 68.1501 207.676 67.7275 207.941 67.3729C208.21 67.0182 208.586 66.7448 209.07 66.5526C209.557 66.3603 210.127 66.2642 210.78 66.2642C211.745 66.2642 212.504 66.468 213.057 66.8757C213.614 67.2834 213.939 67.8385 214.031 68.5412ZM221.819 74.1491C221.034 74.1491 220.358 73.9901 219.791 73.6719C219.227 73.3504 218.793 72.8963 218.488 72.3097C218.183 71.7197 218.031 71.022 218.031 70.2166C218.031 69.4311 218.183 68.7417 218.488 68.1484C218.793 67.5552 219.222 67.0928 219.776 66.7614C220.333 66.4299 220.986 66.2642 221.735 66.2642C222.238 66.2642 222.707 66.3454 223.142 66.5078C223.579 66.6669 223.96 66.9072 224.285 67.2287C224.613 67.5502 224.868 67.9545 225.051 68.4418C225.233 68.9257 225.324 69.4924 225.324 70.142V70.7237H218.876V69.4112H223.331C223.331 69.1063 223.264 68.8362 223.132 68.6009C222.999 68.3655 222.815 68.1816 222.58 68.049C222.348 67.9131 222.078 67.8452 221.77 67.8452C221.448 67.8452 221.163 67.9197 220.914 68.0689C220.669 68.2147 220.477 68.4119 220.338 68.6605C220.198 68.9058 220.127 69.1792 220.124 69.4808V70.7287C220.124 71.1065 220.194 71.433 220.333 71.7081C220.475 71.9832 220.676 72.1953 220.934 72.3445C221.193 72.4936 221.499 72.5682 221.854 72.5682C222.089 72.5682 222.305 72.535 222.5 72.4688C222.696 72.4025 222.863 72.303 223.002 72.1705C223.142 72.0379 223.248 71.8755 223.321 71.6832L225.279 71.8125C225.18 72.2831 224.976 72.6941 224.668 73.0455C224.363 73.3935 223.969 73.6652 223.485 73.8608C223.004 74.053 222.449 74.1491 221.819 74.1491ZM242.338 67.1094C242.268 66.8674 242.17 66.6536 242.044 66.468C241.918 66.2791 241.764 66.12 241.582 65.9908C241.403 65.8582 241.198 65.7571 240.966 65.6875C240.737 65.6179 240.483 65.5831 240.205 65.5831C239.685 65.5831 239.227 65.7124 238.833 65.9709C238.442 66.2294 238.137 66.6056 237.918 67.0994C237.699 67.59 237.59 68.1899 237.59 68.8991C237.59 69.6084 237.698 70.2116 237.913 70.7088C238.128 71.206 238.433 71.5855 238.828 71.8473C239.222 72.1058 239.688 72.2351 240.225 72.2351C240.712 72.2351 241.128 72.1489 241.473 71.9766C241.821 71.8009 242.086 71.554 242.268 71.2358C242.454 70.9176 242.547 70.5414 242.547 70.1072L242.984 70.1719H240.359V68.5511H244.62V69.8338C244.62 70.7287 244.431 71.4976 244.053 72.1406C243.675 72.7803 243.155 73.2741 242.492 73.6222C241.829 73.9669 241.07 74.1392 240.215 74.1392C239.26 74.1392 238.422 73.9287 237.699 73.5078C236.977 73.0836 236.413 72.482 236.009 71.7031C235.608 70.9209 235.407 69.9929 235.407 68.919C235.407 68.0937 235.527 67.358 235.765 66.7116C236.007 66.062 236.345 65.5118 236.779 65.0611C237.214 64.6103 237.719 64.2673 238.296 64.032C238.873 63.7966 239.497 63.679 240.17 63.679C240.747 63.679 241.284 63.7635 241.781 63.9325C242.278 64.0982 242.719 64.3336 243.103 64.6385C243.491 64.9434 243.808 65.3063 244.053 65.7273C244.298 66.1449 244.456 66.6056 244.525 67.1094H242.338ZM248.997 74V66.3636H251.05V67.696H251.13C251.269 67.2221 251.503 66.8641 251.831 66.6222C252.159 66.3769 252.537 66.2543 252.964 66.2543C253.07 66.2543 253.185 66.2609 253.307 66.2741C253.43 66.2874 253.538 66.3056 253.63 66.3288V68.2081C253.531 68.1783 253.393 68.1518 253.218 68.1286C253.042 68.1054 252.881 68.0938 252.736 68.0938C252.424 68.0938 252.146 68.1617 251.9 68.2976C251.658 68.4302 251.466 68.6158 251.324 68.8544C251.184 69.093 251.115 69.3681 251.115 69.6797V74H248.997ZM259.484 74.1442C258.997 74.1442 258.563 74.0597 258.182 73.8906C257.801 73.7183 257.499 73.4647 257.277 73.13C257.058 72.7919 256.949 72.371 256.949 71.8672C256.949 71.4429 257.027 71.0866 257.182 70.7983C257.338 70.5099 257.55 70.2779 257.819 70.1023C258.087 69.9266 258.392 69.794 258.734 69.7045C259.078 69.6151 259.44 69.5521 259.817 69.5156C260.261 69.4692 260.619 69.4261 260.891 69.3864C261.163 69.3433 261.36 69.2803 261.483 69.1974C261.605 69.1146 261.667 68.992 261.667 68.8295V68.7997C261.667 68.4848 261.567 68.2412 261.368 68.0689C261.173 67.8965 260.895 67.8104 260.533 67.8104C260.152 67.8104 259.849 67.8949 259.623 68.0639C259.398 68.2296 259.249 68.4384 259.176 68.6903L257.217 68.5312C257.317 68.0672 257.512 67.6662 257.804 67.3281C258.096 66.9867 258.472 66.7249 258.932 66.5426C259.396 66.357 259.933 66.2642 260.543 66.2642C260.967 66.2642 261.373 66.3139 261.761 66.4134C262.152 66.5128 262.499 66.6669 262.8 66.8757C263.105 67.0845 263.346 67.353 263.521 67.6811C263.697 68.0059 263.785 68.3954 263.785 68.8494V74H261.776V72.9411H261.716C261.594 73.1797 261.43 73.3902 261.224 73.5724C261.019 73.7514 260.772 73.8923 260.484 73.995C260.195 74.0945 259.862 74.1442 259.484 74.1442ZM260.091 72.6825C260.402 72.6825 260.677 72.6212 260.916 72.4986C261.155 72.3726 261.342 72.2036 261.478 71.9915C261.614 71.7794 261.682 71.5391 261.682 71.2706V70.4602C261.615 70.5033 261.524 70.5431 261.408 70.5795C261.296 70.6127 261.168 70.6442 261.025 70.674C260.883 70.7005 260.74 70.7254 260.598 70.7486C260.455 70.7685 260.326 70.7867 260.21 70.8033C259.962 70.8397 259.744 70.8977 259.559 70.9773C259.373 71.0568 259.229 71.1645 259.126 71.3004C259.024 71.433 258.972 71.5987 258.972 71.7976C258.972 72.0859 259.077 72.3063 259.285 72.4588C259.498 72.608 259.766 72.6825 260.091 72.6825ZM270.346 69.5852V74H268.228V66.3636H270.246V67.7109H270.336C270.505 67.2668 270.788 66.9155 271.186 66.657C271.584 66.3951 272.066 66.2642 272.633 66.2642C273.163 66.2642 273.625 66.3802 274.02 66.6122C274.414 66.8442 274.721 67.1757 274.939 67.6065C275.158 68.0341 275.268 68.5445 275.268 69.1378V74H273.15V69.5156C273.153 69.0483 273.034 68.6837 272.792 68.4219C272.55 68.1567 272.217 68.0241 271.792 68.0241C271.507 68.0241 271.255 68.0855 271.037 68.2081C270.821 68.3307 270.652 68.5097 270.53 68.745C270.41 68.977 270.349 69.2571 270.346 69.5852ZM283.799 66.3636V67.9545H279.2V66.3636H283.799ZM280.244 64.5341H282.362V71.6534C282.362 71.849 282.392 72.0014 282.451 72.1108C282.511 72.2169 282.594 72.2914 282.7 72.3345C282.809 72.3776 282.935 72.3991 283.078 72.3991C283.177 72.3991 283.277 72.3909 283.376 72.3743C283.475 72.3544 283.552 72.3395 283.605 72.3295L283.938 73.9055C283.832 73.9387 283.683 73.9768 283.49 74.0199C283.298 74.0663 283.064 74.0945 282.789 74.1044C282.279 74.1243 281.831 74.0563 281.447 73.9006C281.066 73.7448 280.769 73.5028 280.557 73.1747C280.345 72.8466 280.241 72.4323 280.244 71.9318V64.5341ZM294.236 68.5412L292.297 68.6605C292.264 68.4948 292.193 68.3456 292.083 68.2131C291.974 68.0772 291.83 67.9695 291.651 67.8899C291.475 67.8071 291.265 67.7656 291.02 67.7656C290.691 67.7656 290.415 67.8352 290.189 67.9744C289.964 68.1103 289.851 68.2926 289.851 68.5213C289.851 68.7036 289.924 68.8577 290.07 68.9837C290.216 69.1096 290.466 69.2107 290.821 69.2869L292.203 69.5653C292.945 69.7178 293.499 69.9631 293.863 70.3011C294.228 70.6392 294.41 71.0833 294.41 71.6335C294.41 72.134 294.263 72.5732 293.968 72.951C293.676 73.3288 293.275 73.6238 292.765 73.8359C292.257 74.0447 291.672 74.1491 291.01 74.1491C289.999 74.1491 289.193 73.9387 288.593 73.5178C287.997 73.0935 287.647 72.5168 287.544 71.7876L289.628 71.6783C289.69 71.9865 289.843 72.2218 290.085 72.3842C290.327 72.5433 290.637 72.6229 291.015 72.6229C291.386 72.6229 291.684 72.5516 291.909 72.4091C292.138 72.2633 292.254 72.076 292.257 71.8473C292.254 71.6551 292.173 71.4976 292.014 71.375C291.855 71.2491 291.61 71.1529 291.278 71.0866L289.956 70.8232C289.21 70.674 288.655 70.4155 288.29 70.0476C287.929 69.6797 287.748 69.2107 287.748 68.6406C287.748 68.1501 287.881 67.7275 288.146 67.3729C288.414 67.0182 288.791 66.7448 289.275 66.5526C289.762 66.3603 290.332 66.2642 290.985 66.2642C291.949 66.2642 292.708 66.468 293.262 66.8757C293.819 67.2834 294.143 67.8385 294.236 68.5412Z" fill="#121214"/>
<defs>
<filter id="filter0_d_837_4113" x="12.001" y="12" width="54" height="56" filterUnits="userSpaceOnUse" color-interpolation-filters="sRGB">
<feFlood flood-opacity="0" result="BackgroundImageFix"/>
<feColorMatrix in="SourceAlpha" type="matrix" values="0 0 0 0 0 0 0 0 0 0 0 0 0 0 0 0 0 0 127 0" result="hardAlpha"/>
<feOffset dy="2"/>
<feComposite in2="hardAlpha" operator="out"/>
<feColorMatrix type="matrix" values="0 0 0 0 0.0301378 0 0 0 0 0.204678 0 0 0 0 0.572917 0 0 0 1 0"/>
<feBlend mode="normal" in2="BackgroundImageFix" result="effect1_dropShadow_837_4113"/>
<feBlend mode="normal" in="SourceGraphic" in2="effect1_dropShadow_837_4113" result="shape"/>
</filter>
</defs>
</svg>
