<svg width="40" height="40" viewBox="0 0 40 40" fill="none" xmlns="http://www.w3.org/2000/svg">
<circle cx="20" cy="20" r="20" fill="#181A20"/>
<g filter="url(#filter0_d_837_4004)">
<path d="M13.6342 20.3571L10.8306 23.0529L8 20.3571L10.8296 17.6373L13.6342 20.3571ZM20.488 13.7691L25.3167 18.4105L28.1474 15.6917L20.488 8.35352L12.8287 15.7157L15.6593 18.4345L20.488 13.7691ZM30.1465 17.6373L27.3419 20.3571L30.1715 23.0769L33 20.3571L30.1465 17.6373ZM20.488 26.945L15.6593 22.2796L12.8287 24.9994L20.488 32.3606L28.1474 24.9984L25.3167 22.2796L20.488 26.945ZM20.488 23.0539L23.3176 20.3331L20.488 17.6383L17.6585 20.3571L20.488 23.0529V23.0539Z" fill="#FCD535"/>
</g>
<defs>
<filter id="filter0_d_837_4004" x="8" y="8.35352" width="25" height="25.0068" filterUnits="userSpaceOnUse" color-interpolation-filters="sRGB">
<feFlood flood-opacity="0" result="BackgroundImageFix"/>
<feColorMatrix in="SourceAlpha" type="matrix" values="0 0 0 0 0 0 0 0 0 0 0 0 0 0 0 0 0 0 127 0" result="hardAlpha"/>
<feOffset dy="1"/>
<feComposite in2="hardAlpha" operator="out"/>
<feColorMatrix type="matrix" values="0 0 0 0 0.912728 0 0 0 0 0.751614 0 0 0 0 0.090634 0 0 0 1 0"/>
<feBlend mode="normal" in2="BackgroundImageFix" result="effect1_dropShadow_837_4004"/>
<feBlend mode="normal" in="SourceGraphic" in2="effect1_dropShadow_837_4004" result="shape"/>
</filter>
</defs>
</svg>
