<svg width="20" height="21" viewBox="0 0 20 21" fill="none" xmlns="http://www.w3.org/2000/svg">
<path d="M1.45898 9.15193C1.45898 5.47026 4.44565 2.48828 8.12982 2.48828H11.7682C15.5098 2.48828 18.5423 5.52024 18.5423 9.26021C18.5423 11.7258 17.2032 13.9914 15.0457 15.1825L8.33398 18.8975V15.8239H8.27815C4.53648 15.9072 1.45898 12.9002 1.45898 9.15193ZM8.12982 4.15419C5.36565 4.15419 3.12565 6.39485 3.12565 9.15193C3.12565 11.959 5.43398 14.2163 8.24065 14.158L8.53315 14.1497H10.0007V16.0655L14.2398 13.7249C15.8657 12.8253 16.8757 11.1177 16.8757 9.26021C16.8757 6.43649 14.589 4.15419 11.7682 4.15419H8.12982Z" fill="#555D69"/>
</svg>
