<svg width="43" height="47" viewBox="0 0 43 47" fill="none" xmlns="http://www.w3.org/2000/svg">
<path d="M42.8859 25.7585C42.9804 36.5175 34.9959 45.7499 24.3691 46.9632C24.1447 46.9882 23.919 47.0004 23.6932 46.9996C21.578 46.9996 10.1445 46.9996 5.92139 46.8284C5.09902 46.7297 4.31739 46.4145 3.65603 45.9147C2.99466 45.4148 2.47719 44.7483 2.15625 43.9829C2.78829 44.2623 3.46541 44.4252 4.15512 44.4638C5.60884 44.595 8.17466 44.4638 11.6745 44.4638C15.3997 44.4638 19.4265 44.4966 21.3563 44.5148C22.3862 44.5294 23.4153 44.4501 24.4309 44.278C29.313 43.4252 33.766 40.9479 37.071 37.2462C40.2812 33.6926 42.3128 29.2284 42.8859 24.4688V25.7585Z" fill="#3770FF"/>
<path d="M41.1915 21.1318C41.2166 26.3966 39.2803 31.4813 35.7619 35.3899C32.2434 39.2986 27.3963 41.7498 22.1695 42.2636H4.36144C3.14155 42.0871 2.02702 41.4727 1.22491 40.5346C0.422798 39.5965 -0.0123647 38.3983 0.000267492 37.1628V5.10077C0.000267492 2.55039 1.81742 0 4.36144 0H22.533C27.7265 0.518232 32.5335 2.98266 35.9928 6.9005C39.4521 10.8183 41.3087 15.9009 41.1915 21.1318Z" fill="#3770FF"/>
</svg>
