<svg width="225" height="47" viewBox="0 0 225 47" fill="none" xmlns="http://www.w3.org/2000/svg">
<g clip-path="url(#clip0_837_4058)">
<path d="M56.6953 8.74435H68.9793C71.9565 8.66358 74.9116 9.27854 77.6108 10.5405C79.9467 11.6689 81.882 13.487 83.1567 15.7506C84.4916 18.2321 85.1557 21.0206 85.0829 23.839C85.1593 26.6718 84.5019 29.4762 83.1749 31.9784C81.9108 34.2438 79.9804 36.0632 77.6471 37.1885C74.9366 38.4514 71.9707 39.0663 68.9829 38.9847H56.6953V8.74435ZM68.2052 32.4265C69.3904 32.5186 70.582 32.3727 71.7103 31.9973C72.8386 31.6219 73.8808 31.0247 74.776 30.2405C75.5614 29.3451 76.1591 28.3005 76.5337 27.1689C76.9083 26.0372 77.0521 24.8417 76.9566 23.6532C77.057 22.4644 76.9155 21.2675 76.5406 20.1352C76.1658 19.0029 75.5654 17.9587 74.776 17.0659C73.8749 16.2943 72.8304 15.7091 71.7026 15.3439C70.5749 14.9787 69.3863 14.8408 68.2052 14.9381H64.3274V32.4265H68.2052Z" fill="#273339"/>
<path d="M108.302 29.8759H95.2185C95.3579 31.0217 95.9207 32.0734 96.7958 32.8234C97.7667 33.4823 98.9297 33.7966 100.099 33.7161C102.217 33.6882 104.277 33.0189 106.009 31.796L107.939 36.762C106.786 37.5825 105.501 38.1987 104.141 38.5837C102.706 39.0185 101.216 39.2419 99.7178 39.2468C97.5573 39.302 95.4139 38.849 93.4595 37.9242C91.7548 37.0925 90.3391 35.7659 89.3963 34.1169C88.4057 32.3425 87.9063 30.3349 87.9499 28.302C87.9145 26.3321 88.3745 24.3849 89.2873 22.6401C90.1439 21.0135 91.4448 19.6651 93.0379 18.7526C94.6987 17.8099 96.5812 17.3306 98.4894 17.3645C99.8116 17.3128 101.13 17.5463 102.354 18.0491C103.579 18.552 104.681 19.3124 105.587 20.2792C107.404 22.4545 108.369 25.2181 108.302 28.0542V29.8759ZM95.2185 26.2325H101.833C101.668 23.7283 100.567 22.4762 98.5294 22.4762C96.4917 22.4762 95.3881 23.7283 95.2185 26.2325Z" fill="#273339"/>
<path d="M125.595 17.8525H133.064L123.647 38.9843H117.346L108.078 17.8525H116.074L120.715 29.7628L125.595 17.8525Z" fill="#273339"/>
<path d="M146.462 18.2172H151.186V23.6823H146.098V38.9846H138.466V23.6823H134.832V18.2172H138.724C138.711 16.9862 138.963 15.7669 139.465 14.6435C139.967 13.52 140.706 12.5192 141.632 11.71C144.006 10.0515 146.839 9.18114 149.733 9.22157L152.357 9.05762L152.793 14.4754L150.772 14.5555C149.615 14.5191 148.466 14.7693 147.429 15.2842C147.092 15.5375 146.827 15.8733 146.657 16.2594C146.488 16.6455 146.421 17.0688 146.462 17.4885V18.2172Z" fill="#273339"/>
<path d="M157.886 37.8913C156.192 37.0439 154.785 35.7145 153.841 34.0694C152.86 32.2936 152.369 30.2875 152.42 28.2581C152.367 26.2343 152.858 24.2335 153.841 22.4651C154.784 20.8377 156.185 19.5249 157.868 18.6905C159.781 17.8178 161.859 17.3662 163.961 17.3662C166.063 17.3662 168.14 17.8178 170.054 18.6905C171.738 19.5244 173.14 20.8372 174.084 22.4651C175.067 24.2335 175.558 26.2343 175.505 28.2581C175.556 30.2875 175.065 32.2936 174.084 34.0694C173.12 35.7232 171.688 37.0533 169.97 37.8913C168.066 38.7758 165.993 39.234 163.895 39.234C161.797 39.234 159.724 38.7758 157.82 37.8913H157.886ZM168.007 28.3237C168.007 24.792 166.659 23.0262 163.962 23.0262C161.266 23.0262 159.915 24.792 159.91 28.3237C159.91 31.8554 161.258 33.6212 163.955 33.6212C166.652 33.6212 168.001 31.8554 168.004 28.3237H168.007Z" fill="#273339"/>
<path d="M178.809 38.9844V8.74414H186.441V38.9844H178.809Z" fill="#273339"/>
<path d="M190.801 7.28711H198.796V14.2096H190.801V7.28711ZM190.801 38.9338V17.853H198.433V38.9848L190.801 38.9338Z" fill="#273339"/>
<path d="M207.382 37.8913C205.688 37.0439 204.281 35.7145 203.337 34.0694C202.356 32.2936 201.865 30.2875 201.916 28.2581C201.863 26.2343 202.354 24.2335 203.337 22.4651C204.28 20.8377 205.681 19.5249 207.364 18.6905C209.277 17.8178 211.355 17.3662 213.457 17.3662C215.559 17.3662 217.636 17.8178 219.55 18.6905C221.233 19.5249 222.633 20.8377 223.576 22.4651C224.559 24.2335 225.05 26.2343 224.997 28.2581C225.048 30.2875 224.558 32.2936 223.576 34.0694C222.626 35.7158 221.213 37.045 219.513 37.8913C217.61 38.7758 215.537 39.234 213.439 39.234C211.34 39.234 209.267 38.7758 207.364 37.8913H207.382ZM217.503 28.4184C217.503 24.8868 216.155 23.1209 213.459 23.1209C210.762 23.1209 209.414 24.8868 209.414 28.4184C209.414 31.9501 210.762 33.716 213.459 33.716C216.155 33.716 217.497 31.9501 217.485 28.4184H217.503Z" fill="#273339"/>
<path d="M42.8859 25.7585C42.9804 36.5175 34.9959 45.7499 24.3691 46.9632C24.1447 46.9882 23.919 47.0004 23.6932 46.9996C21.578 46.9996 10.1445 46.9996 5.92139 46.8284C5.09902 46.7297 4.31739 46.4145 3.65603 45.9147C2.99466 45.4148 2.47719 44.7483 2.15625 43.9829C2.78829 44.2623 3.46541 44.4252 4.15512 44.4638C5.60884 44.595 8.17466 44.4638 11.6745 44.4638C15.3997 44.4638 19.4265 44.4966 21.3563 44.5148C22.3862 44.5294 23.4153 44.4501 24.4309 44.278C29.313 43.4252 33.766 40.9479 37.071 37.2462C40.2812 33.6926 42.3128 29.2284 42.8859 24.4688V25.7585Z" fill="#3770FF"/>
<path d="M41.1915 21.1318C41.2166 26.3966 39.2803 31.4813 35.7619 35.3899C32.2434 39.2986 27.3962 41.7498 22.1695 42.2636H4.36144C3.14155 42.0871 2.02702 41.4727 1.22491 40.5346C0.422798 39.5965 -0.0123647 38.3983 0.000267492 37.1628V5.10077C0.000267492 2.55039 1.81742 0 4.36144 0H22.533C27.7265 0.518232 32.5335 2.98266 35.9928 6.9005C39.4521 10.8183 41.3087 15.9009 41.1915 21.1318Z" fill="#3770FF"/>
</g>
<defs>
<clipPath id="clip0_837_4058">
<rect width="225" height="47" fill="white"/>
</clipPath>
</defs>
</svg>
