<svg width="32" height="25" viewBox="0 0 32 25" fill="none" xmlns="http://www.w3.org/2000/svg">
<path d="M27.1071 2.3988C25.0047 1.41984 22.7851 0.725324 20.5052 0.333008C20.1933 0.900239 19.911 1.48384 19.6596 2.08138C17.231 1.70919 14.7614 1.70919 12.3328 2.08138C12.0813 1.48391 11.799 0.900308 11.4872 0.333008C9.20579 0.728637 6.98482 1.4248 4.88027 2.40392C0.702194 8.6909 -0.430416 14.8217 0.135889 20.8655C2.58267 22.7042 5.32132 24.1025 8.23279 24.9997C8.88837 24.1029 9.46847 23.1515 9.96694 22.1557C9.02016 21.796 8.10635 21.3523 7.23609 20.8297C7.46513 20.6607 7.68914 20.4867 7.90559 20.3177C10.4378 21.5289 13.2017 22.1569 16 22.1569C18.7983 22.1569 21.5621 21.5289 24.0944 20.3177C24.3133 20.4995 24.5373 20.6735 24.7639 20.8297C23.8919 21.3532 22.9764 21.7977 22.028 22.1582C22.5258 23.1536 23.106 24.1042 23.7621 24.9997C26.6761 24.1061 29.4168 22.7084 31.8641 20.8681C32.5285 13.8592 30.7289 7.78472 27.1071 2.3988ZM10.6843 17.1486C9.10616 17.1486 7.8024 15.6921 7.8024 13.9002C7.8024 12.1083 9.06085 10.6389 10.6792 10.6389C12.2976 10.6389 13.5913 12.1083 13.5636 13.9002C13.5359 15.6921 12.2926 17.1486 10.6843 17.1486ZM21.3157 17.1486C19.7351 17.1486 18.4363 15.6921 18.4363 13.9002C18.4363 12.1083 19.6948 10.6389 21.3157 10.6389C22.9366 10.6389 24.2202 12.1083 24.1925 13.9002C24.1648 15.6921 22.924 17.1486 21.3157 17.1486Z" fill="#5865F2"/>
</svg>
