<svg width="40" height="40" viewBox="0 0 40 40" fill="none" xmlns="http://www.w3.org/2000/svg">
<circle cx="20" cy="20" r="20" fill="#7E95FF"/>
<g filter="url(#filter0_d_837_3975)">
<path d="M16.3554 14.5496C17.2093 13.108 18.0641 11.6664 18.9145 10.223C18.9977 10.0822 19.0552 9.92586 19.1251 9.77776C19.4224 9.31703 19.7197 8.8563 20.0436 8.35352C20.7532 9.58488 21.4408 10.7806 22.1301 11.9763C22.9486 13.3951 23.7671 14.8129 24.5874 16.2308C24.6245 16.2947 24.6812 16.3459 24.7281 16.4026C25.4377 17.655 26.135 18.9156 26.8668 20.1543C27.0765 20.5099 27.0526 20.6818 26.6943 20.892C25.8828 21.3701 25.098 21.8939 24.3025 22.3994C23.1663 23.0942 21.9991 23.7414 20.9063 24.502C20.2657 24.9472 19.7427 25.0413 19.1587 24.4947C19.0976 24.4371 19.0003 24.4206 18.9189 24.3859C18.8269 24.3146 18.741 24.2341 18.6419 24.1747C17.8526 23.6994 17.0616 23.2286 16.2714 22.7569C15.3316 22.1197 14.3786 21.5072 13.3566 21.0182C13.0475 20.6763 13.0177 20.2871 13.2672 19.8508C13.369 19.6716 13.4619 19.487 13.5584 19.305C14.3618 17.9567 15.1662 16.6101 15.967 15.2599C16.1041 15.0286 16.2254 14.7873 16.3545 14.5505L16.3554 14.5496Z" fill="white"/>
<path d="M19.0906 31.1497C18.1252 29.6633 17.1049 28.2171 16.0829 26.7727C15.2352 25.5423 14.3884 24.3109 13.538 23.0823C13.4973 23.0229 13.4274 22.9845 13.3716 22.9361C13.338 22.6454 13.0849 22.4753 13.0027 22.2111L13 22.2139C13.0849 22.2212 13.1699 22.2285 13.2548 22.2349C14.1698 22.8602 15.1122 23.4397 16.082 23.97C16.9731 24.5788 17.8916 25.1401 18.8286 25.6684C19.1649 25.8824 19.5065 26.088 19.8356 26.3138C19.9834 26.4153 20.1011 26.3961 20.2382 26.3093C21.6222 25.4317 23.0079 24.5559 24.3927 23.6802C25.1723 23.1893 25.9536 22.7002 26.7314 22.2056C26.8093 22.1563 26.8748 22.1014 26.9987 22.1718C26.1801 23.4023 25.3643 24.6281 24.5484 25.8549C23.6742 27.1265 22.7973 28.3972 21.9257 29.6706C21.3576 30.4997 20.7904 31.3289 20.2374 32.169C20.0701 32.424 19.9692 32.4249 19.8073 32.169C19.5834 31.8189 19.3312 31.4888 19.0906 31.1497Z" fill="white"/>
</g>
<defs>
<filter id="filter0_d_837_3975" x="13" y="8.35352" width="14" height="26.0068" filterUnits="userSpaceOnUse" color-interpolation-filters="sRGB">
<feFlood flood-opacity="0" result="BackgroundImageFix"/>
<feColorMatrix in="SourceAlpha" type="matrix" values="0 0 0 0 0 0 0 0 0 0 0 0 0 0 0 0 0 0 127 0" result="hardAlpha"/>
<feOffset dy="2"/>
<feComposite in2="hardAlpha" operator="out"/>
<feColorMatrix type="matrix" values="0 0 0 0 0 0 0 0 0 0.23595 0 0 0 0 0.452002 0 0 0 1 0"/>
<feBlend mode="normal" in2="BackgroundImageFix" result="effect1_dropShadow_837_3975"/>
<feBlend mode="normal" in="SourceGraphic" in2="effect1_dropShadow_837_3975" result="shape"/>
</filter>
</defs>
</svg>
