<svg width="74" height="55" viewBox="0 0 74 55" fill="none" xmlns="http://www.w3.org/2000/svg">
<rect width="74" height="55" fill="black"/>
<g clip-path="url(#clip0_0_1)">
<rect width="1920" height="7380" transform="translate(-1366 -3947)" fill="white"/>
<g opacity="0.4" filter="url(#filter0_d_0_1)">
<rect x="-376" y="-57" width="680" height="276" rx="41" fill="white"/>
<rect x="-375.5" y="-56.5" width="679" height="275" rx="40.5" stroke="#562EE7"/>
</g>
<path d="M22.4834 54.2628C16.9371 54.2628 11.4359 52.3217 6.73579 48.5825L5.91211 47.9215L14.3879 38.4364C14.5653 38.2384 14.8208 38.1164 15.0883 38.094C15.3559 38.0836 15.6234 38.1714 15.8233 38.3486C16.0247 38.5242 16.1465 38.7788 16.169 39.0437C16.1796 39.3072 16.0909 39.5722 15.9135 39.7717L8.86413 47.6566C14.7877 51.9794 21.9378 53.3369 28.6535 51.3616L36.8603 48.9352L45.0685 51.3616C51.7722 53.3369 58.9208 51.9913 64.8459 47.667L57.6958 39.727C57.5184 39.529 57.4297 39.2641 57.4403 38.9991C57.4508 38.7341 57.574 38.4811 57.7739 38.3039C57.9754 38.1268 58.2429 38.039 58.5089 38.0509C58.7765 38.0613 59.0335 38.1834 59.2109 38.3813L67.7859 47.9096L66.9502 48.572C60.3352 53.8222 52.151 55.5311 44.4778 53.2699L36.8497 51.0207L29.2202 53.2699C27.0377 53.9204 24.7666 54.2405 22.4834 54.2405" fill="#C49342"/>
<path d="M8.73158 41.0171C8.49861 41.0171 8.27465 40.9397 8.09729 40.7968C7.91842 40.6524 7.79668 40.4544 7.74106 40.2341C7.0722 37.3106 5.16781 34.1786 2.25036 31.2015L1.10352 30.0434L2.6622 29.5462C6.11474 28.4655 9.12238 28.3107 11.873 29.0937C12.1285 29.1711 12.351 29.3363 12.4742 29.5686C12.608 29.8008 12.629 30.0762 12.5629 30.3292C12.4953 30.5838 12.3179 30.8041 12.0834 30.9246C11.8504 31.0571 11.5724 31.0794 11.3154 31.0139C9.34484 30.4513 7.26158 30.4513 4.84465 31.0139C7.38483 33.8913 9.05474 36.8923 9.72361 39.7697C9.75668 39.9141 9.75668 40.0689 9.72361 40.2118C9.68904 40.3547 9.6229 40.4976 9.5222 40.6077C9.42299 40.7298 9.31026 40.8176 9.16597 40.8846C9.0322 40.9501 8.87738 40.9829 8.73158 40.9829" fill="#C49342"/>
<path d="M65.0675 41.0155C64.9112 41.0155 64.7669 40.9827 64.6331 40.9172C64.4994 40.8503 64.3776 40.752 64.2769 40.6404C64.1762 40.5302 64.1101 40.3873 64.077 40.2444C64.0439 40.1 64.0439 39.9467 64.077 39.8023C64.7444 36.9234 66.4158 33.924 68.9545 31.0466C66.5375 30.4839 64.4558 30.4839 62.4838 31.0466C62.362 31.0793 62.2282 31.0897 62.0945 31.0793C61.9607 31.0674 61.8389 31.0242 61.7157 30.9573C61.6045 30.8918 61.4932 30.8039 61.4151 30.7042C61.3369 30.6045 61.2708 30.4839 61.2362 30.3514C61.2031 30.2294 61.1926 30.0969 61.2031 29.9644C61.2152 29.8319 61.2588 29.7113 61.3264 29.5893C61.3925 29.4791 61.4812 29.369 61.5819 29.2916C61.6826 29.2156 61.8044 29.1487 61.9276 29.1159C64.6782 28.3329 67.6964 28.4758 71.1369 29.5684L72.6956 30.0641L71.5488 31.2222C68.6313 34.2008 66.7269 37.3209 66.0596 40.2548C66.0039 40.4751 65.8807 40.6746 65.7018 40.8175C65.5245 40.9604 65.302 41.0378 65.0675 41.0378" fill="#C49342"/>
<path d="M20.7356 19.234C20.5913 19.234 20.4575 19.2012 20.3237 19.1462C20.19 19.0911 20.0787 19.0033 19.978 18.9035C19.8788 18.7934 19.8112 18.6713 19.7676 18.5403C19.7225 18.4078 19.712 18.2634 19.7225 18.1205L20.5236 10.9844L25.5694 14.3932C25.7799 14.548 25.9257 14.7787 25.9813 15.0318C26.0249 15.2863 25.9813 15.5513 25.825 15.7716C25.6807 15.9919 25.4462 16.1348 25.1907 16.1914C24.9336 16.2464 24.6556 16.1914 24.4436 16.047L22.1725 14.5138L21.7381 18.3408C21.7156 18.5835 21.5938 18.8157 21.4044 18.9809C21.2151 19.1462 20.9806 19.234 20.7251 19.234" fill="#C49342"/>
<path d="M52.7326 19.234C52.4876 19.234 52.2546 19.1462 52.0652 18.9809C51.8758 18.8157 51.7646 18.5954 51.73 18.3528L51.2295 14.4914L48.9358 16.0366C48.7134 16.1914 48.4458 16.2464 48.1783 16.1914C47.9107 16.1467 47.6778 15.9919 47.532 15.7716C47.3772 15.5513 47.32 15.2863 47.3772 15.0214C47.4328 14.7564 47.5771 14.5257 47.7995 14.3813L52.8228 10.9844L53.7351 18.0982C53.7577 18.2426 53.7351 18.3855 53.7021 18.518C53.657 18.6505 53.5908 18.783 53.4901 18.8812C53.3894 18.9914 53.2782 19.0688 53.1444 19.1357C53.0122 19.1908 52.8664 19.2236 52.7326 19.2236" fill="#C49342"/>
<path d="M22.4834 54.2628C16.9371 54.2628 11.4359 52.3217 6.73579 48.5825L5.91211 47.9215L14.3879 38.4364C14.5653 38.2384 14.8208 38.1164 15.0883 38.094C15.3559 38.0836 15.6234 38.1714 15.8233 38.3486C16.0247 38.5242 16.1465 38.7788 16.169 39.0437C16.1796 39.3072 16.0909 39.5722 15.9135 39.7717L8.86413 47.6566C14.7877 51.9794 21.9378 53.3369 28.6535 51.3616L36.8603 48.9352L45.0685 51.3616C51.7722 53.3369 58.9208 51.9913 64.8459 47.667L57.6958 39.727C57.5184 39.529 57.4297 39.2641 57.4403 38.9991C57.4508 38.7341 57.574 38.4811 57.7739 38.3039C57.9754 38.1268 58.2429 38.039 58.509 38.0509C58.7765 38.0613 59.0335 38.1834 59.2109 38.3813L67.7859 47.9096L66.9502 48.572C60.3352 53.8222 52.151 55.5311 44.4778 53.2699L36.8497 51.0207L29.2202 53.2699C27.0377 53.9204 24.7666 54.2405 22.4834 54.2405" stroke="#C49342" stroke-width="0.740909" stroke-linejoin="round"/>
<path d="M36.8492 50.0478L20.1441 40.5091C18.2953 39.1739 16.7922 37.4307 15.7671 35.4018C14.7436 33.3729 14.219 31.1341 14.2536 28.873L14.3979 19.1006L21.079 21.2739C21.2128 21.3185 21.324 21.3736 21.4352 21.4614C21.5359 21.5493 21.6246 21.649 21.6802 21.7711C21.7479 21.8916 21.7809 22.0137 21.7929 22.1447C21.7929 22.2772 21.7929 22.4097 21.7479 22.5421C21.7028 22.6642 21.6366 22.7848 21.5479 22.8845C21.4578 22.9842 21.3465 23.0721 21.2353 23.1271C21.1136 23.1822 20.9798 23.215 20.846 23.2269C20.7122 23.2269 20.5785 23.2269 20.4447 23.1703L16.3804 21.847L16.2797 28.8834C16.2571 30.8141 16.6915 32.7328 17.5708 34.464C18.4396 36.1967 19.7202 37.6957 21.3029 38.8434L36.8597 47.7316L52.6058 38.8434C54.1886 37.7076 55.4797 36.1967 56.3485 34.464C57.2278 32.7328 57.6622 30.8141 57.6396 28.873L57.5404 21.8366L52.9079 23.3028C52.6509 23.3802 52.3729 23.3579 52.1384 23.2373C51.9054 23.1152 51.716 22.9068 51.6379 22.6523C51.5597 22.3992 51.5822 22.1239 51.704 21.8916C51.8272 21.6594 52.0392 21.4719 52.2947 21.3959L59.5229 19.1125L59.6552 28.8507C59.6898 31.1222 59.1652 33.3729 58.1416 35.4018C57.106 37.4307 55.6029 39.1858 53.7421 40.5091L53.6535 40.5642L36.8492 50.0478Z" fill="#C49342" stroke="#C49342" stroke-width="0.740909" stroke-linecap="round" stroke-linejoin="round"/>
<path d="M36.8934 34.1012L22.8066 26.127L36.8934 45.8474L50.6705 26.127L36.8934 34.1012Z" fill="#C49342"/>
<path d="M36.8957 0L23.2539 22.5428L36.8732 30.7269L50.6819 22.6529L36.8957 0Z" fill="#C49342"/>
<path d="M8.73158 41.0171C8.49861 41.0171 8.27465 40.9397 8.09729 40.7968C7.91842 40.6524 7.79668 40.4544 7.74106 40.2341C7.0722 37.3106 5.16781 34.1786 2.25036 31.2015L1.10352 30.0434L2.6622 29.5462C6.11474 28.4655 9.12238 28.3107 11.873 29.0937C12.1285 29.1711 12.351 29.3363 12.4742 29.5686C12.608 29.8008 12.629 30.0762 12.5629 30.3292C12.4953 30.5838 12.3179 30.8041 12.0834 30.9246C11.8504 31.0571 11.5724 31.0794 11.3154 31.0139C9.34483 30.4513 7.26158 30.4513 4.84465 31.0139C7.38483 33.8913 9.05474 36.8923 9.72361 39.7697C9.75668 39.9141 9.75668 40.0689 9.72361 40.2118C9.68904 40.3547 9.6229 40.4976 9.5222 40.6077C9.42299 40.7298 9.31026 40.8176 9.16597 40.8846C9.0322 40.9501 8.87738 40.9829 8.73158 40.9829" stroke="#C49342" stroke-width="0.740909" stroke-linecap="round" stroke-linejoin="round"/>
<path d="M65.0675 41.0155C64.9112 41.0155 64.7669 40.9827 64.6331 40.9172C64.4994 40.8503 64.3776 40.752 64.2769 40.6404C64.1762 40.5302 64.1101 40.3873 64.077 40.2444C64.0439 40.1 64.0439 39.9467 64.077 39.8023C64.7444 36.9234 66.4158 33.924 68.9545 31.0466C66.5375 30.4839 64.4558 30.4839 62.4838 31.0466C62.362 31.0793 62.2282 31.0897 62.0945 31.0793C61.9607 31.0674 61.8389 31.0242 61.7157 30.9573C61.6045 30.8918 61.4932 30.8039 61.4151 30.7042C61.3369 30.6045 61.2708 30.4839 61.2362 30.3514C61.2031 30.2294 61.1926 30.0969 61.2031 29.9644C61.2152 29.8319 61.2588 29.7113 61.3264 29.5893C61.3925 29.4791 61.4812 29.369 61.5819 29.2916C61.6826 29.2156 61.8044 29.1487 61.9276 29.1159C64.6782 28.3329 67.6964 28.4758 71.1369 29.5684L72.6956 30.0641L71.5488 31.2222C68.6313 34.2008 66.7269 37.3209 66.0596 40.2548C66.0039 40.4751 65.8807 40.6746 65.7018 40.8175C65.5245 40.9604 65.302 41.0378 65.0675 41.0378" stroke="#C49342" stroke-width="0.740909" stroke-miterlimit="10"/>
<path d="M20.7356 19.234C20.5913 19.234 20.4575 19.2012 20.3237 19.1462C20.19 19.0911 20.0787 19.0033 19.978 18.9035C19.8788 18.7934 19.8112 18.6713 19.7676 18.5403C19.7225 18.4078 19.712 18.2634 19.7225 18.1205L20.5236 10.9844L25.5694 14.3932C25.7799 14.548 25.9257 14.7787 25.9813 15.0318C26.0249 15.2863 25.9813 15.5513 25.825 15.7716C25.6807 15.9919 25.4462 16.1348 25.1907 16.1914C24.9336 16.2464 24.6556 16.1914 24.4436 16.047L22.1725 14.5138L21.7381 18.3408C21.7156 18.5835 21.5938 18.8157 21.4044 18.9809C21.2151 19.1462 20.9806 19.234 20.7251 19.234" stroke="#C49342" stroke-width="0.740909" stroke-linejoin="round"/>
<path d="M52.7326 19.234C52.4876 19.234 52.2546 19.1462 52.0652 18.9809C51.8758 18.8157 51.7646 18.5954 51.73 18.3528L51.2295 14.4914L48.9358 16.0366C48.7134 16.1914 48.4458 16.2464 48.1783 16.1914C47.9107 16.1467 47.6778 15.9919 47.532 15.7716C47.3772 15.5513 47.32 15.2863 47.3772 15.0214C47.4328 14.7564 47.5771 14.5257 47.7995 14.3813L52.8228 10.9844L53.7351 18.0982C53.7577 18.2426 53.7351 18.3855 53.7021 18.518C53.657 18.6505 53.5908 18.783 53.4901 18.8812C53.3894 18.9914 53.2782 19.0688 53.1444 19.1357C53.0122 19.1908 52.8664 19.2236 52.7326 19.2236" stroke="#C49342" stroke-width="0.740909" stroke-linecap="round" stroke-linejoin="round"/>
</g>
<defs>
<filter id="filter0_d_0_1" x="-380" y="-57" width="688" height="284" filterUnits="userSpaceOnUse" color-interpolation-filters="sRGB">
<feFlood flood-opacity="0" result="BackgroundImageFix"/>
<feColorMatrix in="SourceAlpha" type="matrix" values="0 0 0 0 0 0 0 0 0 0 0 0 0 0 0 0 0 0 127 0" result="hardAlpha"/>
<feOffset dy="4"/>
<feGaussianBlur stdDeviation="2"/>
<feComposite in2="hardAlpha" operator="out"/>
<feColorMatrix type="matrix" values="0 0 0 0 0.83305 0 0 0 0 0.786995 0 0 0 0 1 0 0 0 1 0"/>
<feBlend mode="normal" in2="BackgroundImageFix" result="effect1_dropShadow_0_1"/>
<feBlend mode="normal" in="SourceGraphic" in2="effect1_dropShadow_0_1" result="shape"/>
</filter>
<clipPath id="clip0_0_1">
<rect width="1920" height="7380" fill="white" transform="translate(-1366 -3947)"/>
</clipPath>
</defs>
</svg>
