<svg width="245" height="72" viewBox="0 0 245 72" fill="none" xmlns="http://www.w3.org/2000/svg">
<path d="M22.4834 54.2628C16.9371 54.2628 11.4359 52.3217 6.73579 48.5825L5.91211 47.9215L14.3879 38.4364C14.5653 38.2384 14.8208 38.1164 15.0883 38.094C15.3559 38.0836 15.6234 38.1714 15.8233 38.3486C16.0247 38.5242 16.1465 38.7788 16.169 39.0437C16.1796 39.3072 16.0909 39.5722 15.9135 39.7717L8.86413 47.6566C14.7877 51.9794 21.9378 53.3369 28.6535 51.3616L36.8603 48.9352L45.0685 51.3616C51.7722 53.3369 58.9208 51.9913 64.8459 47.667L57.6958 39.727C57.5184 39.529 57.4297 39.2641 57.4403 38.9991C57.4508 38.7341 57.574 38.4811 57.7739 38.3039C57.9754 38.1268 58.2429 38.039 58.5089 38.0509C58.7765 38.0613 59.0335 38.1834 59.2109 38.3813L67.7859 47.9096L66.9502 48.572C60.3352 53.8222 52.151 55.5311 44.4778 53.2699L36.8497 51.0207L29.2202 53.2699C27.0377 53.9204 24.7666 54.2405 22.4834 54.2405" fill="#C49342"/>
<path d="M22.4834 54.2628C16.9371 54.2628 11.4359 52.3217 6.73579 48.5825L5.91211 47.9215L14.3879 38.4364C14.5653 38.2384 14.8208 38.1164 15.0883 38.094C15.3559 38.0836 15.6234 38.1714 15.8233 38.3486C16.0247 38.5242 16.1465 38.7788 16.169 39.0437C16.1796 39.3072 16.0909 39.5722 15.9135 39.7717L8.86413 47.6566C14.7877 51.9794 21.9378 53.3369 28.6535 51.3616L36.8603 48.9352L45.0685 51.3616C51.7722 53.3369 58.9208 51.9913 64.8459 47.667L57.6958 39.727C57.5184 39.529 57.4297 39.2641 57.4403 38.9991C57.4508 38.7341 57.574 38.4811 57.7739 38.3039C57.9754 38.1268 58.2429 38.039 58.509 38.0509C58.7765 38.0613 59.0335 38.1834 59.2109 38.3813L67.7859 47.9096L66.9502 48.572C60.3352 53.8222 52.151 55.5311 44.4778 53.2699L36.8497 51.0207L29.2202 53.2699C27.0377 53.9204 24.7666 54.2405 22.4834 54.2405" stroke="#C49342" stroke-width="0.740909" stroke-linejoin="round"/>
<path d="M36.8492 50.0478L20.1441 40.5091C18.2953 39.1739 16.7922 37.4307 15.7671 35.4018C14.7436 33.3729 14.219 31.1341 14.2536 28.873L14.3979 19.1006L21.079 21.2739C21.2128 21.3185 21.324 21.3736 21.4352 21.4614C21.5359 21.5493 21.6246 21.649 21.6802 21.7711C21.7479 21.8916 21.7809 22.0137 21.7929 22.1447C21.7929 22.2772 21.7929 22.4097 21.7479 22.5421C21.7028 22.6642 21.6366 22.7848 21.5479 22.8845C21.4578 22.9842 21.3465 23.0721 21.2353 23.1271C21.1136 23.1822 20.9798 23.215 20.846 23.2269C20.7122 23.2269 20.5785 23.2269 20.4447 23.1703L16.3804 21.847L16.2797 28.8834C16.2571 30.8141 16.6915 32.7328 17.5708 34.464C18.4396 36.1967 19.7202 37.6957 21.3029 38.8434L36.8597 47.7316L52.6058 38.8434C54.1886 37.7076 55.4797 36.1967 56.3485 34.464C57.2278 32.7328 57.6622 30.8141 57.6396 28.873L57.5404 21.8366L52.9079 23.3028C52.6509 23.3802 52.3729 23.3579 52.1384 23.2373C51.9054 23.1152 51.716 22.9068 51.6379 22.6523C51.5597 22.3992 51.5822 22.1239 51.704 21.8916C51.8272 21.6594 52.0392 21.4719 52.2947 21.3959L59.5229 19.1125L59.6552 28.8507C59.6898 31.1222 59.1652 33.3729 58.1416 35.4018C57.106 37.4307 55.6029 39.1858 53.7421 40.5091L53.6535 40.5642L36.8492 50.0478Z" fill="#C49342" stroke="#C49342" stroke-width="0.740909" stroke-linecap="round" stroke-linejoin="round"/>
<path d="M36.8934 34.1012L22.8066 26.127L36.8934 45.8474L50.6705 26.127L36.8934 34.1012Z" fill="#C49342"/>
<path d="M36.8957 0L23.2539 22.5428L36.8732 30.7269L50.6819 22.6529L36.8957 0Z" fill="#C49342"/>
<path d="M8.73158 41.0171C8.49861 41.0171 8.27465 40.9397 8.09729 40.7968C7.91842 40.6524 7.79668 40.4544 7.74106 40.2341C7.0722 37.3106 5.16781 34.1786 2.25036 31.2015L1.10352 30.0434L2.6622 29.5462C6.11474 28.4655 9.12238 28.3107 11.873 29.0937C12.1285 29.1711 12.351 29.3363 12.4742 29.5686C12.608 29.8008 12.629 30.0762 12.5629 30.3292C12.4953 30.5838 12.3179 30.8041 12.0834 30.9246C11.8504 31.0571 11.5724 31.0794 11.3154 31.0139C9.34484 30.4513 7.26158 30.4513 4.84465 31.0139C7.38483 33.8913 9.05474 36.8923 9.72361 39.7697C9.75668 39.9141 9.75668 40.0689 9.72361 40.2118C9.68904 40.3547 9.6229 40.4976 9.5222 40.6077C9.42299 40.7298 9.31026 40.8176 9.16597 40.8846C9.0322 40.9501 8.87738 40.9829 8.73158 40.9829" fill="#C49342"/>
<path d="M8.73158 41.0171C8.49861 41.0171 8.27465 40.9397 8.09729 40.7968C7.91842 40.6524 7.79668 40.4544 7.74106 40.2341C7.0722 37.3106 5.16781 34.1786 2.25036 31.2015L1.10352 30.0434L2.6622 29.5462C6.11474 28.4655 9.12238 28.3107 11.873 29.0937C12.1285 29.1711 12.351 29.3363 12.4742 29.5686C12.608 29.8008 12.629 30.0762 12.5629 30.3292C12.4953 30.5838 12.3179 30.8041 12.0834 30.9246C11.8504 31.0571 11.5724 31.0794 11.3154 31.0139C9.34483 30.4513 7.26158 30.4513 4.84465 31.0139C7.38483 33.8913 9.05474 36.8923 9.72361 39.7697C9.75668 39.9141 9.75668 40.0689 9.72361 40.2118C9.68904 40.3547 9.6229 40.4976 9.5222 40.6077C9.42299 40.7298 9.31026 40.8176 9.16597 40.8846C9.0322 40.9501 8.87738 40.9829 8.73158 40.9829" stroke="#C49342" stroke-width="0.740909" stroke-linecap="round" stroke-linejoin="round"/>
<path d="M65.0675 41.0155C64.9112 41.0155 64.7669 40.9827 64.6331 40.9172C64.4994 40.8503 64.3776 40.752 64.2769 40.6404C64.1762 40.5302 64.1101 40.3873 64.077 40.2444C64.0439 40.1 64.0439 39.9467 64.077 39.8023C64.7444 36.9234 66.4158 33.924 68.9545 31.0466C66.5375 30.4839 64.4558 30.4839 62.4838 31.0466C62.362 31.0793 62.2282 31.0897 62.0945 31.0793C61.9607 31.0674 61.8389 31.0242 61.7157 30.9573C61.6045 30.8918 61.4932 30.8039 61.4151 30.7042C61.3369 30.6045 61.2708 30.4839 61.2362 30.3514C61.2031 30.2294 61.1926 30.0969 61.2031 29.9644C61.2152 29.8319 61.2588 29.7113 61.3264 29.5893C61.3925 29.4791 61.4812 29.369 61.5819 29.2916C61.6826 29.2156 61.8044 29.1487 61.9276 29.1159C64.6782 28.3329 67.6964 28.4758 71.1369 29.5684L72.6956 30.0641L71.5488 31.2222C68.6313 34.2008 66.7269 37.3209 66.0596 40.2548C66.0039 40.4751 65.8807 40.6746 65.7018 40.8175C65.5245 40.9604 65.302 41.0378 65.0675 41.0378" fill="#C49342"/>
<path d="M65.0675 41.0155C64.9112 41.0155 64.7669 40.9827 64.6331 40.9172C64.4994 40.8503 64.3776 40.752 64.2769 40.6404C64.1762 40.5302 64.1101 40.3873 64.077 40.2444C64.0439 40.1 64.0439 39.9467 64.077 39.8023C64.7444 36.9234 66.4158 33.924 68.9545 31.0466C66.5375 30.4839 64.4558 30.4839 62.4838 31.0466C62.362 31.0793 62.2282 31.0897 62.0945 31.0793C61.9607 31.0674 61.8389 31.0242 61.7157 30.9573C61.6045 30.8918 61.4932 30.8039 61.4151 30.7042C61.3369 30.6045 61.2708 30.4839 61.2362 30.3514C61.2031 30.2294 61.1926 30.0969 61.2031 29.9644C61.2152 29.8319 61.2588 29.7113 61.3264 29.5893C61.3925 29.4791 61.4812 29.369 61.5819 29.2916C61.6826 29.2156 61.8044 29.1487 61.9276 29.1159C64.6782 28.3329 67.6964 28.4758 71.1369 29.5684L72.6956 30.0641L71.5488 31.2222C68.6313 34.2008 66.7269 37.3209 66.0596 40.2548C66.0039 40.4751 65.8807 40.6746 65.7018 40.8175C65.5245 40.9604 65.302 41.0378 65.0675 41.0378" stroke="#C49342" stroke-width="0.740909" stroke-miterlimit="10"/>
<path d="M20.7356 19.234C20.5913 19.234 20.4575 19.2012 20.3237 19.1462C20.19 19.0911 20.0787 19.0033 19.978 18.9035C19.8788 18.7934 19.8112 18.6713 19.7676 18.5403C19.7225 18.4078 19.712 18.2634 19.7225 18.1205L20.5236 10.9844L25.5694 14.3932C25.7799 14.548 25.9257 14.7787 25.9813 15.0318C26.0249 15.2863 25.9813 15.5513 25.825 15.7716C25.6807 15.9919 25.4462 16.1348 25.1907 16.1914C24.9336 16.2464 24.6556 16.1914 24.4436 16.047L22.1725 14.5138L21.7381 18.3408C21.7156 18.5835 21.5938 18.8157 21.4044 18.9809C21.2151 19.1462 20.9806 19.234 20.7251 19.234" fill="#C49342"/>
<path d="M20.7356 19.234C20.5913 19.234 20.4575 19.2012 20.3237 19.1462C20.19 19.0911 20.0787 19.0033 19.978 18.9035C19.8788 18.7934 19.8112 18.6713 19.7676 18.5403C19.7225 18.4078 19.712 18.2634 19.7225 18.1205L20.5236 10.9844L25.5694 14.3932C25.7799 14.548 25.9257 14.7787 25.9813 15.0318C26.0249 15.2863 25.9813 15.5513 25.825 15.7716C25.6807 15.9919 25.4462 16.1348 25.1907 16.1914C24.9336 16.2464 24.6556 16.1914 24.4436 16.047L22.1725 14.5138L21.7381 18.3408C21.7156 18.5835 21.5938 18.8157 21.4044 18.9809C21.2151 19.1462 20.9806 19.234 20.7251 19.234" stroke="#C49342" stroke-width="0.740909" stroke-linejoin="round"/>
<path d="M52.7326 19.234C52.4876 19.234 52.2546 19.1462 52.0652 18.9809C51.8758 18.8157 51.7646 18.5954 51.73 18.3528L51.2295 14.4914L48.9358 16.0366C48.7134 16.1914 48.4458 16.2464 48.1783 16.1914C47.9107 16.1467 47.6778 15.9919 47.532 15.7716C47.3772 15.5513 47.32 15.2863 47.3772 15.0214C47.4328 14.7564 47.5771 14.5257 47.7995 14.3813L52.8228 10.9844L53.7351 18.0982C53.7577 18.2426 53.7351 18.3855 53.7021 18.518C53.657 18.6505 53.5908 18.783 53.4901 18.8812C53.3894 18.9914 53.2782 19.0688 53.1444 19.1357C53.0122 19.1908 52.8664 19.2236 52.7326 19.2236" fill="#C49342"/>
<path d="M52.7326 19.234C52.4876 19.234 52.2546 19.1462 52.0652 18.9809C51.8758 18.8157 51.7646 18.5954 51.73 18.3528L51.2295 14.4914L48.9358 16.0366C48.7134 16.1914 48.4458 16.2464 48.1783 16.1914C47.9107 16.1467 47.6778 15.9919 47.532 15.7716C47.3772 15.5513 47.32 15.2863 47.3772 15.0214C47.4328 14.7564 47.5771 14.5257 47.7995 14.3813L52.8228 10.9844L53.7351 18.0982C53.7577 18.2426 53.7351 18.3855 53.7021 18.518C53.657 18.6505 53.5908 18.783 53.4901 18.8812C53.3894 18.9914 53.2782 19.0688 53.1444 19.1357C53.0122 19.1908 52.8664 19.2236 52.7326 19.2236" stroke="#C49342" stroke-width="0.740909" stroke-linecap="round" stroke-linejoin="round"/>
<path d="M154.125 15.0967V27.5158H139.192V15.0967H89V44.5777H111.929V39.9453H95.113V32.1482H111.941V27.5158H95.113V19.7291H119.491V44.5777H125.594V19.7291H133.088V44.5777H139.202V32.1482H154.135V44.5658H160.239V15.0967H154.135H154.125Z" fill="#C49342"/>
<path d="M164.973 44.5792H169.807V15H164.973V44.5792Z" fill="#C49342"/>
<path d="M174.073 24.5498H178.761V26.4031C180.398 24.8043 182.236 23.999 184.285 23.999C186.636 23.999 188.472 24.7388 189.786 26.2051C190.922 27.451 191.491 29.4918 191.491 32.3156V44.5903H186.802V33.4067C186.802 31.4329 186.523 30.0649 185.967 29.3147C185.421 28.5436 184.441 28.1685 183.016 28.1685C181.468 28.1685 180.365 28.6761 179.708 29.6898C179.074 30.6931 178.751 32.4362 178.751 34.9295V44.5903H174.062V24.5498H174.073Z" fill="#C49342"/>
<path d="M198.239 34.4987C198.239 36.4174 198.762 37.9834 199.798 39.1862C200.866 40.4098 202.202 41.0171 203.829 41.0171C205.556 41.0171 206.958 40.4321 208.027 39.2517C209.097 38.0281 209.631 36.4844 209.631 34.6088C209.631 32.7332 209.097 31.1792 208.027 29.966C206.958 28.7752 205.577 28.1782 203.874 28.1782C202.27 28.1782 200.922 28.7856 199.843 29.9883C198.772 31.2119 198.239 32.7124 198.239 34.5091V34.4987ZM209.33 15H214.02V44.5792H209.33V42.4833C207.493 44.2696 205.41 45.1523 203.083 45.1523C200.31 45.1523 198.016 44.149 196.19 42.1529C194.375 40.1121 193.473 37.5651 193.473 34.4987C193.473 31.4322 194.375 29.0178 196.19 27.0097C197.994 24.9912 200.255 23.9879 202.983 23.9879C205.354 23.9879 207.471 24.9481 209.342 26.8668V15H209.33Z" fill="#C49342"/>
<path d="M217.359 44.5788H222.026V24.5502H217.359V44.5788ZM216.658 17.9871C216.658 17.1818 216.959 16.4762 217.548 15.8912C217.826 15.6054 218.161 15.3851 218.528 15.2303C218.896 15.0755 219.286 14.9981 219.687 15.01C220.533 15.01 221.246 15.3077 221.847 15.8912C222.437 16.4658 222.738 17.1714 222.738 18.0094C222.738 18.8475 222.437 19.565 221.847 20.1485C221.569 20.4358 221.246 20.6561 220.867 20.8109C220.5 20.9657 220.099 21.0416 219.709 21.0312C219.308 21.0312 218.907 20.9657 218.54 20.8109C218.172 20.6561 217.826 20.4358 217.548 20.1485C216.947 19.565 216.658 18.8371 216.658 17.9871Z" fill="#C49342"/>
<path d="M229.219 34.5C229.219 36.4188 229.742 37.9847 230.778 39.1875C231.847 40.4111 233.183 41.0169 234.809 41.0169C236.535 41.0169 237.939 40.4334 238.997 39.253C240.066 38.0294 240.601 36.4843 240.601 34.6102C240.601 32.7346 240.066 31.1805 238.997 29.9673C237.928 28.775 236.547 28.1796 234.842 28.1796C233.239 28.1796 231.892 28.7869 230.811 29.9882C229.742 31.2133 229.207 32.7241 229.207 34.5104L229.219 34.5ZM240.31 24.5519H244.999V44.5805H240.31V42.4846C238.384 44.2709 236.312 45.1536 234.107 45.1536C231.313 45.1536 228.995 44.1503 227.169 42.1527C225.355 40.1134 224.453 37.5649 224.453 34.5C224.453 31.4336 225.355 28.9968 227.169 26.9887C228.985 24.9821 231.258 23.9893 233.986 23.9893C236.335 23.9893 238.451 24.9479 240.323 26.8681V24.54L240.31 24.5519Z" fill="#C49342"/>
<path d="M96.8424 62.2529C96.7728 62.011 96.675 61.7972 96.5491 61.6116C96.4231 61.4227 96.269 61.2636 96.0867 61.1343C95.9078 61.0017 95.7023 60.9007 95.4703 60.8311C95.2416 60.7615 94.988 60.7267 94.7096 60.7267C94.1892 60.7267 93.7319 60.8559 93.3374 61.1144C92.9463 61.373 92.6414 61.7491 92.4227 62.243C92.2039 62.7335 92.0945 63.3334 92.0945 64.0427C92.0945 64.752 92.2023 65.3552 92.4177 65.8524C92.6331 66.3495 92.9381 66.729 93.3325 66.9909C93.7269 67.2494 94.1926 67.3786 94.7295 67.3786C95.2167 67.3786 95.6327 67.2925 95.9774 67.1201C96.3254 66.9445 96.5905 66.6975 96.7728 66.3794C96.9584 66.0612 97.0512 65.685 97.0512 65.2508L97.4887 65.3154H94.8637V63.6947H99.1244V64.9774C99.1244 65.8722 98.9355 66.6412 98.5576 67.2842C98.1798 67.9239 97.6594 68.4177 96.9965 68.7657C96.3337 69.1104 95.5747 69.2828 94.7195 69.2828C93.765 69.2828 92.9265 69.0723 92.2039 68.6514C91.4814 68.2271 90.9179 67.6256 90.5136 66.8467C90.1125 66.0645 89.912 65.1365 89.912 64.0626C89.912 63.2373 90.0313 62.5015 90.27 61.8552C90.5119 61.2056 90.85 60.6554 91.2842 60.2046C91.7184 59.7539 92.2238 59.4108 92.8005 59.1755C93.3772 58.9402 94.002 58.8225 94.6748 58.8225C95.2515 58.8225 95.7884 58.907 96.2856 59.0761C96.7828 59.2418 97.2236 59.4771 97.608 59.782C97.9958 60.087 98.3124 60.4499 98.5576 60.8708C98.8029 61.2884 98.9603 61.7491 99.0299 62.2529H96.8424ZM107.741 69.1436V58.9617H111.758C112.527 58.9617 113.184 59.0993 113.727 59.3744C114.274 59.6462 114.69 60.0323 114.975 60.5328C115.263 61.0299 115.408 61.6149 115.408 62.2877C115.408 62.9639 115.262 63.5455 114.97 64.0328C114.678 64.5167 114.256 64.8879 113.702 65.1464C113.152 65.4049 112.486 65.5342 111.704 65.5342H109.014V63.8041H111.356C111.767 63.8041 112.108 63.7477 112.38 63.635C112.652 63.5223 112.854 63.3533 112.986 63.1279C113.122 62.9026 113.19 62.6225 113.19 62.2877C113.19 61.9497 113.122 61.6646 112.986 61.4326C112.854 61.2006 112.65 61.0249 112.375 60.9056C112.103 60.783 111.76 60.7217 111.346 60.7217H109.894V69.1436H107.741ZM113.24 64.51L115.771 69.1436H113.394L110.918 64.51H113.24ZM125.684 69.1436H123.377L126.892 58.9617H129.666L133.176 69.1436H130.869L128.319 61.2884H128.239L125.684 69.1436ZM125.54 65.1414H130.989V66.8218H125.54V65.1414ZM149.918 58.9617V69.1436H148.059L143.629 62.7352H143.554V69.1436H141.402V58.9617H143.291L147.686 65.3651H147.775V58.9617H149.918ZM158.309 60.7366V58.9617H166.671V60.7366H163.554V69.1436H161.426V60.7366H158.309ZM180.571 61.89C180.532 61.489 180.361 61.1774 180.059 60.9553C179.758 60.7333 179.348 60.6222 178.831 60.6222C178.48 60.6222 178.183 60.672 177.941 60.7714C177.7 60.8675 177.514 61.0017 177.385 61.1741C177.259 61.3464 177.196 61.542 177.196 61.7607C177.189 61.943 177.227 62.1021 177.31 62.238C177.396 62.3739 177.514 62.4916 177.663 62.591C177.812 62.6871 177.985 62.7716 178.18 62.8445C178.376 62.9142 178.584 62.9738 178.807 63.0235L179.721 63.2423C180.165 63.3417 180.573 63.4743 180.944 63.64C181.316 63.8057 181.637 64.0096 181.909 64.2515C182.181 64.4935 182.391 64.7785 182.54 65.1066C182.693 65.4347 182.771 65.8109 182.774 66.2352C182.771 66.8583 182.611 67.3985 182.297 67.8559C181.985 68.31 181.534 68.663 180.944 68.9149C180.358 69.1634 179.65 69.2877 178.821 69.2877C177.999 69.2877 177.284 69.1618 176.674 68.9099C176.067 68.658 175.593 68.2851 175.252 67.7913C174.914 67.2941 174.736 66.6793 174.72 65.9468H176.803C176.826 66.2882 176.924 66.5732 177.096 66.8019C177.272 67.0273 177.506 67.198 177.797 67.314C178.092 67.4267 178.425 67.483 178.797 67.483C179.161 67.483 179.478 67.43 179.746 67.324C180.018 67.2179 180.228 67.0704 180.378 66.8815C180.527 66.6926 180.601 66.4755 180.601 66.2302C180.601 66.0015 180.533 65.8093 180.397 65.6535C180.265 65.4977 180.069 65.3651 179.811 65.2558C179.556 65.1464 179.242 65.047 178.871 64.9575L177.763 64.6791C176.904 64.4703 176.226 64.1438 175.729 63.6997C175.232 63.2555 174.985 62.6573 174.988 61.9049C174.985 61.2884 175.149 60.7499 175.481 60.2892C175.815 59.8285 176.274 59.4688 176.858 59.2103C177.441 58.9518 178.104 58.8225 178.846 58.8225C179.602 58.8225 180.262 58.9518 180.825 59.2103C181.392 59.4688 181.833 59.8285 182.147 60.2892C182.462 60.7499 182.625 61.2835 182.635 61.89H180.571ZM201.402 69.1436V67.5924L205.027 64.2366C205.335 63.9383 205.593 63.6698 205.802 63.4312C206.014 63.1926 206.175 62.9589 206.285 62.7302C206.394 62.4982 206.449 62.248 206.449 61.9795C206.449 61.6812 206.381 61.4243 206.245 61.2089C206.109 60.9901 205.923 60.8228 205.688 60.7068C205.453 60.5874 205.186 60.5278 204.888 60.5278C204.576 60.5278 204.304 60.5908 204.072 60.7167C203.84 60.8427 203.661 61.0233 203.535 61.2586C203.409 61.4939 203.346 61.774 203.346 62.0988H201.303C201.303 61.4326 201.454 60.8543 201.755 60.3637C202.057 59.8732 202.48 59.4937 203.023 59.2252C203.567 58.9568 204.193 58.8225 204.902 58.8225C205.632 58.8225 206.266 58.9518 206.807 59.2103C207.35 59.4655 207.773 59.8202 208.074 60.2742C208.376 60.7283 208.527 61.2487 208.527 61.8353C208.527 62.2198 208.45 62.5993 208.298 62.9738C208.149 63.3483 207.882 63.7643 207.498 64.2217C207.113 64.6758 206.571 65.221 205.872 65.8573L204.385 67.314V67.3836H208.661V69.1436H201.402ZM218.479 69.2728C218.15 69.2728 217.869 69.1568 217.633 68.9248C217.401 68.6895 217.285 68.4078 217.285 68.0796C217.285 67.7548 217.401 67.4764 217.633 67.2444C217.869 67.0124 218.15 66.8964 218.479 66.8964C218.797 66.8964 219.075 67.0124 219.314 67.2444C219.552 67.4764 219.672 67.7548 219.672 68.0796C219.672 68.2984 219.615 68.4989 219.503 68.6812C219.393 68.8602 219.249 69.0044 219.07 69.1137C218.891 69.2198 218.694 69.2728 218.479 69.2728ZM231.973 69.3673C231.118 69.364 230.382 69.1535 229.765 68.7359C229.152 68.3183 228.68 67.7134 228.348 66.9213C228.02 66.1291 227.858 65.1762 227.861 64.0626C227.861 62.9523 228.025 62.006 228.353 61.2238C228.685 60.4416 229.157 59.8467 229.77 59.439C230.387 59.028 231.121 58.8225 231.973 58.8225C232.825 58.8225 233.557 59.028 234.17 59.439C234.787 59.85 235.261 60.4466 235.592 61.2288C235.924 62.0077 236.088 62.9523 236.084 64.0626C236.084 65.1795 235.919 66.1341 235.587 66.9262C235.259 67.7184 234.788 68.3232 234.175 68.7409C233.562 69.1585 232.828 69.3673 231.973 69.3673ZM231.973 67.5825C232.556 67.5825 233.022 67.2892 233.37 66.7025C233.718 66.1159 233.89 65.2359 233.887 64.0626C233.887 63.2903 233.807 62.6473 233.648 62.1336C233.492 61.6199 233.27 61.2338 232.982 60.9752C232.697 60.7167 232.361 60.5874 231.973 60.5874C231.393 60.5874 230.929 60.8775 230.581 61.4575C230.233 62.0375 230.057 62.9059 230.054 64.0626C230.054 64.8448 230.132 65.4977 230.287 66.0214C230.446 66.5418 230.67 66.9329 230.959 67.1947C231.247 67.4532 231.585 67.5825 231.973 67.5825Z" fill="#C49342"/>
</svg>
