<svg width="70" height="70" viewBox="0 0 70 70" fill="none" xmlns="http://www.w3.org/2000/svg">
<path d="M48.2238 50.8781C56.9283 50.8781 63.9847 43.7634 63.9847 34.9869C63.9847 26.2104 56.9283 19.0957 48.2238 19.0957C39.5193 19.0957 32.4629 26.2104 32.4629 34.9869C32.4629 43.7634 39.5193 50.8781 48.2238 50.8781Z" fill="url(#paint0_linear_868_363)"/>
<path d="M48.2234 47.3467C54.9936 47.3467 60.4819 41.813 60.4819 34.9868C60.4819 28.1607 54.9936 22.627 48.2234 22.627C41.4532 22.627 35.9648 28.1607 35.9648 34.9868C35.9648 41.813 41.4532 47.3467 48.2234 47.3467Z" fill="url(#paint1_linear_868_363)"/>
<path d="M49.2367 33.1366V33.2058L49.3014 33.2302C50.3458 33.6236 51.4603 34.087 52.3144 34.8344C53.1635 35.5775 53.7577 36.6036 53.7576 38.1347C53.7576 39.5466 53.3065 40.6725 52.5311 41.4994C51.7547 42.3274 50.6463 42.863 49.3205 43.0801L49.2367 43.0939V43.1788V43.8498C49.2367 43.9662 49.1563 44.096 49.0064 44.202C48.859 44.3063 48.6611 44.3745 48.4647 44.3745C48.2316 44.3745 48.0351 44.3051 47.8992 44.2035C47.7624 44.1014 47.6926 43.9723 47.6926 43.8498V43.2713V43.1746L47.596 43.1714C46.2345 43.1257 45.001 42.748 44.1108 42.2027C43.216 41.6545 42.6898 40.9521 42.6898 40.2634C42.6898 39.8949 42.8528 39.4291 43.124 39.0552C43.3961 38.6801 43.7599 38.4197 44.1503 38.4197C44.367 38.4197 44.579 38.4963 44.8068 38.6248C45.0034 38.7357 45.2042 38.8806 45.4257 39.0404C45.4625 39.067 45.4998 39.0939 45.5378 39.1212C46.0672 39.5012 46.7024 39.9296 47.5752 40.0842L47.6926 40.105V39.9857V36.2373V36.1685L47.6284 36.1439C46.5704 35.738 45.4383 35.2919 44.5691 34.5834C43.7058 33.8797 43.1028 32.9177 43.1028 31.4707C43.1028 30.0287 43.6309 28.9685 44.4526 28.2245C45.277 27.4781 46.4038 27.0442 47.6067 26.8726L47.6926 26.8604V26.7736V26.1257C47.6926 26.0032 47.7624 25.8741 47.8992 25.772C48.0351 25.6704 48.2316 25.601 48.4647 25.601C48.661 25.601 48.859 25.6692 49.0064 25.7735C49.1563 25.8796 49.2367 26.0093 49.2367 26.1257V26.7042V26.801L49.3334 26.8041C50.0407 26.8271 51.0559 26.9307 51.8911 27.2237C52.7341 27.5195 53.3445 27.9887 53.3445 28.7172C53.3445 29.0127 53.2456 29.4696 53.0252 29.85C52.8055 30.2294 52.4772 30.5146 52.0217 30.5146C51.718 30.5146 51.4727 30.3867 51.1485 30.2177C51.1009 30.1929 51.0516 30.1672 51.0002 30.1409C50.6036 29.938 50.1084 29.718 49.3444 29.6587L49.2367 29.6504V29.7584V33.1366ZM47.783 32.6734L47.9221 32.7324V32.5813V29.8279V29.7057L47.8023 29.7298C46.7448 29.9431 46.2533 30.5016 46.2533 31.1236C46.2533 31.4937 46.4197 31.7909 46.6935 32.0393C46.9644 32.2851 47.3441 32.487 47.783 32.6734ZM49.0074 39.9624V40.0889L49.1304 40.0597C49.5305 39.9648 49.8987 39.8026 50.1682 39.5494C50.4405 39.2936 50.6071 38.9492 50.6071 38.5048C50.6071 37.6779 49.9813 37.1673 49.1503 36.7716L49.0074 36.7036V36.8619V39.9624Z" fill="white" stroke="#E16B00" stroke-width="0.2"/>
<path d="M21.7765 50.8781C30.481 50.8781 37.5374 43.7634 37.5374 34.9869C37.5374 26.2104 30.481 19.0957 21.7765 19.0957C13.072 19.0957 6.01562 26.2104 6.01562 34.9869C6.01562 43.7634 13.072 50.8781 21.7765 50.8781Z" fill="url(#paint2_linear_868_363)"/>
<path d="M21.777 49.5993C29.7806 49.5993 36.2689 43.0575 36.2689 34.9877C36.2689 26.9178 29.7806 20.376 21.777 20.376C13.7734 20.376 7.28516 26.9178 7.28516 34.9877C7.28516 43.0575 13.7734 49.5993 21.777 49.5993Z" fill="url(#paint3_linear_868_363)"/>
<path d="M21.777 48.2232C29.0271 48.2232 34.9046 42.2972 34.9046 34.9871C34.9046 27.677 29.0271 21.751 21.777 21.751C14.5268 21.751 8.64941 27.677 8.64941 34.9871C8.64941 42.2972 14.5268 48.2232 21.777 48.2232Z" fill="url(#paint4_linear_868_363)"/>
<path d="M34.9013 35.2212L22.2617 22.4771C22.0942 22.2212 21.7218 22.2212 21.5543 22.4771L19.9008 25.0033C19.7175 25.2832 19.9115 25.6542 20.2402 25.6648C20.2478 25.8769 20.4134 26.0695 20.6491 26.0772C20.6507 26.1224 20.659 26.1667 20.6742 26.2085V33.0462C19.9768 33.4691 19.51 34.2394 19.51 35.1197C19.51 35.3757 19.5499 35.6223 19.623 35.8539L17.6256 37.8678L17.3288 37.5686C17.0902 37.3279 16.6818 37.4515 16.6141 37.785L16.0118 40.7501C15.9577 41.0165 16.1587 41.2548 16.4126 41.2627L23.2352 48.1416C29.7234 47.4184 34.7859 41.9282 34.9013 35.2212Z" fill="url(#paint5_linear_868_363)"/>
<path d="M21.7769 27.2825C21.0925 27.2825 20.5377 26.723 20.5377 26.033V24.4712C20.5377 23.781 21.0926 23.2217 21.7769 23.2217C22.4614 23.2217 23.0161 23.7811 23.0161 24.4712V26.033C23.0162 26.723 22.4614 27.2825 21.7769 27.2825ZM21.7769 46.7537C21.0925 46.7537 20.5377 46.1942 20.5377 45.5042V43.9423C20.5377 43.2522 21.0926 42.6928 21.7769 42.6928C22.4614 42.6928 23.0161 43.2523 23.0161 43.9423V45.5042C23.0162 46.1943 22.4614 46.7537 21.7769 46.7537ZM29.4189 34.9877C29.4189 34.2976 29.9738 33.7382 30.6581 33.7382H32.2072C32.8916 33.7382 33.4464 34.2977 33.4464 34.9877C33.4464 35.6778 32.8915 36.2371 32.2072 36.2371H30.6581C29.9738 36.2371 29.4189 35.6778 29.4189 34.9877ZM10.1074 34.9877C10.1074 34.2976 10.6623 33.7382 11.3466 33.7382H12.8957C13.5802 33.7382 14.1349 34.2977 14.1349 34.9877C14.1349 35.6778 13.5801 36.2371 12.8957 36.2371H11.3466C10.6623 36.2371 10.1074 35.6778 10.1074 34.9877ZM27.1807 29.5393C26.6967 29.0513 26.6967 28.2602 27.1807 27.7722L28.276 26.6679C28.7599 26.1799 29.5445 26.1799 30.0285 26.6679C30.5125 27.1558 30.5125 27.9469 30.0285 28.4349L28.9332 29.5393C28.4492 30.0272 27.6646 30.0272 27.1807 29.5393ZM13.5253 43.3075C13.0414 42.8195 13.0414 42.0284 13.5253 41.5404L14.6207 40.4361C15.1046 39.9481 15.8892 39.9481 16.3732 40.4361C16.8572 40.9241 16.8572 41.7151 16.3732 42.2031L15.2779 43.3075C14.794 43.7955 14.0093 43.7955 13.5253 43.3075ZM27.1807 40.4361C27.6646 39.9481 28.4492 39.9481 28.9332 40.4361L30.0285 41.5404C30.5125 42.0284 30.5125 42.8195 30.0285 43.3075C29.5445 43.7955 28.7599 43.7955 28.276 43.3075L27.1807 42.2031C26.6967 41.7151 26.6967 40.924 27.1807 40.4361ZM13.5253 26.6679C14.0093 26.1799 14.7939 26.1799 15.2779 26.6679L16.3732 27.7722C16.8572 28.2602 16.8572 29.0513 16.3732 29.5393C15.8892 30.0272 15.1046 30.0272 14.6207 29.5393L13.5253 28.4349C13.0414 27.9469 13.0414 27.1558 13.5253 26.6679Z" fill="#BCCBD3"/>
<path d="M16.3801 41.1224L19.321 40.515C19.6517 40.4467 19.7743 40.035 19.5356 39.7943L19.2388 39.4951L22.7799 35.9248C22.8178 35.8866 22.8478 35.8412 22.8683 35.7913C22.8888 35.7414 22.8994 35.688 22.8994 35.6339C22.8994 35.5799 22.8888 35.5264 22.8683 35.4765C22.8478 35.4266 22.8178 35.3813 22.7799 35.3431L21.6118 34.1654C21.574 34.1272 21.529 34.0969 21.4795 34.0762C21.43 34.0556 21.377 34.0449 21.3234 34.0449C21.2698 34.0449 21.2168 34.0556 21.1673 34.0762C21.1178 34.0969 21.0728 34.1272 21.0349 34.1654L17.4939 37.7357L17.1971 37.4365C16.9585 37.1959 16.5501 37.3194 16.4824 37.6529L15.88 40.6181C15.8189 40.9184 16.0822 41.1839 16.3801 41.1224Z" fill="url(#paint6_linear_868_363)"/>
<path d="M21.4227 22.3442L19.769 24.8704C19.5831 25.1545 19.7851 25.533 20.1227 25.533H20.5424V34.4271C20.5424 34.4811 20.5529 34.5346 20.5734 34.5845C20.5939 34.6344 20.624 34.6798 20.6619 34.718C20.6998 34.7562 20.7447 34.7865 20.7942 34.8071C20.8437 34.8278 20.8968 34.8385 20.9504 34.8385H22.6022C22.7104 34.8385 22.8141 34.7951 22.8907 34.718C22.9672 34.6408 23.0101 34.5362 23.0101 34.4271V25.533H23.4299C23.7674 25.533 23.9694 25.1544 23.7835 24.8704L22.1299 22.3442C21.9626 22.0884 21.5902 22.0884 21.4227 22.3442Z" fill="url(#paint7_linear_868_363)"/>
<path d="M21.777 37.4052C23.1015 37.4052 24.1751 36.3227 24.1751 34.9873C24.1751 33.6519 23.1015 32.5693 21.777 32.5693C20.4526 32.5693 19.3789 33.6519 19.3789 34.9873C19.3789 36.3227 20.4526 37.4052 21.777 37.4052Z" fill="url(#paint8_linear_868_363)"/>
<path d="M44.5042 16.3312L41.4201 10.7634C41.006 10.0406 39.8852 10.1047 39.4979 10.8424L38.9015 11.9783C35.699 10.6616 31.9622 10.6818 28.7785 12.3619C27.529 13.0214 26.444 13.8706 25.5392 14.8554C24.4831 16.0046 25.0198 17.8772 26.5149 18.3042C27.2744 18.5212 28.0858 18.2843 28.6242 17.7022C29.2191 17.0592 29.9326 16.5059 30.7543 16.078C32.7418 15.0429 34.9887 14.9595 36.9639 15.6688L36.3528 16.8326C35.9654 17.5703 36.535 18.4494 37.3607 18.3882L43.6694 17.9212C44.444 17.8638 44.8926 17.0095 44.5042 16.3312Z" fill="url(#paint9_linear_868_363)"/>
<path d="M25.1307 53.6431L28.2148 59.2109C28.6288 59.9337 29.7496 59.8696 30.1369 59.1318L30.7333 57.9959C33.9359 59.3126 37.6726 59.2925 40.8564 57.6123C42.1059 56.9529 43.1908 56.1037 44.0956 55.1189C45.1517 53.9696 44.615 52.0971 43.1199 51.67C42.3604 51.4531 41.5491 51.69 41.0107 52.2721C40.4158 52.915 39.7023 53.4684 38.8805 53.8963C36.893 54.9313 34.6461 55.0148 32.671 54.3054L33.282 53.1417C33.6694 52.404 33.0998 51.5248 32.2741 51.586L25.9655 52.0531C25.1908 52.1105 24.7422 52.9648 25.1307 53.6431Z" fill="url(#paint10_linear_868_363)"/>
<path d="M22 50.7075C30.8366 50.7075 38 43.6095 38 34.8538C38 26.098 30.8366 19 22 19C13.1634 19 6 26.098 6 34.8538C6 43.6095 13.1634 50.7075 22 50.7075Z" fill="#80B4FB"/>
<path d="M23.1619 50.6657C22.7754 50.6938 22.388 50.7078 22.0004 50.7075C13.1635 50.7075 6 43.6095 6 34.8533C6 26.0981 13.1635 19 22.0004 19C22.391 19 22.7782 19.0136 23.1619 19.0418C14.867 19.6309 8.3239 26.4851 8.3239 34.8533C8.32382 43.2225 14.867 50.0767 23.1619 50.6657Z" fill="#61A2F9"/>
<path d="M22.0002 47.0441C28.795 47.0441 34.3032 41.5863 34.3032 34.8536C34.3032 28.121 28.795 22.6631 22.0002 22.6631C15.2055 22.6631 9.69727 28.121 9.69727 34.8536C9.69727 41.5863 15.2055 47.0441 22.0002 47.0441Z" fill="#D3EFFB"/>
<path d="M23.9442 46.8933C23.3014 46.9945 22.6515 47.0452 22.0007 47.045C15.2055 47.045 9.69727 41.5873 9.69727 34.8541C9.69727 28.1218 15.2054 22.6641 22.0007 22.6641C22.6623 22.6641 23.311 22.716 23.9442 22.8158C18.073 23.7383 13.5845 28.7766 13.5845 34.8542C13.5845 40.9326 18.073 45.9708 23.9442 46.8933Z" fill="#B1E4F9"/>
<path d="M22.0001 36.5587C21.0497 36.5587 20.2793 35.7953 20.2793 34.8537V28.6093C20.2793 27.6677 21.0497 26.9043 22.0001 26.9043C22.9504 26.9043 23.7208 27.6677 23.7208 28.6093V34.8537C23.7208 35.7953 22.9504 36.5587 22.0001 36.5587Z" fill="#665E66"/>
<path d="M25.9656 36.5588H22.0005C21.0502 36.5588 20.2798 35.7955 20.2798 34.8538C20.2798 33.9121 21.0502 33.1488 22.0005 33.1488H25.9656C26.916 33.1488 27.6864 33.9121 27.6864 34.8538C27.6864 35.7955 26.916 36.5588 25.9656 36.5588ZM11.7885 35.5006H9.69764C9.52453 35.5006 9.35851 35.4325 9.2361 35.3112C9.11369 35.1899 9.04492 35.0254 9.04492 34.8539C9.04492 34.6824 9.11369 34.5178 9.2361 34.3966C9.35851 34.2753 9.52453 34.2071 9.69764 34.2071H11.7885C11.9617 34.2071 12.1277 34.2753 12.2501 34.3966C12.3725 34.5178 12.4413 34.6824 12.4413 34.8539C12.4413 35.0254 12.3725 35.1899 12.2501 35.3112C12.1277 35.4325 11.9617 35.5006 11.7885 35.5006ZM34.3035 35.5006H32.2126C32.0395 35.5006 31.8735 35.4325 31.7511 35.3112C31.6287 35.1899 31.5599 35.0254 31.5599 34.8539C31.5599 34.6824 31.6287 34.5178 31.7511 34.3966C31.8735 34.2753 32.0395 34.2071 32.2126 34.2071H34.3035C34.4766 34.2071 34.6427 34.2753 34.7651 34.3966C34.8875 34.5178 34.9562 34.6824 34.9562 34.8539C34.9562 35.0254 34.8875 35.1899 34.7651 35.3112C34.6427 35.4325 34.4766 35.5006 34.3035 35.5006ZM22.0005 25.3819C21.8274 25.3819 21.6614 25.3138 21.539 25.1925C21.4166 25.0712 21.3478 24.9067 21.3478 24.7351V22.6634C21.3478 22.4918 21.4166 22.3273 21.539 22.206C21.6614 22.0847 21.8274 22.0166 22.0005 22.0166C22.1737 22.0166 22.3397 22.0847 22.4621 22.206C22.5845 22.3273 22.6533 22.4918 22.6533 22.6634V24.7351C22.6533 24.8201 22.6364 24.9042 22.6036 24.9827C22.5708 25.0611 22.5227 25.1324 22.4621 25.1925C22.4015 25.2526 22.3295 25.3002 22.2503 25.3327C22.1711 25.3652 22.0863 25.3819 22.0005 25.3819ZM22.0005 47.6911C21.8274 47.6911 21.6614 47.6229 21.539 47.5017C21.4166 47.3804 21.3478 47.2159 21.3478 47.0443V44.9725C21.3478 44.801 21.4166 44.6365 21.539 44.5152C21.6614 44.3939 21.8274 44.3258 22.0005 44.3258C22.1737 44.3258 22.3397 44.3939 22.4621 44.5152C22.5845 44.6365 22.6533 44.801 22.6533 44.9725V47.0443C22.6533 47.1293 22.6364 47.2134 22.6036 47.2918C22.5708 47.3703 22.5227 47.4416 22.4621 47.5017C22.4015 47.5617 22.3295 47.6094 22.2503 47.6419C22.1711 47.6744 22.0863 47.6911 22.0005 47.6911Z" fill="#756E78"/>
<path d="M28.3734 30.7843C29.4545 30.7843 30.3308 29.916 30.3308 28.8448C30.3308 27.7736 29.4545 26.9053 28.3734 26.9053C27.2924 26.9053 26.416 27.7736 26.416 28.8448C26.416 29.916 27.2924 30.7843 28.3734 30.7843Z" fill="white"/>
<path d="M21.9996 47.6901C14.8559 47.6901 9.04395 41.9313 9.04395 34.8528C9.04395 27.7743 14.8559 22.0156 21.9996 22.0156C29.1434 22.0156 34.9554 27.7744 34.9554 34.8529C34.9554 41.9314 29.1434 47.6901 21.9996 47.6901ZM21.9996 23.3091C15.5757 23.3091 10.3495 28.4876 10.3495 34.8528C10.3495 41.218 15.5757 46.3965 21.9996 46.3965C28.4236 46.3965 33.6498 41.218 33.6498 34.8528C33.6498 28.4876 28.4236 23.3091 21.9996 23.3091Z" fill="#61A2F9"/>
<defs>
<linearGradient id="paint0_linear_868_363" x1="40.2637" y1="26.961" x2="58.2526" y2="44.8023" gradientUnits="userSpaceOnUse">
<stop stop-color="#FFE177"/>
<stop offset="1" stop-color="#FE9738"/>
</linearGradient>
<linearGradient id="paint1_linear_868_363" x1="54.4145" y1="41.2291" x2="40.4232" y2="27.3526" gradientUnits="userSpaceOnUse">
<stop stop-color="#FFE177"/>
<stop offset="1" stop-color="#FE9738"/>
</linearGradient>
<linearGradient id="paint2_linear_868_363" x1="15.0316" y1="28.1862" x2="29.7657" y2="42.7995" gradientUnits="userSpaceOnUse">
<stop stop-color="#537983"/>
<stop offset="1" stop-color="#3E5959"/>
</linearGradient>
<linearGradient id="paint3_linear_868_363" x1="27.9789" y1="41.2407" x2="14.4313" y2="27.8042" gradientUnits="userSpaceOnUse">
<stop stop-color="#537983"/>
<stop offset="1" stop-color="#3E5959"/>
</linearGradient>
<linearGradient id="paint4_linear_868_363" x1="16.4044" y1="29.5701" x2="25.537" y2="38.6278" gradientUnits="userSpaceOnUse">
<stop stop-color="white"/>
<stop offset="1" stop-color="#EEF5F6"/>
</linearGradient>
<linearGradient id="paint5_linear_868_363" x1="25.6102" y1="37.067" x2="6.37397" y2="25.2902" gradientUnits="userSpaceOnUse">
<stop stop-color="#3E5959" stop-opacity="0"/>
<stop offset="0.815" stop-color="#394C4C" stop-opacity="0.815"/>
<stop offset="1" stop-color="#384949"/>
</linearGradient>
<linearGradient id="paint6_linear_868_363" x1="15.8711" y1="34.0449" x2="22.8994" y2="34.0449" gradientUnits="userSpaceOnUse">
<stop stop-color="#FFE177"/>
<stop offset="1" stop-color="#FE9738"/>
</linearGradient>
<linearGradient id="paint7_linear_868_363" x1="19.6982" y1="22.1523" x2="23.8543" y2="22.1523" gradientUnits="userSpaceOnUse">
<stop stop-color="#FFE177"/>
<stop offset="1" stop-color="#FE9738"/>
</linearGradient>
<linearGradient id="paint8_linear_868_363" x1="20.7508" y1="33.9526" x2="22.9926" y2="36.176" gradientUnits="userSpaceOnUse">
<stop stop-color="#FE99A0"/>
<stop offset="1" stop-color="#FD4755"/>
</linearGradient>
<linearGradient id="paint9_linear_868_363" x1="24.9883" y1="10.2539" x2="44.6466" y2="10.2539" gradientUnits="userSpaceOnUse">
<stop stop-color="#C1E9AF"/>
<stop offset="1" stop-color="#4FC123"/>
</linearGradient>
<linearGradient id="paint10_linear_868_363" x1="24.9883" y1="51.583" x2="44.6465" y2="51.583" gradientUnits="userSpaceOnUse">
<stop stop-color="#C1E9AF"/>
<stop offset="1" stop-color="#4FC123"/>
</linearGradient>
</defs>
</svg>
