<svg width="50" height="50" viewBox="0 0 50 50" fill="none" xmlns="http://www.w3.org/2000/svg">
<path d="M0.830078 37.6953H13.623C14.082 37.6953 14.4531 38.0664 14.4531 38.5254V49.1699C14.4531 49.6289 14.082 50 13.623 50H0.830078C0.371094 50 0 49.6289 0 49.1699V38.5254C0 38.0664 0.371094 37.6953 0.830078 37.6953Z" fill="url(#paint0_linear_849_4456)"/>
<path d="M2.49023 47.8223H11.9531C12.2656 47.8223 12.5098 48.0762 12.5098 48.3789C12.5098 48.6914 12.2559 48.9355 11.9531 48.9355H2.49023C2.17773 48.9355 1.93359 48.6816 1.93359 48.3789C1.93359 48.0762 2.1875 47.8223 2.49023 47.8223ZM2.49023 45.4883H6.77734C7.08984 45.4883 7.33398 45.7422 7.33398 46.0449C7.33398 46.3574 7.08008 46.6016 6.77734 46.6016H2.49023C2.17773 46.6016 1.93359 46.3477 1.93359 46.0449C1.93359 45.7422 2.1875 45.4883 2.49023 45.4883Z" fill="white"/>
<path d="M2.49023 43.7627H11.9531C12.2656 43.7627 12.5098 44.0166 12.5098 44.3193C12.5098 44.6318 12.2559 44.876 11.9531 44.876H2.49023C2.17773 44.876 1.93359 44.6221 1.93359 44.3193C1.93359 44.0166 2.1875 43.7627 2.49023 43.7627ZM2.49023 41.4287H6.77734C7.08984 41.4287 7.33398 41.6826 7.33398 41.9854C7.33398 42.2979 7.08008 42.542 6.77734 42.542H2.49023C2.17773 42.542 1.93359 42.2881 1.93359 41.9854C1.93359 41.6826 2.1875 41.4287 2.49023 41.4287Z" fill="white"/>
<path d="M18.6035 37.6953H31.3965C31.8555 37.6953 32.2266 38.0664 32.2266 38.5254V49.1699C32.2266 49.6289 31.8555 50 31.3965 50H18.6035C18.1445 50 17.7734 49.6289 17.7734 49.1699V38.5254C17.7734 38.0664 18.1445 37.6953 18.6035 37.6953Z" fill="url(#paint1_linear_849_4456)"/>
<path d="M20.2637 47.8223H26.8262C27.1387 47.8223 27.3828 48.0762 27.3828 48.3789C27.3828 48.6914 27.1289 48.9355 26.8262 48.9355H20.2637C19.9512 48.9355 19.707 48.6816 19.707 48.3789C19.707 48.0762 19.9609 47.8223 20.2637 47.8223ZM20.2637 45.4883H29.7266C30.0391 45.4883 30.2832 45.7422 30.2832 46.0449C30.2832 46.3574 30.0293 46.6016 29.7266 46.6016H20.2637C19.9512 46.6016 19.707 46.3477 19.707 46.0449C19.707 45.7422 19.9609 45.4883 20.2637 45.4883Z" fill="white"/>
<path d="M20.2637 43.7627H26.8262C27.1387 43.7627 27.3828 44.0166 27.3828 44.3193C27.3828 44.6318 27.1289 44.876 26.8262 44.876H20.2637C19.9512 44.876 19.707 44.6221 19.707 44.3193C19.707 44.0166 19.9609 43.7627 20.2637 43.7627ZM20.2637 41.4287H29.7266C30.0391 41.4287 30.2832 41.6826 30.2832 41.9854C30.2832 42.2979 30.0293 42.542 29.7266 42.542H20.2637C19.9512 42.542 19.707 42.2881 19.707 41.9854C19.707 41.6826 19.9609 41.4287 20.2637 41.4287Z" fill="white"/>
<path d="M36.377 37.6953H49.1699C49.6289 37.6953 50 38.0664 50 38.5254V49.1699C50 49.6289 49.6289 50 49.1699 50H36.377C35.918 50 35.5469 49.6289 35.5469 49.1699V38.5254C35.5469 38.0664 35.918 37.6953 36.377 37.6953Z" fill="url(#paint2_linear_849_4456)"/>
<path d="M38.0371 47.8223H47.5C47.8125 47.8223 48.0566 48.0762 48.0566 48.3789C48.0566 48.6914 47.8027 48.9355 47.5 48.9355H38.0371C37.7246 48.9355 37.4805 48.6816 37.4805 48.3789C37.4805 48.0762 37.7344 47.8223 38.0371 47.8223ZM38.0371 45.4883H42.3242C42.6367 45.4883 42.8809 45.7422 42.8809 46.0449C42.8809 46.3574 42.627 46.6016 42.3242 46.6016H38.0371C37.7246 46.6016 37.4805 46.3477 37.4805 46.0449C37.4805 45.7422 37.7344 45.4883 38.0371 45.4883Z" fill="white"/>
<path d="M38.0371 43.7627H47.5C47.8125 43.7627 48.0566 44.0166 48.0566 44.3193C48.0566 44.6318 47.8027 44.876 47.5 44.876H38.0371C37.7246 44.876 37.4805 44.6221 37.4805 44.3193C37.4805 44.0166 37.7344 43.7627 38.0371 43.7627ZM38.0371 41.4287H42.3242C42.6367 41.4287 42.8809 41.6826 42.8809 41.9854C42.8809 42.2979 42.627 42.542 42.3242 42.542H38.0371C37.7246 42.542 37.4805 42.2881 37.4805 41.9854C37.4805 41.6826 37.7344 41.4287 38.0371 41.4287Z" fill="white"/>
<path d="M45.3421 33.6035H44.8245V31.3672C44.8245 30.7813 44.346 30.3027 43.7601 30.3027H6.23079C5.64485 30.3027 5.16633 30.7813 5.16633 31.3672V33.6035H4.65852C4.13118 33.6035 3.81868 34.1895 4.11165 34.6191L5.52766 36.7578C5.56672 36.8164 5.61555 36.8652 5.66438 36.9141C5.89876 37.0996 6.25032 37.0996 6.48469 36.9141C6.53352 36.875 6.58235 36.8262 6.62141 36.7578L8.03743 34.6191C8.3304 34.1797 8.00813 33.6035 7.49055 33.6035H6.98274V32.7734C6.98274 32.4023 7.28547 32.0996 7.65657 32.0996H42.3636C42.7347 32.0996 43.0374 32.4023 43.0374 32.7734V33.6035H42.5296C42.0023 33.6035 41.6898 34.1895 41.9827 34.6191L43.3988 36.7578C43.4378 36.8164 43.4866 36.8652 43.5355 36.9141C43.7698 37.0996 44.1214 37.0996 44.3558 36.9141C44.4046 36.875 44.4534 36.8262 44.4925 36.7578L45.9085 34.6191C46.1722 34.1895 45.8597 33.6035 45.3421 33.6035Z" fill="white"/>
<path d="M26.4163 33.0854H25.9085V20.1362C25.9085 20.019 25.8304 19.9214 25.723 19.8921C25.596 19.8628 25.4593 19.8237 25.3323 19.7749C25.1273 19.7065 24.9124 19.7065 24.7073 19.7749C24.5706 19.814 24.4437 19.853 24.307 19.8921C24.1995 19.9214 24.1214 20.019 24.1214 20.1362V33.0854H23.6136C23.0863 33.0854 22.7738 33.6714 23.0667 34.1011L24.4827 36.2397C24.5218 36.2983 24.5706 36.3472 24.6195 36.396C24.8538 36.5815 25.2054 36.5815 25.4398 36.396C25.4886 36.3569 25.5374 36.3081 25.5765 36.2397L26.9925 34.1011C27.2464 33.6714 26.9339 33.0854 26.4163 33.0854Z" fill="white"/>
<path d="M15.0547 7H34.6543C35.2305 7 35.709 7.46875 35.709 8.05469V21.541C35.709 22.1172 35.2402 22.5957 34.6543 22.5957H15.0547C14.4785 22.5957 14 22.127 14 21.541V8.04492C14.0098 7.46875 14.4785 7 15.0547 7Z" fill="url(#paint3_linear_849_4456)"/>
<path d="M29.2297 13.8224L28.4648 13.7252C28.4024 13.533 28.325 13.3461 28.2332 13.1661L28.7056 12.5578C28.798 12.441 28.8439 12.2942 28.8348 12.1457C28.8256 11.9971 28.762 11.8571 28.656 11.7525L28.0151 11.1117C27.9105 11.0051 27.7702 10.9408 27.6212 10.9313C27.4721 10.9218 27.3248 10.9676 27.2074 11.06L26.5999 11.5324C26.4198 11.4406 26.2328 11.3632 26.0404 11.3009L25.9432 10.5371C25.9255 10.3891 25.8542 10.2528 25.7428 10.1538C25.6314 10.0549 25.4876 10.0001 25.3385 10H24.4271C24.1191 10 23.859 10.2307 23.8224 10.5359L23.7252 11.3009C23.5328 11.363 23.3457 11.4404 23.1657 11.5324L22.5578 11.06C22.4409 10.9678 22.2942 10.922 22.1457 10.9311C21.9971 10.9403 21.8572 11.0038 21.7525 11.1096L21.1117 11.7501C21.005 11.8547 20.9407 11.9951 20.9311 12.1442C20.9216 12.2934 20.9675 12.4408 21.06 12.5582L21.5324 13.1661C21.4405 13.346 21.3631 13.533 21.3009 13.7252L20.5371 13.8224C20.2307 13.859 20 14.1191 20 14.4271V15.3385C20 15.6466 20.2307 15.9066 20.5359 15.9432L21.3009 16.0404C21.3639 16.2345 21.4417 16.4217 21.5324 16.5995L21.06 17.2078C20.9677 17.3246 20.9217 17.4714 20.9309 17.62C20.94 17.7685 21.0037 17.9085 21.1096 18.0131L21.7505 18.654C21.8553 18.7603 21.9955 18.8244 22.1445 18.8338C22.2935 18.8433 22.4408 18.7975 22.5582 18.7052L23.1661 18.2328C23.3439 18.324 23.5311 18.4017 23.7252 18.4644L23.8224 19.2277C23.859 19.5349 24.1191 19.7656 24.4271 19.7656H25.3385C25.6466 19.7656 25.9066 19.5349 25.9432 19.2297L26.0404 18.4648C26.2326 18.4024 26.4195 18.325 26.5995 18.2332L27.2078 18.7056C27.454 18.8969 27.8015 18.8745 28.0131 18.656L28.654 18.0151C28.7606 17.9105 28.8248 17.7702 28.8343 17.6212C28.8439 17.4721 28.798 17.3248 28.7056 17.2074L28.2332 16.5995C28.3244 16.4217 28.4021 16.2345 28.4648 16.0404L29.2281 15.9432C29.3761 15.9255 29.5124 15.8542 29.6114 15.7428C29.7104 15.6314 29.7651 15.4876 29.7652 15.3385V14.4271C29.7653 14.2783 29.7109 14.1346 29.6122 14.0232C29.5135 13.9117 29.3775 13.8403 29.2297 13.8224ZM24.8828 16.9173C23.761 16.9173 22.8483 16.0046 22.8483 14.8828C22.8483 13.761 23.761 12.8483 24.8828 12.8483C26.0046 12.8483 26.9173 13.761 26.9173 14.8828C26.9173 16.0046 26.0046 16.9173 24.8828 16.9173Z" fill="white"/>
<defs>
<linearGradient id="paint0_linear_849_4456" x1="5.97402" y1="40.3187" x2="9.42852" y2="50.0476" gradientUnits="userSpaceOnUse">
<stop stop-color="#BBEC6C"/>
<stop offset="0.198" stop-color="#B5E665"/>
<stop offset="0.48" stop-color="#A4D552"/>
<stop offset="0.812" stop-color="#89BA33"/>
<stop offset="1" stop-color="#78A91F"/>
</linearGradient>
<linearGradient id="paint1_linear_849_4456" x1="23.7474" y1="40.3187" x2="27.2018" y2="50.0476" gradientUnits="userSpaceOnUse">
<stop stop-color="#FEF0AE"/>
<stop offset="1" stop-color="#FAC600"/>
</linearGradient>
<linearGradient id="paint2_linear_849_4456" x1="41.5206" y1="40.3187" x2="44.9751" y2="50.0476" gradientUnits="userSpaceOnUse">
<stop stop-color="#FD4755"/>
<stop offset="1" stop-color="#A72B2B"/>
</linearGradient>
<linearGradient id="paint3_linear_849_4456" x1="7.71652" y1="-2.2899" x2="27.8047" y2="23.0837" gradientUnits="userSpaceOnUse">
<stop stop-color="#C8EFFE"/>
<stop offset="0.103" stop-color="#C0EDFD"/>
<stop offset="0.258" stop-color="#ABEAFD"/>
<stop offset="0.447" stop-color="#89E5FD"/>
<stop offset="0.661" stop-color="#5ADDFC"/>
<stop offset="0.895" stop-color="#1ED4FB"/>
<stop offset="1" stop-color="#01D0FB"/>
</linearGradient>
</defs>
</svg>
