<svg width="52" height="52" viewBox="0 0 52 52" fill="none" xmlns="http://www.w3.org/2000/svg">
<path d="M1.08301 11.917H50.9163V40.0837H1.08301V11.917Z" fill="#A5EB63"/>
<path d="M50.9163 11.917V37.917H30.333C23.4374 37.917 16.8242 35.1777 11.9482 30.3018C7.07229 25.4258 4.33301 18.8126 4.33301 11.917H50.9163Z" fill="#BFFF82"/>
<path d="M43.333 36.8337H8.66634C8.37902 36.8337 8.10347 36.7195 7.90031 36.5164C7.69714 36.3132 7.58301 36.0376 7.58301 35.7503C7.58301 35.1757 7.35473 34.6246 6.94841 34.2183C6.54208 33.8119 5.99098 33.5837 5.41634 33.5837C5.12902 33.5837 4.85347 33.4695 4.65031 33.2664C4.44714 33.0632 4.33301 32.7876 4.33301 32.5003V19.5003C4.33301 19.213 4.44714 18.9375 4.65031 18.7343C4.85347 18.5311 5.12902 18.417 5.41634 18.417C5.99098 18.417 6.54208 18.1887 6.94841 17.7824C7.35473 17.3761 7.58301 16.825 7.58301 16.2503C7.58301 15.963 7.69714 15.6875 7.90031 15.4843C8.10347 15.2811 8.37902 15.167 8.66634 15.167H43.333C43.6203 15.167 43.8959 15.2811 44.099 15.4843C44.3022 15.6875 44.4163 15.963 44.4163 16.2503C44.4163 16.825 44.6446 17.3761 45.0509 17.7824C45.4573 18.1887 46.0084 18.417 46.583 18.417C46.8703 18.417 47.1459 18.5311 47.349 18.7343C47.5522 18.9375 47.6663 19.213 47.6663 19.5003V32.5003C47.6663 32.7876 47.5522 33.0632 47.349 33.2664C47.1459 33.4695 46.8703 33.5837 46.583 33.5837C46.0084 33.5837 45.4573 33.8119 45.0509 34.2183C44.6446 34.6246 44.4163 35.1757 44.4163 35.7503C44.4163 36.0376 44.3022 36.3132 44.099 36.5164C43.8959 36.7195 43.6203 36.8337 43.333 36.8337ZM9.60884 34.667H42.3905C42.5843 33.9185 42.9747 33.2355 43.5214 32.6888C44.0682 32.1421 44.7512 31.7516 45.4997 31.5578V20.4428C44.7512 20.2491 44.0682 19.8586 43.5214 19.3119C42.9747 18.7652 42.5843 18.0822 42.3905 17.3337H9.60884C9.41509 18.0822 9.02461 18.7652 8.4779 19.3119C7.93119 19.8586 7.24817 20.2491 6.49967 20.4428V31.5578C7.24817 31.7516 7.93119 32.1421 8.4779 32.6888C9.02461 33.2355 9.41509 33.9185 9.60884 34.667Z" fill="#71BB1A"/>
<path d="M10.0637 25.2307C10.1647 25.1297 10.2846 25.0496 10.4166 24.9949C10.5486 24.9402 10.69 24.9121 10.8329 24.9121C10.9757 24.9121 11.1172 24.9402 11.2492 24.9949C11.3811 25.0496 11.501 25.1297 11.602 25.2307C11.7031 25.3317 11.7832 25.4516 11.8378 25.5836C11.8925 25.7156 11.9206 25.857 11.9206 25.9999C11.9206 26.1427 11.8925 26.2842 11.8378 26.4161C11.7832 26.5481 11.7031 26.668 11.602 26.769C11.3981 26.973 11.1214 27.0876 10.8329 27.0876C10.5444 27.0876 10.2677 26.973 10.0637 26.769C9.85972 26.565 9.74512 26.2884 9.74512 25.9999C9.74512 25.7114 9.85972 25.4347 10.0637 25.2307ZM41.1662 27.0832C40.9885 27.0822 40.8138 27.0374 40.6575 26.953C40.5011 26.8685 40.368 26.7468 40.2698 26.5988C40.1715 26.4507 40.1112 26.2807 40.0942 26.1038C40.0771 25.9269 40.1039 25.7486 40.172 25.5845C40.2401 25.4204 40.3476 25.2755 40.4849 25.1627C40.6222 25.05 40.7852 24.9727 40.9594 24.9377C41.1337 24.9028 41.3138 24.9112 41.484 24.9623C41.6542 25.0134 41.8092 25.1056 41.9354 25.2307C42.0882 25.3822 42.1924 25.5758 42.2347 25.7868C42.277 25.9978 42.2556 26.2166 42.173 26.4153C42.0905 26.614 41.9507 26.7837 41.7714 26.9027C41.5921 27.0216 41.3814 27.0845 41.1662 27.0832Z" fill="#71BB1A"/>
<path d="M37.9167 8.66654C12.2092 8.66654 13.4767 8.94821 13.0867 7.99487C12.6967 7.04154 13.0867 7.07404 17.6475 2.48071C17.8515 2.27671 18.1282 2.16211 18.4167 2.16211C18.7052 2.16211 18.9819 2.27671 19.1859 2.48071C19.3898 2.6847 19.5045 2.96138 19.5045 3.24988C19.5045 3.53837 19.3898 3.81505 19.1859 4.01904L16.6942 6.49988H37.9167C38.204 6.49988 38.4796 6.61401 38.6827 6.81718C38.8859 7.02034 39 7.29589 39 7.58321C39 7.87053 38.8859 8.14608 38.6827 8.34924C38.4796 8.55241 38.204 8.66654 37.9167 8.66654Z" fill="#FF7B6C"/>
<path d="M35.3058 45.4997L32.8141 47.9806C32.6101 48.1846 32.4955 48.4612 32.4955 48.7497C32.4955 49.0382 32.6101 49.3149 32.8141 49.5189C33.0181 49.7229 33.2948 49.8375 33.5833 49.8375C33.8718 49.8375 34.1485 49.7229 34.3525 49.5189C38.9133 44.9256 39.3033 44.9581 38.9133 44.0047C38.5233 43.0514 39.7908 43.3331 14.0833 43.3331C13.796 43.3331 13.5204 43.4472 13.3173 43.6504C13.1141 43.8535 13 44.1291 13 44.4164C13 44.7037 13.1141 44.9793 13.3173 45.1824C13.5204 45.3856 13.796 45.4997 14.0833 45.4997H35.3058Z" fill="#1DBC60"/>
<path d="M35.75 26C35.7413 27.7932 35.2431 29.55 34.3092 31.0808C29.25 39.455 16.25 35.815 16.25 26C16.25 23.4141 17.2772 20.9342 19.1057 19.1057C20.9342 17.2772 23.4141 16.25 26 16.25C28.5859 16.25 31.0658 17.2772 32.8943 19.1057C34.7228 20.9342 35.75 23.4141 35.75 26Z" fill="#71BB1A"/>
<path d="M24.916 21.667V19.5003C24.916 19.213 25.0302 18.9375 25.2333 18.7343C25.4365 18.5311 25.712 18.417 25.9993 18.417C26.2867 18.417 26.5622 18.5311 26.7654 18.7343C26.9685 18.9375 27.0827 19.213 27.0827 19.5003V21.667C27.0827 21.9543 26.9685 22.2299 26.7654 22.433C26.5622 22.6362 26.2867 22.7503 25.9993 22.7503C25.712 22.7503 25.4365 22.6362 25.2333 22.433C25.0302 22.2299 24.916 21.9543 24.916 21.667ZM24.916 32.5003V30.3337C24.916 30.0463 25.0302 29.7708 25.2333 29.5676C25.4365 29.3645 25.712 29.2503 25.9993 29.2503C26.2867 29.2503 26.5622 29.3645 26.7654 29.5676C26.9685 29.7708 27.0827 30.0463 27.0827 30.3337V32.5003C27.0827 32.7876 26.9685 33.0632 26.7654 33.2664C26.5622 33.4695 26.2867 33.5837 25.9993 33.5837C25.712 33.5837 25.4365 33.4695 25.2333 33.2664C25.0302 33.0632 24.916 32.7876 24.916 32.5003Z" fill="#DEFFBE"/>
<path d="M27.0827 31.4173H22.7493C22.462 31.4173 22.1865 31.3032 21.9833 31.1C21.7802 30.8969 21.666 30.6213 21.666 30.334C21.666 30.0467 21.7802 29.7711 21.9833 29.568C22.1865 29.3648 22.462 29.2507 22.7493 29.2507H27.0827C27.37 29.2507 27.6456 29.1365 27.8487 28.9334C28.0519 28.7302 28.166 28.4546 28.166 28.1673C28.166 27.88 28.0519 27.6044 27.8487 27.4013C27.6456 27.1981 27.37 27.084 27.0827 27.084H24.916C24.0541 27.084 23.2274 26.7416 22.6179 26.1321C22.0084 25.5226 21.666 24.6959 21.666 23.834C21.666 22.972 22.0084 22.1454 22.6179 21.5359C23.2274 20.9264 24.0541 20.584 24.916 20.584H29.2493C29.5367 20.584 29.8122 20.6981 30.0154 20.9013C30.2185 21.1044 30.3327 21.38 30.3327 21.6673C30.3327 21.9546 30.2185 22.2302 30.0154 22.4334C29.8122 22.6365 29.5367 22.7507 29.2493 22.7507H24.916C24.6287 22.7507 24.3531 22.8648 24.15 23.068C23.9468 23.2711 23.8327 23.5467 23.8327 23.834C23.8327 24.1213 23.9468 24.3969 24.15 24.6C24.3531 24.8032 24.6287 24.9173 24.916 24.9173H27.0827C27.9446 24.9173 28.7713 25.2597 29.3808 25.8692C29.9903 26.4787 30.3327 27.3054 30.3327 28.1673C30.3327 29.0293 29.9903 29.8559 29.3808 30.4654C28.7713 31.0749 27.9446 31.4173 27.0827 31.4173Z" fill="#DEFFBE"/>
</svg>
