<svg width="32" height="33" viewBox="0 0 32 33" fill="none" xmlns="http://www.w3.org/2000/svg">
<path d="M16.001 0.00102524C7.16145 0.00102524 0 7.34903 0 16.4051C0 23.6567 4.58429 29.8031 10.9377 31.9716C11.7407 32.1264 12.0308 31.6189 12.0308 31.1801C12.0308 30.7905 12.0218 29.7601 12.0158 28.3924C7.56247 29.3807 6.62441 26.1871 6.62441 26.1871C5.89537 24.2965 4.8433 23.789 4.8433 23.789C3.39521 22.775 4.95831 22.7966 4.95831 22.7966C6.56241 22.9083 7.40646 24.4831 7.40646 24.4831C8.83355 26.9929 11.1507 26.267 12.0678 25.8446C12.2078 24.7876 12.6248 24.0607 13.0788 23.6557C9.5266 23.2446 5.79136 21.8349 5.79136 15.549C5.79136 13.7538 6.4114 12.2918 7.43646 11.1435C7.25945 10.7324 6.71742 9.06121 7.57747 6.80154C7.57747 6.80154 8.91656 6.36376 11.9777 8.48399C13.2588 8.12002 14.6189 7.93855 15.978 7.92932C17.3381 7.93855 18.6972 8.12105 19.9782 8.48399C23.0214 6.36376 24.3595 6.80154 24.3595 6.80154C25.2186 9.06121 24.6765 10.7313 24.5205 11.1435C25.5356 12.2918 26.1556 13.7548 26.1556 15.549C26.1556 21.8492 22.4154 23.2384 18.8592 23.6393C19.4152 24.1304 19.9362 25.1403 19.9362 26.673C19.9362 28.8671 19.9162 30.6346 19.9162 31.1688C19.9162 31.5953 20.1963 32.1079 21.0203 31.9429C27.4207 29.797 32 23.6455 32 16.4041C32 7.34801 24.8386 0 15.999 0L16.001 0.00102524Z" fill="black"/>
<path d="M19.3463 23.547C19.9302 24.0574 20.4766 25.1075 20.4766 26.7009C20.4766 28.9828 20.4545 30.8201 20.4545 31.3755C20.4545 31.782 21 31.5 22 31.5C22.7935 31.5 18.1087 33 16.3468 33C14.5849 33 12.5696 32.4948 11 32C11.5856 31.9775 12 31.5 12 31.5C12 31.1107 12.0068 29.9221 12 28.5C7.32879 29.5277 6.51237 26.1957 6.51237 26.1957C5.74803 24.2304 4.64491 23.7027 4.64491 23.7027C3.12643 22.6491 4.76578 22.6699 4.76578 22.6699C6.44769 22.7875 7.3329 24.4241 7.3329 24.4241C9 26.7009 11.0382 25.9394 12 25.5C12.1481 24.4014 12.5 24 13.1141 23.7027C9.38941 23.2754 5.63908 21.6699 5.63908 15.1355C5.63908 13.2687 6.28937 11.748 7.36525 10.5543C7.17969 10.127 6.61111 8.38827 7.51335 6.03885C7.51335 6.03885 8.91778 5.58385 12.1284 7.78794C13.4715 7.41079 14.8981 7.22048 16.3246 7.21183C17.7512 7.22048 19.1761 7.41079 20.5192 7.78794C23.7128 5.58385 25.1155 6.03885 25.1155 6.03885C26.0161 8.38827 25.4475 10.1252 25.284 10.5543C26.3497 11.748 27 13.2687 27 15.1355C27 21.6855 23.0761 23.13 19.3463 23.547Z" fill="white"/>
</svg>
