<svg width="32" height="32" viewBox="0 0 32 32" fill="none" xmlns="http://www.w3.org/2000/svg">
<path d="M2.18182 28.0057H7.27273V15.642L0 10.1875V25.8239C0 27.0293 0.976364 28.0057 2.18182 28.0057Z" fill="#4285F4"/>
<path d="M24.7275 28.0057H29.8184C31.0239 28.0057 32.0003 27.0293 32.0003 25.8239V10.1875L24.7275 15.642V28.0057Z" fill="#34A853"/>
<path d="M24.7275 6.1877V15.6422L32.0003 10.1877V7.27861C32.0003 4.58224 28.9221 3.04224 26.7639 4.66042L24.7275 6.1877Z" fill="#FBBC04"/>
<path fill-rule="evenodd" clip-rule="evenodd" d="M7.27246 15.642V6.1875L15.9997 12.733L24.727 6.1875V15.642L15.9997 22.1875L7.27246 15.642Z" fill="#EA4335"/>
<path d="M0 7.27861V10.1877L7.27273 15.6422V6.1877L5.23636 4.66042C3.07818 3.04224 0 4.58224 0 7.27861Z" fill="#C5221F"/>
</svg>
