<svg width="20" height="21" viewBox="0 0 20 21" fill="none" xmlns="http://www.w3.org/2000/svg">
<g clip-path="url(#clip0_837_3887)">
<path d="M13.9138 4.62193C12.8954 4.57194 11.6813 5.04687 10.6721 6.42165L10.0013 7.32984L9.32961 6.42165C8.31961 5.04687 7.10461 4.57194 6.08627 4.62193C5.05044 4.68026 4.12877 5.27183 3.66127 6.21335C3.20127 7.14654 3.13377 8.52965 4.06044 10.2294C4.95544 11.8708 6.77461 13.7872 10.0013 15.7369C13.2263 13.7872 15.0446 11.8708 15.9396 10.2294C16.8654 8.52965 16.7979 7.14654 16.3371 6.21335C15.8696 5.27183 14.9488 4.68026 13.9138 4.62193ZM17.4029 11.0293C16.2771 13.0956 14.0688 15.2953 10.4204 17.4199L10.0013 17.6699L9.58127 17.4199C5.93211 15.2953 3.72377 13.0956 2.59627 11.0293C1.46294 8.94625 1.42127 6.9799 2.16794 5.4718C2.90711 3.98037 4.37377 3.04718 6.00211 2.96386C7.37794 2.88887 8.80877 3.43045 10.0004 4.6386C11.1913 3.43045 12.6221 2.88887 13.9971 2.96386C15.6254 3.04718 17.0921 3.98037 17.8313 5.4718C18.5779 6.9799 18.5363 8.94625 17.4029 11.0293Z" fill="#555D69"/>
<path d="M17.4029 11.0305C16.2771 13.0972 14.0688 15.2972 10.4204 17.4222L10.0013 17.6722L9.58127 17.4222C5.93211 15.2972 3.72377 13.0972 2.59627 11.0305C1.46294 8.94719 1.42127 6.98053 2.16794 5.47219C2.90711 3.98053 4.37377 3.04719 6.00211 2.96386C7.37794 2.88886 8.80877 3.43053 10.0004 4.63886C11.1913 3.43053 12.6221 2.88886 13.9971 2.96386C15.6254 3.04719 17.0921 3.98053 17.8313 5.47219C18.5779 6.98053 18.5363 8.94719 17.4029 11.0305Z" fill="#F91880"/>
</g>
<defs>
<clipPath id="clip0_837_3887">
<rect width="20" height="19.9969" fill="white" transform="translate(0 0.0390625)"/>
</clipPath>
</defs>
</svg>
