<svg width="32" height="32" viewBox="0 0 32 32" fill="none" xmlns="http://www.w3.org/2000/svg">
<path d="M21.369 21.3384C20.8313 22.8988 19.854 24.1502 18.6773 25.2819C17.2837 26.6229 15.9232 27.9983 14.5652 29.3757C13.2009 30.7587 11.5697 31.6059 9.65586 31.9224C9.52081 31.9449 9.3645 31.8747 9.24946 32.0007H7.49943C7.47442 31.9161 7.4019 31.9437 7.34563 31.9362C5.46805 31.6767 3.84558 30.8991 2.50195 29.5543C2.50258 29.4609 2.56635 29.4052 2.62512 29.3463C3.61174 28.3593 4.59836 27.373 5.58497 26.386C5.65125 26.3196 5.71314 26.2469 5.81818 26.2444C7.46317 27.7471 9.80529 27.5754 11.304 25.9931C12.8052 24.409 14.3845 22.8994 15.9301 21.3572C16.0451 21.3165 16.1039 21.2137 16.1783 21.1291C16.7304 20.4994 17.0449 19.758 17.0967 18.9309C17.1674 17.8023 16.8298 16.8059 16.0026 16.0026C15.997 15.9819 15.9913 15.9618 15.9851 15.9412C16.0351 15.9055 16.092 15.8766 16.1351 15.8334C17.1361 14.8345 18.1365 13.8344 19.135 12.8324C19.185 12.7823 19.2188 12.7165 19.26 12.6582C19.367 12.7535 19.4833 12.8406 19.5795 12.9465C20.3748 13.8175 20.9669 14.8095 21.3408 15.9293C21.3577 16.0095 21.3677 16.0922 21.3915 16.1699C21.7879 17.4608 21.8704 18.7711 21.6297 20.0996C21.5546 20.515 21.4565 20.9261 21.369 21.339V21.3384Z" fill="#445454"/>
<path d="M21.3699 21.3376C21.4575 20.9246 21.5556 20.5135 21.6307 20.0981C21.8707 18.7696 21.7882 17.4593 21.3924 16.1684C21.3687 16.0901 21.3581 16.008 21.3418 15.9278C23.0274 14.2453 24.7362 12.5853 26.388 10.8708C27.1427 10.0875 27.3934 9.08301 27.2696 7.98952C27.1733 7.14105 26.7994 6.43295 26.248 5.80255C27.0796 4.9616 27.913 4.12253 28.7414 3.27844C29.0028 3.01212 29.2916 2.77274 29.5155 2.4707C30.392 3.27218 30.9941 4.25913 31.4293 5.35074C31.6988 6.02626 31.8851 6.72747 31.9432 7.4575C31.947 7.50074 31.9564 7.53834 32.002 7.55463V9.3675C31.902 9.80615 31.8138 10.2486 31.7 10.6834C31.3424 12.0495 30.674 13.2533 29.6861 14.2553C27.9167 16.05 26.1292 17.8271 24.326 19.588C23.4895 20.4045 22.476 20.9566 21.3712 21.337L21.3699 21.3376Z" fill="#F6AC1D"/>
<path d="M5.81841 26.2436C5.71337 26.2461 5.65147 26.3188 5.5852 26.3852C4.59858 27.3722 3.61197 28.3591 2.62535 29.3455C2.56658 29.4044 2.5028 29.4601 2.50218 29.5535C1.27547 28.3334 0.49831 26.8721 0.152557 25.1783C0.105664 24.9508 0.128173 24.7071 0 24.4978C0 23.8937 0 23.289 0 22.6849C0.0900334 22.2632 0.163186 21.8364 0.273852 21.4204C0.648366 20.0048 1.32862 18.754 2.36275 17.7125C4.1159 15.9473 5.8703 14.1827 7.64596 12.4406C8.48815 11.6147 9.4929 11.03 10.6227 10.6729C10.6133 10.723 10.6077 10.7744 10.5933 10.8232C10.2976 11.8484 10.1506 12.8855 10.2363 13.9583C10.2938 14.6771 10.457 15.3689 10.6396 16.0607C9.06211 17.6336 7.48403 19.2064 5.90657 20.7799C4.3066 22.3754 4.27096 24.598 5.81841 26.2442V26.2436Z" fill="#58757C"/>
<path d="M10.6404 16.0605C10.4578 15.3693 10.294 14.6775 10.2371 13.9581C10.1514 12.8853 10.2984 11.8482 10.5941 10.823C10.6085 10.7741 10.6141 10.7227 10.6235 10.6726C10.903 10.0134 11.1749 9.35103 11.5738 8.74946C11.9146 8.23561 12.301 7.76125 12.7374 7.32699C14.4255 5.64509 16.0924 3.94125 17.8062 2.28629C21.0149 -0.81244 26.2887 -0.747896 29.4567 2.39846C29.4786 2.41977 29.4955 2.44671 29.5143 2.47115C29.2904 2.77257 29.0016 3.01257 28.7402 3.27889C27.9118 4.12298 27.0784 4.96205 26.2468 5.803C24.6137 4.18689 22.1434 4.43254 20.6891 5.99538C19.4574 7.31884 18.1375 8.55959 16.8589 9.83856C16.5876 10.1099 16.3237 10.3894 16.0561 10.6651C15.7598 10.9057 15.5541 11.2172 15.3734 11.5462C14.5881 12.9768 14.8619 14.9331 15.9855 15.9408C15.9911 15.9615 15.9967 15.9815 16.003 16.0022C14.987 17.0242 13.971 18.0463 12.9569 19.0696C12.8718 19.1554 12.7543 19.2225 12.7468 19.3654C12.4329 19.0621 12.1522 18.7293 11.8865 18.3834C11.3438 17.6772 10.978 16.877 10.641 16.0605H10.6404Z" fill="#F9D908"/>
<path d="M7.62259 6.7074C7.66073 7.14166 7.44878 7.42866 7.07864 7.56464C6.72538 7.69436 6.35399 7.67368 6.06139 7.39169C5.60497 6.95179 5.15355 6.50687 4.71839 6.04692C4.36013 5.66843 4.37701 5.08565 4.72714 4.73285C5.09665 4.36 5.64185 4.32867 6.03825 4.69776C6.51718 5.1433 6.97297 5.61391 7.42689 6.08577C7.59008 6.25496 7.65885 6.47742 7.62259 6.70802V6.7074Z" fill="#E2DCDA"/>
<path d="M12.6234 4.24185C12.1895 4.24185 11.8437 4.01626 11.7099 3.57636C11.5173 2.9422 11.3485 2.30052 11.2003 1.65445C11.1103 1.25967 11.3441 0.720134 11.9287 0.58478C12.3351 0.490784 12.8472 0.729534 12.9804 1.16129C13.1873 1.83367 13.398 2.50731 13.5156 3.20351C13.6044 3.72926 13.1548 4.2431 12.6234 4.24248V4.24185Z" fill="#E2DCDA"/>
<path d="M4.24885 12.6095C4.25322 13.1772 3.68301 13.6397 3.12906 13.5037C2.52571 13.3552 1.92486 13.196 1.32589 13.0299C0.793813 12.8827 0.468067 12.3851 0.593114 11.9327C0.761301 11.3223 1.18271 11.0754 1.80356 11.2327C2.38628 11.38 2.96712 11.5323 3.54734 11.6896C3.97875 11.8067 4.24634 12.1645 4.24947 12.6095H4.24885Z" fill="#E2DCDA"/>
<path d="M25.3109 24.3686C25.5698 24.3398 25.8018 24.4551 26.0025 24.6575C26.4195 25.078 26.8471 25.4878 27.2554 25.9164C27.7862 26.4735 27.5612 27.2994 26.8284 27.52C26.4682 27.6284 26.1675 27.4837 25.9199 27.2512C25.4735 26.832 25.0446 26.3933 24.6182 25.9534C24.3168 25.6432 24.2962 25.2629 24.4394 24.8825C24.58 24.509 24.8845 24.3549 25.3109 24.3686Z" fill="#D9CECB"/>
<path d="M19.3041 27.7348C19.8362 27.7642 20.142 27.9717 20.2658 28.3608C20.4696 29.0006 20.6571 29.6492 20.801 30.3046C20.9172 30.836 20.5852 31.2778 20.045 31.4132C19.623 31.5191 19.1378 31.2277 18.9947 30.7458C18.8002 30.0916 18.6283 29.4305 18.457 28.77C18.355 28.379 18.8446 27.6771 19.3048 27.7348H19.3041Z" fill="#D8CECA"/>
<path d="M27.75 19.3996C27.75 18.7754 28.2952 18.3399 28.9036 18.4941C29.525 18.6514 30.1459 18.8118 30.7599 18.9954C31.2513 19.1426 31.5264 19.6415 31.397 20.0839C31.2288 20.6585 30.8011 20.9154 30.2328 20.7719C29.6313 20.6196 29.0311 20.4642 28.4334 20.2982C28.0176 20.1829 27.7506 19.8182 27.7506 19.3996H27.75Z" fill="#D8CECA"/>
<path d="M15.931 21.3572C14.8881 20.9599 13.9153 20.4423 13.0812 19.6885C12.9662 19.5845 12.858 19.4729 12.7461 19.3651C12.7536 19.2223 12.8711 19.1552 12.9562 19.0694C13.9703 18.0454 14.9869 17.024 16.0023 16.002C16.8295 16.8047 17.1677 17.8017 17.0965 18.9302C17.0446 19.758 16.7307 20.4993 16.178 21.1285C16.1042 21.2131 16.0448 21.3159 15.9298 21.3566L15.931 21.3572Z" fill="#F5AC1D"/>
<path d="M16.0546 10.665C17.2869 11.0648 18.3636 11.7153 19.2589 12.6578C19.2176 12.716 19.1832 12.7818 19.1338 12.832C18.1353 13.834 17.135 14.8341 16.134 15.8329C16.0908 15.8756 16.0346 15.905 15.9839 15.9407C14.8604 14.9331 14.5865 12.9767 15.3718 11.5461C15.5525 11.2171 15.7582 10.9057 16.0546 10.665Z" fill="#58757C"/>
</svg>
