<svg width="3440" height="1000" viewBox="0 0 3440 1000" fill="none" xmlns="http://www.w3.org/2000/svg">
<path d="M535 979.793C513.342 992.297 486.658 992.297 465 979.793L101.987 770.207C80.3292 757.703 66.9873 734.594 66.9873 709.586L66.9872 290.415C66.9872 265.406 80.3292 242.297 101.987 229.793L465 20.2073C486.658 7.70299 513.342 7.70298 535 20.2073L898.013 229.793C919.671 242.297 933.013 265.406 933.013 290.414L933.013 709.585C933.013 734.594 919.671 757.703 898.013 770.207L535 979.793Z" fill="url(#paint0_linear_2_887)"/>
<path d="M476.921 401.463L324.561 315.521C324.561 315.521 286.285 300.359 320.944 282.299L468.968 200.693C468.968 200.693 489.183 183.35 519.506 200.693L669.711 283.017C669.711 283.017 704.37 296.024 665.375 316.239C626.381 336.454 515.888 397.845 515.888 397.845C515.888 397.845 497.375 413.007 476.894 401.463L476.921 401.463Z" fill="white"/>
<path d="M470.85 616.958L267.686 502.369C267.686 502.369 216.669 482.153 262.871 458.081L460.263 349.291C460.263 349.291 487.235 326.176 527.665 349.291L727.93 459.065C727.93 459.065 774.133 476.408 722.158 503.353C670.157 530.324 522.851 612.143 522.851 612.143C522.851 612.143 498.167 632.359 470.85 616.958Z" fill="white" fill-opacity="0.7"/>
<path d="M465.982 799.042L201.88 650.087C201.88 650.087 135.542 623.808 195.629 592.5L452.231 451.046C452.231 451.046 487.288 421.016 539.848 451.046L800.2 593.751C800.2 593.751 860.287 616.28 792.699 651.338C725.111 686.395 533.597 792.792 533.597 792.792C533.597 792.792 501.519 819.072 466.009 799.042L465.982 799.042Z" fill="white" fill-opacity="0.5"/>
<path d="M1313 672V595.5H1381C1398 595.5 1413.33 593 1427 588C1440.67 582.667 1452.33 575.333 1462 566C1471.67 556.333 1479 544.833 1484 531.5C1489 517.833 1491.5 502.833 1491.5 486.5C1491.5 469.5 1489 454.333 1484 441C1479 427.667 1471.67 416.333 1462 407C1452.33 397.667 1440.67 390.667 1427 386C1413.33 381 1398 378.5 1381 378.5H1313V302H1376.5C1409.5 302 1438.33 306.833 1463 316.5C1487.67 326.167 1508.33 339.333 1525 356C1541.67 372.667 1554 391.833 1562 413.5C1570.33 434.833 1574.5 457.333 1574.5 481V492C1574.5 514 1570.33 535.833 1562 557.5C1554 578.833 1541.67 598.167 1525 615.5C1508.33 632.5 1487.67 646.167 1463 656.5C1438.33 666.833 1409.5 672 1376.5 672H1313ZM1241 672V302H1323V672H1241ZM1752.63 679.5C1729.29 679.5 1708.63 675.5 1690.63 667.5C1672.96 659.5 1658.13 648.833 1646.13 635.5C1634.46 621.833 1625.46 606.667 1619.13 590C1613.13 573 1610.13 555.667 1610.13 538V528C1610.13 509.667 1613.13 492.167 1619.13 475.5C1625.46 458.5 1634.46 443.333 1646.13 430C1657.79 416.667 1672.29 406.167 1689.63 398.5C1707.29 390.5 1727.29 386.5 1749.63 386.5C1778.96 386.5 1803.63 393.167 1823.63 406.5C1843.96 419.5 1859.46 436.667 1870.13 458C1880.79 479 1886.13 502 1886.13 527V554H1643.63V508.5H1837.63L1811.63 529.5C1811.63 513.167 1809.29 499.167 1804.63 487.5C1799.96 475.833 1792.96 467 1783.63 461C1774.63 454.667 1763.29 451.5 1749.63 451.5C1735.63 451.5 1723.79 454.667 1714.13 461C1704.46 467.333 1697.13 476.667 1692.13 489C1687.13 501 1684.63 515.833 1684.63 533.5C1684.63 549.833 1686.96 564.167 1691.63 576.5C1696.29 588.5 1703.63 597.833 1713.63 604.5C1723.63 611.167 1736.63 614.5 1752.63 614.5C1767.29 614.5 1779.29 611.667 1788.63 606C1797.96 600.333 1804.29 593.333 1807.63 585H1881.13C1877.13 603.333 1869.29 619.667 1857.63 634C1845.96 648.333 1831.29 659.5 1813.63 667.5C1795.96 675.5 1775.63 679.5 1752.63 679.5ZM1944.64 670V390.5C1944.64 358.833 1953.47 335.333 1971.14 320C1989.14 304.667 2015.64 297 2050.64 297H2077.64V357H2047.14C2038.14 357 2031.14 359.5 2026.14 364.5C2021.47 369.5 2019.14 376.5 2019.14 385.5V670H1944.64ZM1912.64 457V398.5H2076.64V457H1912.64ZM2130.64 670V396H2210.64V670H2130.64ZM2098.14 455V396H2210.64V455H2098.14ZM2161.64 369C2146.64 369 2135.47 365.167 2128.14 357.5C2121.14 349.5 2117.64 339.5 2117.64 327.5C2117.64 315.167 2121.14 305.167 2128.14 297.5C2135.47 289.5 2146.64 285.5 2161.64 285.5C2176.97 285.5 2188.14 289.5 2195.14 297.5C2202.14 305.167 2205.64 315.167 2205.64 327.5C2205.64 339.5 2202.14 349.5 2195.14 357.5C2188.14 365.167 2176.97 369 2161.64 369ZM2289.34 670V305H2371.34V670H2289.34ZM2361.34 670V598H2514.34V670H2361.34ZM2685.73 679.5C2662.4 679.5 2641.73 675.5 2623.73 667.5C2606.06 659.5 2591.23 648.833 2579.23 635.5C2567.56 621.833 2558.56 606.667 2552.23 590C2546.23 573 2543.23 555.667 2543.23 538V528C2543.23 509.667 2546.23 492.167 2552.23 475.5C2558.56 458.5 2567.56 443.333 2579.23 430C2590.9 416.667 2605.4 406.167 2622.73 398.5C2640.4 390.5 2660.4 386.5 2682.73 386.5C2712.06 386.5 2736.73 393.167 2756.73 406.5C2777.06 419.5 2792.56 436.667 2803.23 458C2813.9 479 2819.23 502 2819.23 527V554H2576.73V508.5H2770.73L2744.73 529.5C2744.73 513.167 2742.4 499.167 2737.73 487.5C2733.06 475.833 2726.06 467 2716.73 461C2707.73 454.667 2696.4 451.5 2682.73 451.5C2668.73 451.5 2656.9 454.667 2647.23 461C2637.56 467.333 2630.23 476.667 2625.23 489C2620.23 501 2617.73 515.833 2617.73 533.5C2617.73 549.833 2620.06 564.167 2624.73 576.5C2629.4 588.5 2636.73 597.833 2646.73 604.5C2656.73 611.167 2669.73 614.5 2685.73 614.5C2700.4 614.5 2712.4 611.667 2721.73 606C2731.06 600.333 2737.4 593.333 2740.73 585H2814.23C2810.23 603.333 2802.4 619.667 2790.73 634C2779.06 648.333 2764.4 659.5 2746.73 667.5C2729.06 675.5 2708.73 679.5 2685.73 679.5ZM2872.24 670V396H2935.74V513.5H2931.24C2931.24 485.5 2934.74 462.167 2941.74 443.5C2949.08 424.833 2960.08 410.833 2974.74 401.5C2989.41 392.167 3007.24 387.5 3028.24 387.5H3031.74C3063.74 387.5 3088.08 398 3104.74 419C3121.74 439.667 3130.24 471.167 3130.24 513.5V670H3050.24V509C3050.24 494.333 3045.91 482.333 3037.24 473C3028.58 463.667 3016.91 459 3002.24 459C2987.24 459 2975.08 463.833 2965.74 473.5C2956.74 482.833 2952.24 495.167 2952.24 510.5V670H2872.24ZM3302.41 678.5C3263.41 678.5 3232.91 670.5 3210.91 654.5C3188.91 638.5 3177.25 616 3175.91 587H3246.91C3248.25 595.667 3253.41 603.5 3262.41 610.5C3271.75 617.167 3285.58 620.5 3303.91 620.5C3317.91 620.5 3329.41 618.167 3338.41 613.5C3347.75 608.5 3352.41 601.5 3352.41 592.5C3352.41 584.5 3348.91 578.167 3341.91 573.5C3334.91 568.5 3322.41 565 3304.41 563L3282.91 561C3249.91 557.667 3225.08 548.5 3208.41 533.5C3192.08 518.5 3183.91 499.333 3183.91 476C3183.91 456.667 3188.75 440.5 3198.41 427.5C3208.08 414.5 3221.41 404.667 3238.41 398C3255.75 391.333 3275.41 388 3297.41 388C3332.75 388 3361.25 395.833 3382.91 411.5C3404.58 426.833 3415.91 449.167 3416.91 478.5H3345.91C3344.58 469.5 3339.91 462 3331.91 456C3323.91 449.667 3312.08 446.5 3296.41 446.5C3284.08 446.5 3274.25 448.833 3266.91 453.5C3259.58 458.167 3255.91 464.5 3255.91 472.5C3255.91 480.167 3259.08 486 3265.41 490C3271.75 494 3282.08 496.833 3296.41 498.5L3317.91 500.5C3351.58 504.167 3377.75 513.5 3396.41 528.5C3415.08 543.5 3424.41 563.667 3424.41 589C3424.41 607.333 3419.41 623.333 3409.41 637C3399.41 650.333 3385.25 660.667 3366.91 668C3348.58 675 3327.08 678.5 3302.41 678.5Z" fill="#1E1E1E"/>
<defs>
<linearGradient id="paint0_linear_2_887" x1="823.915" y1="973.53" x2="260.046" y2="115.866" gradientUnits="userSpaceOnUse">
<stop offset="0.0658166" stop-color="#7339FD"/>
<stop offset="0.6013" stop-color="#56B0F6"/>
<stop offset="1" stop-color="#4DD4F4"/>
</linearGradient>
</defs>
</svg>
