<svg width="27" height="27" viewBox="0 0 27 27" fill="none" xmlns="http://www.w3.org/2000/svg">
<path d="M9.99568 2.55069L9.80656 2.09411C9.96458 2.02865 10.134 1.99496 10.305 1.99496H16.7025C16.8736 1.99496 17.0429 2.02865 17.2009 2.09411C17.359 2.15957 17.5026 2.25551 17.6235 2.37646C17.7445 2.4974 17.8404 2.64099 17.9059 2.79902C17.9713 2.95704 18.005 3.12641 18.005 3.29746V4.90246V5.40246H17.505H9.5025H9.0025V4.90246V3.29746C9.0025 3.12642 9.03619 2.95705 9.10165 2.79902L9.99568 2.55069ZM9.99568 2.55069L9.80655 2.09411C9.64853 2.15957 9.50494 2.25551 9.38399 2.37645C9.26305 2.4974 9.16711 2.64099 9.10165 2.79901L9.99568 2.55069ZM2.5975 14.0025H3.0975H9.495H9.995V14.5025C9.995 15.0064 10.1952 15.4896 10.5515 15.846C10.9078 16.2023 11.3911 16.4025 11.895 16.4025H15.0964C15.6002 16.4 16.0827 16.1992 16.4394 15.8434L16.4403 15.8426C16.6171 15.6671 16.7573 15.4584 16.853 15.2285C16.9486 14.9986 16.9977 14.7519 16.9975 14.5029L16.9971 14.0025H17.4975H23.895H24.395V14.5025V20.1039V20.105L2.5975 14.0025ZM2.5975 14.0025V14.5025V20.105C2.5975 20.8741 2.90304 21.6117 3.44689 22.1556C3.99075 22.6994 4.72837 23.005 5.4975 23.005H21.5021M2.5975 14.0025L21.5021 23.005M21.5021 23.005H21.5025V22.505L21.5021 23.005ZM18.6025 4.90246V5.40246H19.1025L20.6992 5.40246C20.6993 5.40246 20.6994 5.40246 20.6995 5.40246C21.8395 5.40432 22.9323 5.858 23.7384 6.66409C24.5445 7.47026 24.9982 8.56315 25 9.70324V20.0975C25 21.0251 24.6315 21.9147 23.9756 22.5706C23.3197 23.2265 22.4301 23.595 21.5025 23.595H5.4975C4.56991 23.595 3.6803 23.2265 3.02439 22.5706C2.36849 21.9147 2 21.0251 2 20.0975V9.70287C2.00188 8.56291 2.45555 7.47017 3.26163 6.66409C4.06773 5.858 5.1605 5.40432 6.30048 5.40246C6.30058 5.40246 6.30068 5.40246 6.30078 5.40246L7.8975 5.40246H8.3975V4.90246V3.29746C8.3975 2.79355 8.59768 2.31028 8.954 1.95396C9.31032 1.59764 9.79359 1.39746 10.2975 1.39746H16.7025C17.2064 1.39746 17.6897 1.59764 18.046 1.95396C18.4023 2.31028 18.6025 2.79355 18.6025 3.29746V4.90246ZM23.9025 13.405H24.4025V12.905V9.70246C24.4025 8.7205 24.0124 7.77875 23.3181 7.0844C22.6237 6.39005 21.682 5.99996 20.7 5.99996H6.3C5.31804 5.99996 4.37629 6.39005 3.68194 7.0844C2.98758 7.77875 2.5975 8.7205 2.5975 9.70246V12.905V13.405H3.0975H9.495H9.995V12.905V12.1025C9.995 12.0222 10.0269 11.9453 10.0836 11.8886L9.73005 11.535L10.0836 11.8886C10.1403 11.8318 10.2173 11.8 10.2975 11.8H16.695C16.7752 11.8 16.8522 11.8318 16.9089 11.8886L17.2625 11.535L16.9089 11.8886C16.9656 11.9453 16.9975 12.0222 16.9975 12.1025V12.905V13.405H17.4975H23.9025ZM16.4 12.8975V12.3975H15.9H11.1H10.6V12.8975V14.495C10.6 14.8404 10.7372 15.1717 10.9815 15.416C11.2258 15.6602 11.5571 15.7975 11.9025 15.7975H15.0975C15.4429 15.7975 15.7742 15.6602 16.0185 15.416C16.2628 15.1717 16.4 14.8404 16.4 14.495V12.8975Z" stroke="#976BFE"/>
</svg>
