<svg width="28" height="27" viewBox="0 0 28 27" fill="none" xmlns="http://www.w3.org/2000/svg">
<path d="M6.80172 4.58672L6.79385 4.59094C6.77246 4.6024 6.75259 4.61348 6.73414 4.62414C6.76094 4.63958 6.78645 4.6532 6.80903 4.66466C6.82058 4.67052 6.83377 4.67713 6.84824 4.68438C6.91372 4.71719 7.00544 4.76315 7.09041 4.81244L13.4893 8.52419L13.4897 8.52443L13.4894 8.52492L13.2312 8.96998L13.2312 8.96999L13.1927 9.03634L6.80172 4.58672ZM6.80172 4.58672L6.80949 4.58232L12.2391 1.50406C12.394 1.41626 12.546 1.32061 12.6816 1.23529C12.6935 1.22781 12.7053 1.22041 12.7169 1.21311C12.8673 1.11854 12.9996 1.03641 13.13 0.965114C13.3921 0.821757 13.5878 0.756274 13.7633 0.750377C13.9477 0.744177 14.2135 0.784115 14.5558 0.985427L14.5558 0.985537L14.5678 0.992321L20.3627 4.25844C20.4988 4.33514 20.6389 4.39974 20.7512 4.4512C20.7577 4.45421 20.7642 4.45717 20.7706 4.4601C20.8827 4.51148 20.9689 4.55101 21.0487 4.59362C21.0591 4.59916 21.069 4.60455 21.0783 4.60978C21.0142 4.65397 20.9312 4.70488 20.8249 4.76154C19.2266 5.61362 14.8638 8.10348 14.4431 8.34374L14.4431 8.34374C14.3774 8.38126 14.3275 8.41818 14.3011 8.43783C14.2632 8.46594 14.1368 8.55047 13.975 8.59167C13.835 8.6273 13.6814 8.62958 13.5079 8.53533L6.80172 4.58672ZM13.1133 8.42347C12.8091 8.42347 12.5854 8.59209 12.4655 8.79742L12.4633 8.79611C12.5842 8.58138 12.8093 8.42347 13.1133 8.42347Z" stroke="#976BFE" stroke-width="1.5"/>
<path d="M4.30868 12.3265L4.31653 12.3223L4.32429 12.3179L11.868 8.04238C12.035 7.94774 12.1966 7.84642 12.3429 7.75448L12.3544 7.74728C12.5008 7.6553 12.6323 7.57264 12.7642 7.49672C13.0352 7.34081 13.2597 7.24248 13.4765 7.2026C13.7948 7.14408 14.2774 7.15599 14.9048 7.52486L14.9048 7.52496L14.9167 7.53167L22.8537 12.0057C22.9786 12.0761 23.1039 12.1386 23.2144 12.193C23.2315 12.2015 23.2481 12.2097 23.2645 12.2177C23.3587 12.2641 23.4408 12.3045 23.5215 12.3473C23.6771 12.4299 23.7859 12.5009 23.8658 12.5725C23.8517 12.5877 23.8344 12.605 23.8132 12.6245C23.7097 12.7197 23.5356 12.8458 23.2544 12.9957L23.2543 12.9958C21.5017 13.9306 17.2526 16.3434 15.4956 17.3438C15.3477 17.4281 15.2058 17.5172 15.0766 17.5991C15.0575 17.6112 15.0386 17.6232 15.0201 17.635C14.9094 17.7052 14.8086 17.7692 14.7064 17.8303C14.4686 17.9725 14.271 18.0689 14.0791 18.1198C13.833 18.1852 13.5452 18.1904 13.23 18.0077L5.13746 13.3139C4.98976 13.2282 4.825 13.142 4.6799 13.0661C4.61611 13.0327 4.55612 13.0014 4.50305 12.9729C4.30977 12.8692 4.15292 12.7763 4.01927 12.6732C3.97817 12.6415 3.94594 12.6129 3.92141 12.5883C3.98488 12.5275 4.10237 12.4371 4.30868 12.3265Z" stroke="#976BFE" stroke-width="1.5"/>
<path d="M1.43149 18.2413L1.43937 18.2371L1.44715 18.2327L11.5259 12.5191C11.7022 12.4192 11.9145 12.2864 12.1051 12.1671C12.2259 12.0915 12.338 12.0213 12.4266 11.9686C12.704 11.8033 12.9459 11.6814 13.1869 11.6107C13.6604 11.4716 14.4255 11.4144 15.4264 12.0025L15.4263 12.0026L15.4381 12.0092L25.9446 17.9314C26.0905 18.0136 26.2611 18.0999 26.4099 18.1752C26.4846 18.213 26.5538 18.2481 26.6117 18.2784C26.8122 18.3836 26.9698 18.4777 27.0999 18.5833L27.5696 18.0049L27.0999 18.5833C27.1848 18.6523 27.2283 18.7074 27.2457 18.7391C27.2462 18.74 27.2466 18.7409 27.247 18.7417C27.2252 18.7976 27.0787 19.0777 26.2728 19.5075C23.872 20.7881 17.8529 24.2112 15.8401 25.3584C15.6687 25.4561 15.4919 25.568 15.3343 25.6677C15.2708 25.7079 15.2103 25.7461 15.1546 25.7807C14.9442 25.9111 14.7607 26.0157 14.577 26.0929C14.1645 26.2663 13.6134 26.3623 13.0235 26.0202C13.0151 26.0154 13.0066 26.0106 12.998 26.0061L2.32201 19.8141C2.15238 19.7157 1.97506 19.6224 1.81448 19.538C1.77023 19.5147 1.72726 19.4921 1.68606 19.4703C1.4857 19.364 1.31064 19.2668 1.15106 19.1603C1.01801 19.0716 0.906325 18.9792 0.830352 18.8922C0.776318 18.8304 0.757905 18.7916 0.752045 18.7763C0.75686 18.7647 0.767991 18.7438 0.792283 18.712C0.868073 18.6129 1.04692 18.4474 1.43149 18.2413ZM0.748828 18.7878C0.748519 18.7879 0.74865 18.7858 0.750149 18.7813C0.74989 18.7855 0.749139 18.7877 0.748828 18.7878Z" stroke="#976BFE" stroke-width="1.5"/>
</svg>
