<svg width="25" height="25" viewBox="0 0 25 25" fill="none" xmlns="http://www.w3.org/2000/svg">
<path d="M25 24.224C25 24.4298 24.9182 24.6272 24.7727 24.7727C24.6272 24.9182 24.4298 25 24.2241 25H0.775949C0.570154 25 0.372788 24.9182 0.22727 24.7727C0.0817509 24.6272 0 24.4298 0 24.224V0.775952C0 0.570157 0.0817509 0.37279 0.22727 0.227271C0.372788 0.081752 0.570154 0 0.775949 0C0.981743 0 1.17911 0.081752 1.32463 0.227271C1.47014 0.37279 1.5519 0.570157 1.5519 0.775952V18.6769L4.82029 15.1876C4.95314 15.0458 5.13436 14.959 5.32813 14.9443C5.5219 14.9297 5.71411 14.9883 5.86675 15.1086L7.30624 16.2426L12.4352 9.57505C12.5015 9.48886 12.5852 9.41758 12.6809 9.36583C12.7766 9.31407 12.882 9.283 12.9905 9.27464C13.0989 9.26627 13.2079 9.28079 13.3104 9.31725C13.4129 9.35371 13.5065 9.41131 13.5853 9.4863L16.7918 12.5401L20.8066 5.48239C20.6277 5.50985 20.4449 5.47396 20.2897 5.38093C20.1345 5.28789 20.0167 5.14356 19.9567 4.97288C19.8966 4.8022 19.8981 4.6159 19.9608 4.44618C20.0235 4.27646 20.1436 4.13399 20.3002 4.04339L22.4557 2.79896C22.5736 2.73082 22.7074 2.69494 22.8436 2.69493C22.9799 2.69491 23.1137 2.73076 23.2317 2.79887C23.3496 2.86697 23.4476 2.96494 23.5157 3.08291C23.5838 3.20089 23.6196 3.33471 23.6196 3.47093V5.95979C23.6197 6.13708 23.5591 6.30907 23.4479 6.44713C23.3367 6.58519 23.1815 6.681 23.0083 6.71862C22.835 6.75623 22.6541 6.73339 22.4957 6.65388C22.3372 6.57437 22.2107 6.443 22.1373 6.28162L17.6499 14.1701C17.5917 14.2726 17.5108 14.3604 17.4135 14.4269C17.3163 14.4934 17.2051 14.5369 17.0885 14.554C16.9719 14.5713 16.853 14.5617 16.7407 14.526C16.6283 14.4904 16.5256 14.4296 16.4403 14.3483L13.1394 11.2046L8.05764 17.811C7.99506 17.8924 7.91695 17.9605 7.82785 18.0115C7.73875 18.0624 7.64042 18.0952 7.53856 18.1079C7.4367 18.1206 7.33334 18.1129 7.23445 18.0854C7.13557 18.0579 7.04313 18.011 6.96249 17.9475L5.46588 16.7684L1.59254 20.9034C1.57954 20.9173 1.56557 20.9297 1.5518 20.9425V23.4482H24.2239C24.3258 23.4482 24.4267 23.4682 24.5208 23.5072C24.615 23.5462 24.7006 23.6033 24.7726 23.6754C24.8447 23.7474 24.9019 23.8329 24.9409 23.9271C24.9799 24.0212 25 24.1221 25 24.224ZM21.925 16.402C21.9931 16.5199 22.029 16.6537 22.029 16.7899C22.029 16.9262 21.9931 17.06 21.925 17.1779L19.785 20.8846C19.717 21.0026 19.619 21.1006 19.5011 21.1688C19.3831 21.2369 19.2493 21.2728 19.1131 21.2728C18.9768 21.2728 18.843 21.2369 18.7251 21.1688C18.6071 21.1006 18.5092 21.0026 18.4411 20.8846L16.301 17.1779C16.2329 17.06 16.1971 16.9262 16.1971 16.79C16.1971 16.6537 16.2329 16.5199 16.301 16.402C16.3691 16.284 16.4671 16.1861 16.585 16.118C16.703 16.0499 16.8368 16.014 16.973 16.014H21.253C21.3892 16.014 21.523 16.0499 21.641 16.118C21.759 16.1861 21.8569 16.284 21.925 16.402ZM19.9091 17.5659H18.3169L19.1131 18.9448L19.9091 17.5659ZM5.80953 7.40617C5.74142 7.28821 5.70557 7.1544 5.70557 7.01819C5.70557 6.88198 5.74142 6.74818 5.80953 6.63022L7.9495 2.9235C8.01756 2.8055 8.1155 2.7075 8.23346 2.63937C8.35142 2.57123 8.48524 2.53536 8.62147 2.53536C8.75769 2.53536 8.89151 2.57123 9.00947 2.63937C9.12743 2.7075 9.22537 2.8055 9.29344 2.9235L11.4335 6.63022C11.5016 6.74818 11.5375 6.88198 11.5375 7.01819C11.5375 7.15439 11.5016 7.2882 11.4335 7.40616C11.3654 7.52412 11.2675 7.62207 11.1495 7.69018C11.0315 7.75829 10.8977 7.79414 10.7615 7.79414H6.4815C6.34529 7.79416 6.21148 7.75831 6.09352 7.69021C5.97556 7.6221 5.87761 7.52414 5.80953 7.40617ZM7.82544 6.24224H9.41759L8.62147 4.86337L7.82544 6.24224Z" fill="#976BFE"/>
</svg>
