<svg width="47" height="47" viewBox="0 0 47 47" fill="none" xmlns="http://www.w3.org/2000/svg">
<path fill-rule="evenodd" clip-rule="evenodd" d="M18.7907 10.8605C18.659 10.8605 18.53 10.8232 18.4186 10.7527C18.3073 10.6823 18.2183 10.5817 18.162 10.4626L16.3745 6.6853L13.4103 8.08803C13.3278 8.12705 13.2384 8.14944 13.1472 8.15392C13.056 8.15839 12.9648 8.14486 12.8789 8.1141C12.7929 8.08334 12.7139 8.03595 12.6463 7.97465C12.5786 7.91334 12.5237 7.83931 12.4847 7.75678C12.4457 7.67425 12.4233 7.58485 12.4188 7.49367C12.4143 7.40249 12.4279 7.31133 12.4586 7.22538C12.4894 7.13943 12.5368 7.06038 12.5981 6.99274C12.6594 6.9251 12.7334 6.87021 12.8159 6.83118L16.4082 5.13122C16.5749 5.0524 16.766 5.04298 16.9396 5.10502C17.1132 5.16707 17.255 5.2955 17.3339 5.46209L19.4188 9.86772C19.469 9.97366 19.4916 10.0906 19.4845 10.2076C19.4774 10.3246 19.4408 10.4379 19.3781 10.537C19.3154 10.6361 19.2287 10.7177 19.126 10.7742C19.0233 10.8308 18.908 10.8605 18.7907 10.8605Z" fill="#976BFE"/>
<path fill-rule="evenodd" clip-rule="evenodd" d="M20.6019 10.8613H4.08084C3.92003 10.8612 3.75973 10.8431 3.60297 10.8073L3.6001 10.8067C3.57241 10.8004 3.54487 10.7934 3.51751 10.7858C3.49336 10.7794 3.46939 10.7724 3.44563 10.7647C3.43277 10.7609 3.41998 10.7568 3.40726 10.7525L3.40215 10.7508C3.33436 10.7277 3.26768 10.7015 3.20233 10.6723C3.19864 10.6707 3.19498 10.669 3.19137 10.6672L3.18763 10.6656C3.16003 10.6529 3.13274 10.6396 3.10578 10.6256C3.05398 10.599 3.00339 10.5701 2.95417 10.539C2.93423 10.5268 2.91458 10.5142 2.89525 10.5011C2.87774 10.4896 2.8605 10.4776 2.84355 10.4652C2.83208 10.4573 2.82078 10.449 2.80967 10.4406C2.76486 10.4075 2.72147 10.3725 2.67961 10.3358C2.65856 10.3175 2.64049 10.3008 2.62629 10.2877C2.5905 10.2547 2.55605 10.2202 2.52302 10.1844C2.37094 10.0218 2.24526 9.83643 2.15053 9.63494L2.1453 9.62373L2.14244 9.61726L2.13845 9.60878C2.10892 9.54343 2.08265 9.47666 2.05972 9.40871L2.05835 9.40448C2.05398 9.39145 2.04979 9.37837 2.04577 9.36524C2.03954 9.34568 2.03206 9.32114 2.02471 9.29336C2.02035 9.27764 2.01624 9.26186 2.01238 9.24602C2.00124 9.20046 1.9914 9.1546 1.98285 9.10849C1.96047 8.98349 1.94921 8.85676 1.94922 8.72977C1.94922 8.15996 2.17109 7.62441 2.57397 7.22216C2.77132 7.02355 3.00614 6.8661 3.26481 6.75894C3.52348 6.65178 3.80085 6.59705 4.08084 6.59791H7.2006C7.29188 6.59791 7.38227 6.61589 7.46661 6.65082C7.55095 6.68575 7.62758 6.73696 7.69213 6.80151C7.75668 6.86605 7.80788 6.94269 7.84282 7.02702C7.87775 7.11136 7.89573 7.20175 7.89573 7.29304C7.89573 7.38433 7.87775 7.47472 7.84282 7.55906C7.80788 7.64339 7.75668 7.72002 7.69213 7.78457C7.62758 7.84912 7.55095 7.90033 7.46661 7.93526C7.38227 7.97019 7.29188 7.98817 7.2006 7.98817H4.08084C3.98349 7.98785 3.88706 8.00686 3.79711 8.04409C3.70717 8.08132 3.62551 8.13603 3.55687 8.20506C3.48767 8.27373 3.4328 8.35547 3.39546 8.44552C3.35812 8.53558 3.33905 8.63216 3.33936 8.72965C3.33931 8.77714 3.34378 8.82453 3.35269 8.87117L3.35394 8.87715C3.35695 8.89133 3.36023 8.90545 3.36378 8.91951L3.36627 8.92835L3.36901 8.93869L3.372 8.94803L3.37649 8.96261L3.37698 8.96398C3.38464 8.98607 3.39308 9.00788 3.40227 9.02938L3.41074 9.04794C3.41324 9.05317 3.4156 9.05828 3.41834 9.06339C3.42956 9.08519 3.43865 9.10138 3.447 9.11422C3.45024 9.1192 3.45335 9.12431 3.45646 9.12954L3.4597 9.1349C3.46244 9.13876 3.46369 9.14063 3.46618 9.14461L3.4693 9.14935L3.48101 9.16554C3.48512 9.17102 3.4896 9.17688 3.49359 9.18248L3.49458 9.18373L3.50031 9.19095L3.50704 9.1993L3.51526 9.20902L3.52311 9.21799C3.52872 9.22447 3.53445 9.2307 3.5403 9.2368L3.54354 9.24029C3.54765 9.24477 3.55214 9.24926 3.5565 9.25362C3.56086 9.25798 3.56534 9.26246 3.56983 9.26657L3.57332 9.26981C3.58239 9.27849 3.59174 9.28689 3.60135 9.29498L3.61081 9.30307C3.61355 9.30544 3.6163 9.30768 3.61916 9.3098L3.62589 9.31516L3.62751 9.3164L3.64482 9.32923L3.66077 9.3407L3.66476 9.34331L3.67572 9.35066L3.68107 9.35403L3.69602 9.36324C3.70885 9.37147 3.72505 9.38056 3.74548 9.39115C3.75183 9.39451 3.75719 9.397 3.76217 9.39937L3.78086 9.40797L3.78846 9.41133L3.7988 9.41557C3.81456 9.42177 3.83043 9.4277 3.84639 9.43338L3.84751 9.43375L3.86208 9.43824L3.87317 9.44173L3.88077 9.44372L3.89061 9.44634L3.91104 9.45132L3.93297 9.45618L3.93895 9.45742L3.94518 9.45855C3.98928 9.46664 4.03487 9.47075 4.08059 9.47075L19.9065 9.47088V7.98793H17.4321C17.2478 7.98793 17.071 7.91469 16.9406 7.78432C16.8102 7.65396 16.737 7.47715 16.737 7.29279C16.737 7.10843 16.8102 6.93162 16.9406 6.80126C17.071 6.67089 17.2478 6.59766 17.4321 6.59766H20.6016C20.786 6.59766 20.9628 6.67089 21.0931 6.80126C21.2235 6.93162 21.2967 7.10843 21.2967 7.29279V10.166C21.2968 10.2573 21.2789 10.3477 21.244 10.4321C21.2091 10.5164 21.1579 10.5931 21.0934 10.6576C21.0289 10.7222 20.9522 10.7734 20.8679 10.8084C20.7835 10.8433 20.6931 10.8613 20.6019 10.8613Z" fill="#976BFE"/>
<path fill-rule="evenodd" clip-rule="evenodd" d="M41.4321 30.2547H24.8647C23.7147 30.2547 22.7793 29.3191 22.7793 28.1693V28.0766C22.7793 26.9268 23.7147 25.9912 24.8647 25.9912H41.4321C41.6164 25.9912 41.7932 26.0645 41.9236 26.1948C42.054 26.3252 42.1272 26.502 42.1272 26.6863V29.5596C42.1272 29.7439 42.054 29.9207 41.9236 30.0511C41.7932 30.1815 41.6164 30.2547 41.4321 30.2547ZM24.8647 27.3815C24.6804 27.3817 24.5037 27.455 24.3734 27.5853C24.2431 27.7156 24.1698 27.8923 24.1696 28.0766V28.1693C24.1698 28.3536 24.2431 28.5303 24.3734 28.6606C24.5037 28.7909 24.6804 28.8642 24.8647 28.8644H40.7369V27.3815H24.8647Z" fill="#976BFE"/>
<path d="M25.2702 41.9658H44.3053C44.357 41.9658 44.4067 41.9452 44.4433 41.9086C44.4799 41.8721 44.5004 41.8224 44.5004 41.7707V38.8974V36.0242V29.5595C44.5004 29.5077 44.4799 29.4581 44.4433 29.4215C44.4067 29.3849 44.357 29.3643 44.3053 29.3643H24.9117H24.911V28.8643C24.8136 28.8647 24.717 28.8456 24.6269 28.8082C24.5369 28.7709 24.4551 28.716 24.3865 28.6468L25.2702 41.9658ZM25.2702 41.9658C24.1729 41.9658 23.2793 41.0723 23.2793 39.9749V28.1229C23.2793 28.0711 23.2999 28.0215 23.3364 27.9849C23.373 27.9483 23.4227 27.9277 23.4744 27.9277C23.5262 27.9277 23.5758 27.9483 23.6124 27.9849C23.649 28.0215 23.6696 28.0711 23.6696 28.1229C23.6696 28.4529 23.7987 28.7661 24.0324 28.9999L25.2702 41.9658Z" stroke="#976BFE"/>
<path fill-rule="evenodd" clip-rule="evenodd" d="M33.5299 22.3516C33.3455 22.3516 33.1687 22.2784 33.0384 22.148C32.908 22.0177 32.8348 21.8409 32.8348 21.6565V19.5016C32.8348 17.1123 30.891 15.1686 28.5018 15.1686C28.3174 15.1686 28.1406 15.0954 28.0102 14.965C27.8799 14.8346 27.8066 14.6578 27.8066 14.4735C27.8066 14.2891 27.8799 14.1123 28.0102 13.9819C28.1406 13.8516 28.3174 13.7783 28.5018 13.7783C31.6575 13.7783 34.225 16.3458 34.225 19.5016V21.6565C34.225 21.8409 34.1518 22.0177 34.0214 22.148C33.8911 22.2784 33.7143 22.3516 33.5299 22.3516Z" fill="#976BFE"/>
<path fill-rule="evenodd" clip-rule="evenodd" d="M33.5323 22.3534C33.441 22.3534 33.3506 22.3354 33.2663 22.3004C33.182 22.2655 33.1054 22.2143 33.0408 22.1497L30.8859 19.9948C30.7575 19.864 30.6859 19.6878 30.6867 19.5045C30.6875 19.3213 30.7607 19.1457 30.8903 19.0161C31.0199 18.8865 31.1954 18.8133 31.3787 18.8125C31.562 18.8117 31.7382 18.8833 31.8689 19.0118L33.5323 20.6751L35.1956 19.0118C35.3264 18.8833 35.5026 18.8117 35.6859 18.8125C35.8692 18.8133 36.0447 18.8865 36.1743 19.0161C36.3039 19.1457 36.3771 19.3213 36.3779 19.5045C36.3787 19.6878 36.3071 19.864 36.1787 19.9948L34.0237 22.1497C33.9592 22.2143 33.8826 22.2655 33.7983 22.3004C33.714 22.3354 33.6236 22.3534 33.5323 22.3534ZM18.4479 35.2829C15.2921 35.2829 12.7246 32.7155 12.7246 29.5596V27.4047C12.7246 27.2203 12.7978 27.0435 12.9282 26.9132C13.0586 26.7828 13.2354 26.7096 13.4197 26.7096C13.6041 26.7096 13.7809 26.7828 13.9113 26.9132C14.0416 27.0435 14.1149 27.2203 14.1149 27.4047V29.5596C14.1149 31.9488 16.0586 33.8926 18.4479 33.8926C18.6322 33.8926 18.8091 33.9658 18.9394 34.0962C19.0698 34.2266 19.143 34.4034 19.143 34.5877C19.143 34.7721 19.0698 34.9489 18.9394 35.0793C18.8091 35.2096 18.6322 35.2829 18.4479 35.2829Z" fill="#976BFE"/>
<path fill-rule="evenodd" clip-rule="evenodd" d="M15.5748 30.2541C15.4834 30.2542 15.393 30.2363 15.3087 30.2013C15.2243 30.1664 15.1477 30.1151 15.0832 30.0505L13.4198 28.3872L11.7565 30.0505C11.6257 30.179 11.4496 30.2506 11.2663 30.2498C11.083 30.249 10.9074 30.1758 10.7778 30.0462C10.6482 29.9166 10.575 29.741 10.5742 29.5577C10.5734 29.3744 10.645 29.1982 10.7735 29.0675L12.9284 26.9126C13.0588 26.7822 13.2356 26.709 13.42 26.709C13.6043 26.709 13.7812 26.7822 13.9115 26.9126L16.0665 29.0675C16.1637 29.1647 16.2298 29.2886 16.2566 29.4234C16.2834 29.5583 16.2697 29.698 16.217 29.8251C16.1644 29.9521 16.0753 30.0606 15.961 30.137C15.8466 30.2133 15.7122 30.2541 15.5748 30.2541Z" fill="#976BFE" stroke="#976BFE" stroke-width="0.22478" stroke-miterlimit="2.613"/>
<path fill-rule="evenodd" clip-rule="evenodd" d="M12.4539 10.8602C12.3164 10.8602 12.182 10.8195 12.0677 10.7431C11.9534 10.6667 11.8643 10.5582 11.8117 10.4312C11.7591 10.3042 11.7453 10.1644 11.7721 10.0296C11.799 9.89474 11.8651 9.77088 11.9623 9.67366L13.154 8.48196L10.0739 5.40182L4.81864 10.6567C4.75443 10.7228 4.67773 10.7754 4.593 10.8116C4.50827 10.8477 4.4172 10.8667 4.32508 10.8673C4.23295 10.868 4.14162 10.8503 4.05638 10.8154C3.97115 10.7804 3.89371 10.7289 3.82857 10.6637C3.76343 10.5986 3.71189 10.5211 3.67695 10.4359C3.642 10.3507 3.62435 10.2593 3.62502 10.1672C3.62568 10.0751 3.64466 9.984 3.68083 9.89927C3.717 9.81454 3.76966 9.73785 3.83573 9.67366L9.58242 3.92721C9.71279 3.79686 9.88959 3.72363 10.0739 3.72363C10.2583 3.72363 10.4351 3.79686 10.5655 3.92721L14.6286 7.99039C14.759 8.12075 14.8322 8.29755 14.8322 8.4819C14.8322 8.66625 14.759 8.84305 14.6286 8.97341L12.9454 10.6567C12.8809 10.7213 12.8043 10.7726 12.7199 10.8075C12.6356 10.8424 12.5452 10.8604 12.4539 10.8602Z" fill="#976BFE"/>
<path d="M3.97087 9.95746L4.02523 9.96973H4.08096H23.4752C23.5008 9.96973 23.5262 9.97477 23.5499 9.98458C23.5736 9.99439 23.5951 10.0088 23.6132 10.0269C23.6313 10.045 23.6457 10.0665 23.6555 10.0902C23.6653 10.1139 23.6703 10.1392 23.6703 10.1649V19.5028V22.3761C23.6703 22.4017 23.6653 22.4271 23.6555 22.4507C23.6457 22.4744 23.6313 22.4959 23.6132 22.514C23.5951 22.5321 23.5736 22.5465 23.5499 22.5563C23.5262 22.5661 23.5008 22.5712 23.4752 22.5712H4.44012C3.34281 22.5712 2.44922 21.6776 2.44922 20.5803V9.88025L2.46464 9.61746L3.97087 9.95746Z" stroke="#976BFE"/>
<path d="M7.63352 16C7.62216 15.858 7.56889 15.7472 7.47372 15.6676C7.37997 15.5881 7.23722 15.5483 7.04545 15.5483C6.9233 15.5483 6.82315 15.5632 6.74503 15.593C6.66832 15.6214 6.61151 15.6605 6.57457 15.7102C6.53764 15.7599 6.51847 15.8168 6.51705 15.8807C6.5142 15.9332 6.52344 15.9808 6.54474 16.0234C6.56747 16.0646 6.60298 16.1023 6.65128 16.1364C6.69957 16.169 6.76136 16.1989 6.83665 16.2259C6.91193 16.2528 7.00142 16.277 7.10511 16.2983L7.46307 16.375C7.70455 16.4261 7.91122 16.4936 8.0831 16.5774C8.25497 16.6612 8.3956 16.7599 8.50497 16.8736C8.61435 16.9858 8.6946 17.1122 8.74574 17.2528C8.7983 17.3935 8.82528 17.5469 8.8267 17.7131C8.82528 18 8.75355 18.2429 8.61151 18.4418C8.46946 18.6406 8.26634 18.7919 8.00213 18.8956C7.73935 18.9993 7.4233 19.0511 7.05398 19.0511C6.67472 19.0511 6.34375 18.995 6.06108 18.8828C5.77983 18.7706 5.56108 18.598 5.40483 18.3651C5.25 18.1307 5.17188 17.831 5.17045 17.4659H6.29545C6.30256 17.5994 6.33594 17.7116 6.3956 17.8026C6.45526 17.8935 6.53906 17.9624 6.64702 18.0092C6.75639 18.0561 6.88636 18.0795 7.03693 18.0795C7.16335 18.0795 7.26918 18.0639 7.3544 18.0327C7.43963 18.0014 7.50426 17.9581 7.5483 17.9027C7.59233 17.8473 7.61506 17.7841 7.61648 17.7131C7.61506 17.6463 7.59304 17.5881 7.55043 17.5384C7.50923 17.4872 7.44105 17.4418 7.34588 17.402C7.25071 17.3608 7.12216 17.3224 6.96023 17.2869L6.52557 17.1932C6.1392 17.1094 5.83452 16.9695 5.61151 16.7734C5.38991 16.576 5.27983 16.3068 5.28125 15.9659C5.27983 15.6889 5.35369 15.4467 5.50284 15.2393C5.65341 15.0305 5.86151 14.8679 6.12713 14.7514C6.39418 14.6349 6.70028 14.5767 7.04545 14.5767C7.39773 14.5767 7.70241 14.6357 7.95952 14.7536C8.21662 14.8714 8.41477 15.0376 8.55398 15.2521C8.6946 15.4652 8.76563 15.7145 8.76705 16H7.63352ZM13.3512 16.2727H12.1495C12.141 16.1733 12.1183 16.0831 12.0813 16.0021C12.0458 15.9212 11.9961 15.8516 11.9322 15.7933C11.8697 15.7337 11.7937 15.6882 11.7042 15.657C11.6147 15.6243 11.5131 15.608 11.3995 15.608C11.2006 15.608 11.0323 15.6562 10.8945 15.7528C10.7582 15.8494 10.6545 15.9879 10.5835 16.1683C10.5138 16.3487 10.479 16.5653 10.479 16.8182C10.479 17.0852 10.5146 17.3089 10.5856 17.4893C10.658 17.6683 10.7624 17.8033 10.8988 17.8942C11.0352 17.9837 11.1992 18.0284 11.391 18.0284C11.5004 18.0284 11.5984 18.0149 11.685 17.9879C11.7717 17.9595 11.8469 17.919 11.9109 17.8665C11.9748 17.8139 12.0266 17.7507 12.0664 17.6768C12.1076 17.6016 12.1353 17.517 12.1495 17.4233L13.3512 17.4318C13.337 17.6165 13.2852 17.8047 13.1957 17.9964C13.1062 18.1868 12.979 18.3629 12.8143 18.5249C12.6509 18.6854 12.4485 18.8146 12.207 18.9126C11.9656 19.0107 11.685 19.0597 11.3654 19.0597C10.9648 19.0597 10.6055 18.9737 10.2873 18.8018C9.97053 18.63 9.71982 18.3771 9.53516 18.0433C9.35192 17.7095 9.2603 17.3011 9.2603 16.8182C9.2603 16.3324 9.35405 15.9233 9.54155 15.5909C9.72905 15.2571 9.98189 15.005 10.3001 14.8345C10.6183 14.6626 10.9734 14.5767 11.3654 14.5767C11.641 14.5767 11.8945 14.6143 12.1261 14.6896C12.3576 14.7649 12.5607 14.875 12.7354 15.0199C12.9102 15.1634 13.0508 15.3402 13.1573 15.5504C13.2638 15.7607 13.3285 16.0014 13.3512 16.2727ZM14.9966 19L13.7097 14.6364H15.0307L15.6273 17.321H15.6614L16.3688 14.6364H17.4086L18.1159 17.3295H18.15L18.7466 14.6364H20.0676L18.7807 19H17.6472L16.9057 16.5625H16.8716L16.1301 19H14.9966Z" fill="#976BFE"/>
<path d="M27.2812 38V33.6364H30.4261V34.5909H28.4659V35.3409H30.2642V36.2955H28.4659V37.0455H30.4176V38H27.2812ZM35.2409 35.8182C35.2409 36.304 35.1465 36.7138 34.9576 37.0476C34.7686 37.38 34.5137 37.6321 34.1926 37.804C33.8716 37.9744 33.5137 38.0597 33.1188 38.0597C32.7211 38.0597 32.3617 37.9737 32.0407 37.8018C31.7211 37.6286 31.4668 37.3757 31.2779 37.0433C31.0904 36.7095 30.9966 36.3011 30.9966 35.8182C30.9966 35.3324 31.0904 34.9233 31.2779 34.5909C31.4668 34.2571 31.7211 34.005 32.0407 33.8345C32.3617 33.6626 32.7211 33.5767 33.1188 33.5767C33.5137 33.5767 33.8716 33.6626 34.1926 33.8345C34.5137 34.005 34.7686 34.2571 34.9576 34.5909C35.1465 34.9233 35.2409 35.3324 35.2409 35.8182ZM34.0222 35.8182C34.0222 35.5568 33.9874 35.3366 33.9178 35.1577C33.8496 34.9773 33.748 34.8409 33.6131 34.7486C33.4796 34.6548 33.3148 34.608 33.1188 34.608C32.9228 34.608 32.7573 34.6548 32.6223 34.7486C32.4888 34.8409 32.3873 34.9773 32.3176 35.1577C32.2495 35.3366 32.2154 35.5568 32.2154 35.8182C32.2154 36.0795 32.2495 36.3004 32.3176 36.4808C32.3873 36.6598 32.4888 36.7962 32.6223 36.8899C32.7573 36.9822 32.9228 37.0284 33.1188 37.0284C33.3148 37.0284 33.4796 36.9822 33.6131 36.8899C33.748 36.7962 33.8496 36.6598 33.9178 36.4808C33.9874 36.3004 34.0222 36.0795 34.0222 35.8182ZM36.6472 38H35.3688L36.8091 33.6364H38.4284L39.8688 38H38.5904L37.6358 34.8381H37.6017L36.6472 38ZM36.4086 36.2784H38.812V37.1648H36.4086V36.2784Z" fill="#976BFE"/>
</svg>
