<svg width="40" height="40" viewBox="0 0 40 40" fill="none" xmlns="http://www.w3.org/2000/svg">
<circle cx="20" cy="20" r="20" fill="#EE4C4D"/>
<g filter="url(#filter0_d_837_4017)">
<path d="M14.6857 11.0027C15.1131 11.0505 15.5409 11.0933 15.9551 11.2084C17.4194 11.6154 18.4195 12.4698 19.0127 13.7168C19.4448 14.6251 19.58 15.5783 19.5374 16.5553C19.4924 17.5897 19.3029 18.6106 19.1392 19.6332C18.9968 20.5242 18.8352 21.4127 18.619 22.2926C18.5854 22.4289 18.5249 22.5604 18.5221 22.7025C18.3692 23.1153 18.2494 23.5371 18.0781 23.9448C17.775 24.6671 17.4 25.3546 16.8815 25.9762C15.9409 27.1039 14.6745 27.7322 13.123 27.9275C12.2601 28.0361 11.3987 28.0388 10.5577 27.8239C8.95592 27.4147 7.90425 26.4801 7.36583 25.0848C7.0772 24.3366 6.9858 23.5604 7.00174 22.773C7.02017 21.855 7.19175 20.9525 7.34167 20.0473C7.50131 19.0839 7.67762 18.1231 7.8634 17.1636C7.86614 17.1496 7.86141 17.1343 7.86041 17.1197C7.99788 16.6575 8.10198 16.1875 8.26584 15.7315C8.39061 15.3841 8.49695 15.0296 8.65036 14.6922C8.88171 14.1834 9.16113 13.6948 9.51924 13.243C9.76678 12.9309 10.0507 12.652 10.3475 12.3762C10.798 11.9577 11.3285 11.6542 11.9122 11.4265C12.6576 11.1355 13.4518 11.0224 14.2639 11.0073C14.3548 11.0055 14.4454 11.0024 14.5363 11C14.5859 11.012 14.6354 11.0149 14.6857 11.0027ZM10.6663 22.3489C10.6807 22.5699 10.6852 22.7918 10.7121 23.0117C10.7455 23.2842 10.8205 23.5489 10.9572 23.797C11.1584 24.1619 11.4719 24.4164 11.9182 24.5099C12.5993 24.6525 13.2358 24.5512 13.8054 24.1765C14.2427 23.889 14.5513 23.5086 14.7856 23.0774C15.0585 22.5752 15.2222 22.0421 15.331 21.4954C15.5698 20.2967 15.7827 19.0943 15.9635 17.8874C16.0457 17.3383 16.1132 16.7881 16.0766 16.2323C16.0537 15.8838 15.9904 15.5424 15.8261 15.2221C15.6331 14.8461 15.3213 14.5843 14.869 14.4725C14.5283 14.3885 14.1802 14.3803 13.8338 14.4435C13.1315 14.5716 12.6292 14.9507 12.2537 15.4737C11.85 16.0361 11.6468 16.6668 11.4991 17.3137C11.263 18.3481 11.0839 19.3914 10.9148 20.4357C10.812 21.0706 10.6755 21.7031 10.6663 22.3489Z" fill="white"/>
<path d="M20.7418 22.4899C20.8964 21.5794 21.0531 20.6694 21.2055 19.7585C21.4301 18.4175 21.6513 17.076 21.8746 15.735C22.0811 14.496 22.289 13.257 22.4943 12.0178C22.5089 11.9291 22.5296 11.8429 22.5764 11.7644C22.6975 11.5613 22.8668 11.4272 23.1485 11.4496C23.2466 11.4573 23.3464 11.4476 23.4456 11.446C23.5781 11.4653 23.7108 11.4706 23.844 11.4551C23.8757 11.4691 23.9078 11.4693 23.9402 11.4567C24.0228 11.4882 24.1078 11.4839 24.1934 11.4706C24.5411 11.4968 24.889 11.4997 25.2374 11.4904C25.5195 11.5092 25.8012 11.5332 26.0848 11.5161C26.4325 11.5407 26.7807 11.5442 27.1291 11.536C27.2449 11.5556 27.3609 11.5624 27.4777 11.5447C27.7086 11.5804 27.9417 11.5768 28.1745 11.5753C28.2407 11.5815 28.307 11.5875 28.3732 11.5937C28.6539 11.6544 28.9418 11.6892 29.2157 11.7752C30.5812 12.204 31.4237 13.0606 31.8039 14.2907C32.0732 15.1615 32.0311 16.0414 31.8812 16.9233C31.7619 17.6247 31.5619 18.3082 31.3066 18.9792C31.1749 19.2246 31.0549 19.476 30.9089 19.7146C30.4206 20.5124 29.7459 21.146 28.8046 21.524C28.1757 21.7765 27.5056 21.888 26.818 21.8995C26.047 21.9126 25.2757 21.9113 24.5045 21.9162C24.4464 21.9166 24.3882 21.9197 24.3304 21.9173C24.239 21.9135 24.1987 21.9481 24.1862 22.0308C24.1446 22.3086 24.0948 22.5854 24.0497 22.863C23.8301 24.2135 23.6109 25.5643 23.3913 26.9148C23.3674 27.0624 23.3205 27.203 23.215 27.3231C23.1021 27.4517 22.9642 27.5278 22.7714 27.5309C22.0086 27.5435 21.2461 27.5648 20.4835 27.579C20.1424 27.5854 20.0173 27.4788 20.0012 27.1773C19.9882 26.9394 20.05 26.7077 20.0881 26.4745C20.3055 25.1459 20.5241 23.8178 20.7425 22.4895L20.7418 22.4899ZM24.6995 18.7258C24.7371 18.7358 24.7605 18.7473 24.7836 18.7476C25.4545 18.7491 26.1257 18.7562 26.7966 18.7476C27.1547 18.7429 27.4735 18.6228 27.7516 18.4188C28.0866 18.1732 28.3165 17.8633 28.4706 17.5057C28.7124 16.9439 28.7759 16.3611 28.7214 15.7659C28.7064 15.6034 28.6556 15.4475 28.5817 15.2979C28.437 15.0057 28.1865 14.831 27.8366 14.7705C27.723 14.751 27.6072 14.7339 27.4921 14.7315C26.8461 14.7175 26.2002 14.7077 25.5539 14.6984C25.3609 14.6955 25.3607 14.6984 25.3308 14.8789C25.1706 15.841 25.01 16.8031 24.8511 17.7655C24.7983 18.0852 24.75 18.4053 24.6995 18.7258Z" fill="white"/>
</g>
<defs>
<filter id="filter0_d_837_4017" x="7" y="11" width="25" height="19" filterUnits="userSpaceOnUse" color-interpolation-filters="sRGB">
<feFlood flood-opacity="0" result="BackgroundImageFix"/>
<feColorMatrix in="SourceAlpha" type="matrix" values="0 0 0 0 0 0 0 0 0 0 0 0 0 0 0 0 0 0 127 0" result="hardAlpha"/>
<feOffset dy="2"/>
<feComposite in2="hardAlpha" operator="out"/>
<feColorMatrix type="matrix" values="0 0 0 0 0.68208 0 0 0 0 0.0672089 0 0 0 0 0.0710044 0 0 0 1 0"/>
<feBlend mode="normal" in2="BackgroundImageFix" result="effect1_dropShadow_837_4017"/>
<feBlend mode="normal" in="SourceGraphic" in2="effect1_dropShadow_837_4017" result="shape"/>
</filter>
</defs>
</svg>
