<svg width="40" height="40" viewBox="0 0 40 40" fill="none" xmlns="http://www.w3.org/2000/svg">
<circle cx="20" cy="20" r="20" fill="#A878FA"/>
<g filter="url(#filter0_d_837_3980)">
<path d="M23.2249 24.0862L18.1997 15.6349C18.1082 15.4793 18.0601 15.3032 18.0601 15.1239C18.0601 14.9447 18.1082 14.7685 18.1997 14.6129L19.8033 11.9066C19.8968 11.7531 20.03 11.6261 20.1897 11.5382C20.3493 11.4503 20.5298 11.4045 20.7133 11.4054L23.9206 11.4054C24.105 11.4055 24.2862 11.4528 24.446 11.5425C24.6057 11.6322 24.7383 11.7611 24.8306 11.9164L26.4342 14.6149C26.5257 14.7705 26.5738 14.9467 26.5738 15.1259C26.5738 15.3051 26.5257 15.4813 26.4342 15.6369L24.8306 18.3354C24.7383 18.4907 24.6057 18.6196 24.446 18.7093C24.2862 18.799 24.105 18.8463 23.9206 18.8464L22.3817 18.8464C22.3357 18.8465 22.2906 18.8582 22.2508 18.8805C22.211 18.9027 22.1779 18.9347 22.1548 18.9733C22.1317 19.0119 22.1194 19.0556 22.1191 19.1003C22.1188 19.1449 22.1305 19.1888 22.1531 19.2277L22.9883 20.6329C23.0345 20.7104 23.1009 20.7745 23.1808 20.8191C23.2607 20.8636 23.3512 20.8868 23.4433 20.8865L25.1339 20.8865C25.3181 20.8864 25.4991 20.8393 25.6588 20.75C25.8185 20.6607 25.9512 20.5322 26.0439 20.3774L28.8588 15.6271C28.9513 15.4718 29 15.2955 29 15.1161C29 14.9366 28.9513 14.7604 28.8588 14.6051L26.0439 9.86452C25.9516 9.70925 25.819 9.5803 25.6593 9.4906C25.4996 9.40091 25.3184 9.35363 25.1339 9.35352L19.5 9.35352C19.3155 9.35363 19.1343 9.40091 18.9746 9.4906C18.8149 9.5803 18.6822 9.70925 18.59 9.86452L15.7751 14.6051C15.6826 14.7604 15.6339 14.9366 15.6339 15.1161C15.6339 15.2955 15.6826 15.4718 15.7751 15.6271L20.8003 24.0783C20.8918 24.2339 20.9399 24.4101 20.9399 24.5893C20.9399 24.7685 20.8918 24.9447 20.8003 25.1003L19.1967 27.7988C19.1044 27.9541 18.9718 28.083 18.8121 28.1727C18.6523 28.2624 18.4711 28.3097 18.2867 28.3098L15.0794 28.3098C14.895 28.3097 14.7138 28.2624 14.554 28.1727C14.3943 28.083 14.2617 27.9541 14.1694 27.7988L12.5658 25.1082C12.4743 24.9525 12.4262 24.7764 12.4262 24.5972C12.4262 24.4179 12.4743 24.2418 12.5658 24.0862L14.1694 21.3877C14.2617 21.2324 14.3943 21.1034 14.554 21.0137C14.7138 20.9241 14.895 20.8768 15.0794 20.8767L16.6204 20.8767C16.6664 20.8769 16.7116 20.8652 16.7515 20.843C16.7913 20.8207 16.8245 20.7886 16.8474 20.7499C16.8704 20.7112 16.8825 20.6673 16.8824 20.6226C16.8823 20.5779 16.87 20.534 16.8469 20.4954L16.0137 19.0901C15.9673 19.0128 15.9009 18.9488 15.8211 18.9043C15.7412 18.8598 15.6507 18.8364 15.5587 18.8366L13.8661 18.8366C13.6819 18.8367 13.5009 18.8838 13.3412 18.9731C13.1815 19.0624 13.0488 19.1908 12.9561 19.3456L10.1412 24.0862C10.0487 24.2415 10 24.4177 10 24.5972C10 24.7766 10.0487 24.9529 10.1412 25.1082L12.9561 29.8487C13.0484 30.004 13.181 30.1329 13.3407 30.2226C13.5004 30.3123 13.6816 30.3596 13.8661 30.3597L19.5 30.3597C19.6845 30.3596 19.8657 30.3123 20.0254 30.2226C20.1851 30.1329 20.3178 30.004 20.41 29.8487L23.2249 25.1082C23.3174 24.9529 23.3661 24.7766 23.3661 24.5972C23.3661 24.4177 23.3174 24.2415 23.2249 24.0862Z" fill="white"/>
</g>
<defs>
<filter id="filter0_d_837_3980" x="10" y="9.35352" width="19" height="23.0059" filterUnits="userSpaceOnUse" color-interpolation-filters="sRGB">
<feFlood flood-opacity="0" result="BackgroundImageFix"/>
<feColorMatrix in="SourceAlpha" type="matrix" values="0 0 0 0 0 0 0 0 0 0 0 0 0 0 0 0 0 0 127 0" result="hardAlpha"/>
<feOffset dy="2"/>
<feComposite in2="hardAlpha" operator="out"/>
<feColorMatrix type="matrix" values="0 0 0 0 0.47451 0 0 0 0 0.266667 0 0 0 0 0.827451 0 0 0 1 0"/>
<feBlend mode="normal" in2="BackgroundImageFix" result="effect1_dropShadow_837_3980"/>
<feBlend mode="normal" in="SourceGraphic" in2="effect1_dropShadow_837_3980" result="shape"/>
</filter>
</defs>
</svg>
