<svg width="20" height="21" viewBox="0 0 20 21" fill="none" xmlns="http://www.w3.org/2000/svg">
<path d="M3.74997 3.27148L7.44331 6.72094L6.30664 7.93742L4.58331 6.32934V13.3699C4.58331 14.2864 5.32997 15.0363 6.24997 15.0363H10.8333V16.7027H6.24997C4.40914 16.7027 2.91664 15.2113 2.91664 13.3699V6.32934L1.19331 7.93742L0.0566406 6.72094L3.74997 3.27148ZM13.75 5.03787H9.16664V3.37147H13.75C15.5908 3.37147 17.0833 4.8629 17.0833 6.70428V13.7448L18.8066 12.1368L19.9433 13.3532L16.25 16.8027L12.5566 13.3532L13.6933 12.1368L15.4166 13.7448V6.70428C15.4166 5.78775 14.67 5.03787 13.75 5.03787Z" fill="#555D69"/>
</svg>
