<svg width="16" height="21" viewBox="0 0 16 21" fill="none" xmlns="http://www.w3.org/2000/svg">
<path d="M15.6092 10.1919C15.3508 10.4738 15.0092 10.6125 14.6675 10.6125C14.3258 10.6125 13.9849 10.4727 13.7249 10.193L9.33376 5.48044V19.2033C9.33376 19.9948 8.73664 20.5948 8.03784 20.5948C7.33904 20.5948 6.66691 19.9952 6.66691 19.2033V5.48044L2.2762 10.1919C1.75533 10.7512 0.911521 10.7512 0.390652 10.1919C-0.130217 9.63263 -0.130217 8.72658 0.390652 8.16729L7.05777 1.00834C7.57864 0.449044 8.42245 0.449044 8.94332 1.00834L15.6104 8.16729C16.1301 8.72882 16.1301 9.63263 15.6092 10.1919Z" fill="black"/>
</svg>
